<svg xmlns="http://www.w3.org/2000/svg" viewBox="0 0 140 32"><title>logohdpi</title><g id="logo_white"><path d="M9.83,17.23a2.92,2.92,0,1,1,2.92,2.92,2.92,2.92,0,0,1-2.92-2.92Z" style="fill:#6eb535"/><path d="M16.46,22.43l-1-1.13a4.84,4.84,0,0,1-3.19.77l-.4,1.48a6.38,6.38,0,0,0,4.62-1.12Z" style="fill:#f0c500"/><path d="M7.55,9.4,6.87,8.19A10.72,10.72,0,0,0,2,16.11l1.39.06A9.36,9.36,0,0,1,7.55,9.4Z" style="fill:#f0c500"/><path d="M16.54,20.29l1,1.13a6.36,6.36,0,0,0-.28-8.68l-.19-.17-.88,1.24h0a4.85,4.85,0,0,1,.34,6.48Z" style="fill:#34b295"/><path d="M3.37,17.36,0,17.18v.06A12.77,12.77,0,0,0,12.75,30a12.09,12.09,0,0,0,1.42-.08l-.54-3.34c-.29,0-.59,0-.88,0a9.39,9.39,0,0,1-9.37-9.25Z" style="fill:#34b295"/><path d="M8.26,12.74A6.3,6.3,0,0,0,7,14.55L8.46,15a4.77,4.77,0,0,1,.87-1.21A4.85,4.85,0,0,1,15,12.93l.9-1.23a6.36,6.36,0,0,0-7.6,1Z" style="fill:#fff"/><path d="M14.81,26.37l.83,5.3a14.71,14.71,0,0,0,10.5-20.53l-4.77,2.42a9.29,9.29,0,0,1,.75,3.67,9.38,9.38,0,0,1-7.31,9.14Z" style="fill:#fff"/><path d="M8,16.48,6.54,16a6.33,6.33,0,0,0,3.83,7.13l.4-1.48a4.7,4.7,0,0,1-1.44-1A4.82,4.82,0,0,1,8,16.48Z" style="fill:#e24538"/><path d="M20.81,12.46l7-3.55A17.22,17.22,0,0,0,4.74,2L8.65,8.8a9.37,9.37,0,0,1,12.16,3.66Z" style="fill:#e24538"/><path d="M46.07,14c0-1.66-1.18-2.49-3.54-2.49h-.79v5.12h.73a4.37,4.37,0,0,0,2.68-.7A2.29,2.29,0,0,0,46.07,14Zm4.28,0a5.25,5.25,0,0,1-.62,2.57A5.63,5.63,0,0,1,48,18.47a8.26,8.26,0,0,1-2.58,1.17,12,12,0,0,1-3.22.41h-.46v6.09H37.3v-18h5.2a13.4,13.4,0,0,1,3.15.35,7.55,7.55,0,0,1,2.49,1.07,5,5,0,0,1,1.62,1.83A5.57,5.57,0,0,1,50.34,14Z" style="fill:#fff"/><path d="M61.17,19.52A6.8,6.8,0,0,0,61,18.15,3.87,3.87,0,0,0,60.59,17a2.41,2.41,0,0,0-.84-.84,2.93,2.93,0,0,0-2.63,0,2.4,2.4,0,0,0-.84.84,3.88,3.88,0,0,0-.45,1.19,7,7,0,0,0,0,2.73,3.83,3.83,0,0,0,.45,1.19,2.34,2.34,0,0,0,.84.84,2.93,2.93,0,0,0,2.63,0,2.35,2.35,0,0,0,.84-.84A3.82,3.82,0,0,0,61,20.88a6.79,6.79,0,0,0,.14-1.37Zm4.33,0A7.91,7.91,0,0,1,65,22.23a6.06,6.06,0,0,1-3.57,3.66,9,9,0,0,1-6.06,0,6.06,6.06,0,0,1-3.57-3.66,8.27,8.27,0,0,1,0-5.44,6.17,6.17,0,0,1,1.35-2.19,6.11,6.11,0,0,1,2.22-1.46,8.92,8.92,0,0,1,6.06,0,6.11,6.11,0,0,1,2.22,1.46A6.17,6.17,0,0,1,65,16.8a7.89,7.89,0,0,1,.46,2.72Z" style="fill:#fff"/><path d="M74.38,15.94a3.27,3.27,0,0,0-1.27.23,2.71,2.71,0,0,0-.95.69V23a3.42,3.42,0,0,0,.68.16,5.23,5.23,0,0,0,.87.06,2.83,2.83,0,0,0,2.46-1,4.65,4.65,0,0,0,.76-2.8,4.59,4.59,0,0,0-.61-2.45,2.11,2.11,0,0,0-1.93-1Zm-6.55-3.06H72v1.56a4.54,4.54,0,0,1,4-1.84,4.67,4.67,0,0,1,2.08.48,5,5,0,0,1,1.69,1.35,6.5,6.5,0,0,1,1.12,2.12,8.94,8.94,0,0,1,.41,2.79,7.83,7.83,0,0,1-.56,3.07,6.47,6.47,0,0,1-1.49,2.21A6.12,6.12,0,0,1,77,26a7.68,7.68,0,0,1-2.65.45,6.66,6.66,0,0,1-1.24-.1,7.55,7.55,0,0,1-1-.23v5.63H67.83V12.89Z" style="fill:#fff"/><path d="M93.16,21.81a4.52,4.52,0,0,1-.42,2,4,4,0,0,1-1.19,1.44,5.4,5.4,0,0,1-1.83.88,8.5,8.5,0,0,1-2.33.3,13.86,13.86,0,0,1-2.27-.2A9.85,9.85,0,0,1,83,25.6l.6-3a8.58,8.58,0,0,0,1.85.52,10.46,10.46,0,0,0,1.77.18,3.78,3.78,0,0,0,1.37-.23.8.8,0,0,0,.58-.77.71.71,0,0,0-.51-.69L87.07,21a12.36,12.36,0,0,1-1.57-.66,5.19,5.19,0,0,1-1.26-.86,3.78,3.78,0,0,1-.82-1.15,3.63,3.63,0,0,1-.3-1.52,3.64,3.64,0,0,1,1.46-3.19,6.5,6.5,0,0,1,3.81-1,10.12,10.12,0,0,1,2.27.24,6.89,6.89,0,0,1,2,.77L92,16.45a9.77,9.77,0,0,0-1.54-.53,6.91,6.91,0,0,0-1.7-.2,3.9,3.9,0,0,0-1.21.15.59.59,0,0,0-.42.61.68.68,0,0,0,.5.66l1.29.5c.4.14.84.32,1.33.53a6.28,6.28,0,0,1,1.37.79,4.42,4.42,0,0,1,1.07,1.18,3.07,3.07,0,0,1,.43,1.66Z" style="fill:#fff"/><path d="M94,12.89h2V10.11L100.36,8v4.85h3.81v3.3h-3.81v5.18a2,2,0,0,0,.34,1.22,1.45,1.45,0,0,0,1.23.45,8,8,0,0,0,1-.07,7.06,7.06,0,0,0,1-.2l.3,3a6.13,6.13,0,0,1-1.6.46,11,11,0,0,1-1.89.17A5.26,5.26,0,0,1,98.53,26,4,4,0,0,1,97.09,25a4.2,4.2,0,0,1-.81-1.57A7,7,0,0,1,96,21.46V16.18H94v-3.3Z" style="fill:#fff"/><path d="M112.07,15.38a1.94,1.94,0,0,0-1.58.66,2.74,2.74,0,0,0-.56,1.82h3.84a1.63,1.63,0,0,0,.05-.45,2.27,2.27,0,0,0-.45-1.45,1.58,1.58,0,0,0-1.31-.58Zm.14-2.77a5.51,5.51,0,0,1,4.11,1.53,5.74,5.74,0,0,1,1.52,4.24,11,11,0,0,1-.24,2.19h-7.68a2.79,2.79,0,0,0,.82,2,3.3,3.3,0,0,0,2.37.74,12.48,12.48,0,0,0,2-.17,7.44,7.44,0,0,0,1.85-.53l.55,2.79a9.45,9.45,0,0,1-2.32.79,13,13,0,0,1-2.66.27,8.67,8.67,0,0,1-3.05-.5,6.27,6.27,0,0,1-2.22-1.39,5.9,5.9,0,0,1-1.35-2.14,7.91,7.91,0,0,1-.46-2.77,8.46,8.46,0,0,1,.47-2.92,6.21,6.21,0,0,1,1.35-2.21,5.92,5.92,0,0,1,2.13-1.39,7.6,7.6,0,0,1,2.79-.49Z" style="fill:#fff"/><path d="M128.77,16.62h-.52a4.44,4.44,0,0,0-3.62,1.3v8.23H120.3V12.89h4.19V15.1a3.68,3.68,0,0,1,1.17-1.7,3.22,3.22,0,0,1,2.06-.62,4,4,0,0,1,.63,0l.53.12-.11,3.68Z" style="fill:#fff"/><path d="M140,21.81a4.47,4.47,0,0,1-.42,2,3.94,3.94,0,0,1-1.19,1.44,5.31,5.31,0,0,1-1.82.88,8.53,8.53,0,0,1-2.33.3,13.87,13.87,0,0,1-2.27-.2,9.85,9.85,0,0,1-2.17-.61l.59-3a8.6,8.6,0,0,0,1.85.52,10.48,10.48,0,0,0,1.77.18,3.75,3.75,0,0,0,1.37-.23.8.8,0,0,0,.58-.77.71.71,0,0,0-.51-.69L133.91,21a12.24,12.24,0,0,1-1.57-.66,5.17,5.17,0,0,1-1.26-.86,3.61,3.61,0,0,1-.82-1.15,3.57,3.57,0,0,1-.31-1.52,3.65,3.65,0,0,1,1.46-3.19,6.5,6.5,0,0,1,3.81-1,10.14,10.14,0,0,1,2.28.24,6.85,6.85,0,0,1,2,.77l-.59,2.84a9.81,9.81,0,0,0-1.55-.53,6.85,6.85,0,0,0-1.7-.2,3.84,3.84,0,0,0-1.2.15.58.58,0,0,0-.42.61.68.68,0,0,0,.5.66l1.29.5c.39.14.83.32,1.33.53a6.14,6.14,0,0,1,1.37.79,4.4,4.4,0,0,1,1.07,1.18,3.07,3.07,0,0,1,.43,1.66Z" style="fill:#fff"/></g></svg>