<?xml version="1.0" encoding="UTF-8"?>
<svg width="1920px" height="7062px" viewBox="0 0 100% 100%" preserveAspectRatio="none" version="1.1" xmlns="http://www.w3.org/2000/svg" xmlns:xlink="http://www.w3.org/1999/xlink">
    <!-- Generator: Sketch 52.2 (67145) - http://www.bohemiancoding.com/sketch -->
    <title>Group 2</title>
    <desc>Created with Sketch.</desc>
    <defs>
        <linearGradient x1="44.341794%" y1="21.9869808%" x2="55.1902164%" y2="48.0294779%" id="linearGradient-1">
            <stop stop-color="#F6F6FB" offset="0%"></stop>
            <stop stop-color="#FFFFFF" offset="100%"></stop>
        </linearGradient>
    </defs>
    <g id="Landing-page" stroke="none" stroke-width="1" fill="none" fill-rule="evenodd">
        <g id="v3.4" transform="translate(0.000000, -1574.000000)" fill="url(#linearGradient-1)">
            <g id="Group-2" transform="translate(0.000000, 1574.000000)">
                <path d="M1920,0 C1504.06498,81.7676957 1228.75434,246.854673 1094.06809,495.260933 C907.562877,839.238589 826.201512,921.938222 645.879636,1026.74371 C523.995071,1097.58465 308.701859,1131.35371 0,1128.05087 L0,2110.76279 C336.81611,2077.47235 577.433713,2064.6995 721.852807,2072.44425 C1099.16476,2092.67831 1498.54715,2191.84406 1920,2369.94148 L1920,0 Z" id="wave-1"></path>
                <path d="M0,1808 C415.935025,1889.7677 691.245663,2054.85467 825.931915,2303.26093 C1012.43712,2647.23859 1093.79849,2729.93822 1274.12036,2834.74371 C1396.00493,2905.58465 1611.29814,2939.35371 1920,2936.05087 L1920,3918.76279 C1583.18389,3885.47235 1342.56629,3872.6995 1198.14719,3880.44425 C820.835244,3900.67831 421.452846,3999.84406 0,4177.94148 L0,1808 Z" id="wave-2"></path>
                <path d="M0,3957 C415.935025,4038.7677 691.245663,4203.85467 825.931915,4452.26093 C1012.43712,4796.23859 1093.79849,4878.93822 1274.12036,4983.74371 C1396.00493,5054.58465 1611.29814,5088.35371 1920,5085.05087 L1920,6067.76279 C1583.18389,6034.47235 1342.56629,6021.6995 1198.14719,6029.44425 C820.835244,6049.67831 421.452846,6148.84406 0,6326.94148 L0,3957 Z" id="wave-3"></path>
                <path d="M1920,4692 C1504.06498,4773.7677 1228.75434,4938.85467 1094.06809,5187.26093 C907.562877,5531.23859 826.201512,5613.93822 645.879636,5718.74371 C523.995071,5789.58465 308.701859,5823.35371 0,5820.05087 L0,6802.76279 C336.81611,6769.47235 577.433713,6756.6995 721.852807,6764.44425 C1099.16476,6784.67831 1498.54715,6883.84406 1920,7061.94148 L1920,4692 Z" id="wave-4"></path>
            </g>
        </g>
    </g>
</svg>