<svg width="10" height="16" viewBox="0 0 10 16" fill="none" xmlns="http://www.w3.org/2000/svg">
<path d="M4.18025 10.9231C2.88921 10.7964 1.72516 10.4973 0.728543 9.76393C0.604882 9.6727 0.477209 9.58475 0.364362 9.48285C-0.071854 9.0887 -0.115807 8.63728 0.229363 8.17208C0.52465 7.77399 1.02034 7.6675 1.53557 7.89608C1.63533 7.94038 1.73039 7.99568 1.82144 8.05508C3.6788 9.25574 6.23034 9.28889 8.09468 8.10907C8.27938 7.97583 8.47682 7.8672 8.70566 7.81173C9.15059 7.70425 9.56553 7.85801 9.80431 8.22426C10.0771 8.64253 10.0736 9.05079 9.7375 9.37553C9.22193 9.87338 8.60188 10.2336 7.91293 10.485C7.26149 10.7226 6.54795 10.8422 5.84174 10.9216C5.94831 11.0307 5.99854 11.0844 6.06517 11.1474C7.02411 12.0538 7.98724 12.9565 8.94304 13.8657C9.26867 14.1755 9.3367 14.5597 9.1574 14.92C8.96135 15.3138 8.52252 15.5729 8.09223 15.5452C7.81962 15.5275 7.60701 15.3998 7.41811 15.2208C6.69446 14.5357 5.9572 13.8633 5.2482 13.1652C5.04186 12.9622 4.94262 13.0006 4.76053 13.1769C4.03252 13.882 3.29264 14.5763 2.54841 15.2666C2.21422 15.5766 1.81655 15.6323 1.429 15.4553C1.01703 15.2674 0.75488 14.8718 0.775113 14.4742C0.789066 14.2052 0.929646 13.9998 1.12586 13.8155C2.07486 12.924 3.02125 12.0302 3.96798 11.1372C4.0306 11.0778 4.08903 11.0148 4.18025 10.9231Z" fill="#ED812B"/>
<path d="M4.89983 7.77779C2.75024 7.77053 0.987598 6.00879 1.00007 3.88029C1.0125 1.72829 2.77629 -0.00592403 4.94704 1.52098e-05C7.12219 0.00582409 8.86806 1.76498 8.85721 3.93935C8.84609 6.06351 7.07123 7.78517 4.89983 7.77779ZM6.85344 3.88544C6.84968 2.82859 5.99831 1.98723 4.93141 1.98627C3.85556 1.98514 2.99654 2.84179 3.00484 3.90829C3.01282 4.96112 3.87151 5.79652 4.94134 5.79267C6.00792 5.78896 6.85701 4.94213 6.85344 3.88544Z" fill="#ED812B"/>
</svg>
