<svg width="16" height="16" viewBox="0 0 16 16" fill="none" xmlns="http://www.w3.org/2000/svg">
<path fill-rule="evenodd" clip-rule="evenodd" d="M10.4559 0H5.54411C1.0614 0 0 1.0614 0 5.54411V10.4559C0 14.9386 1.0614 16 5.54411 16H10.4559C14.9386 16 16 14.9386 16 10.4559V5.54411C16 1.0614 14.9273 0 10.4559 0Z" fill="#45668E"/>
<path fill-rule="evenodd" clip-rule="evenodd" d="M12.7301 11.4161H11.567C11.1267 11.4161 10.9912 11.0661 10.2008 10.2644C9.512 9.59819 9.20713 9.50786 9.03776 9.50786C8.80064 9.50786 8.73289 9.57561 8.73289 9.90306V10.9532C8.73289 11.2354 8.64255 11.4048 7.89732 11.4048C6.66655 11.4048 5.30028 10.6596 4.34051 9.27074C2.8952 7.23827 2.5 5.71393 2.5 5.39776C2.5 5.22839 2.56775 5.07031 2.8952 5.07031H4.05822C4.3518 5.07031 4.46471 5.20581 4.57763 5.52197C5.15349 7.18182 6.11327 8.63841 6.50847 8.63841C6.65526 8.63841 6.72301 8.57066 6.72301 8.19805V6.48174C6.67784 5.69134 6.26006 5.62359 6.26006 5.34131C6.26006 5.20581 6.37297 5.07031 6.55364 5.07031H8.38285C8.63126 5.07031 8.7216 5.20581 8.7216 5.49939V7.81414C8.7216 8.06255 8.83451 8.15288 8.90226 8.15288C9.04905 8.15288 9.17325 8.06255 9.44425 7.79155C10.2798 6.85436 10.8783 5.40906 10.8783 5.40906C10.9573 5.23968 11.0928 5.0816 11.3864 5.0816H12.5494C12.8994 5.0816 12.9785 5.26227 12.8994 5.51068C12.7526 6.18817 11.3299 8.19805 11.3299 8.19805C11.2057 8.40129 11.1605 8.49163 11.3299 8.71745C11.4541 8.88683 11.8606 9.23686 12.1316 9.55302C12.6284 10.1176 13.0123 10.5918 13.114 10.9193C13.2269 11.2467 13.0575 11.4161 12.7301 11.4161Z" fill="white"/>
</svg>
