<?xml version="1.0" encoding="utf-8"?>
<!-- Generator: Adobe Illustrator 21.1.0, SVG Export Plug-In . SVG Version: 6.00 Build 0)  -->
<svg version="1.1" id="Layer_1" xmlns="http://www.w3.org/2000/svg" xmlns:xlink="http://www.w3.org/1999/xlink" x="0px" y="0px"
	 viewBox="0 0 200.9 78.6" style="enable-background:new 0 0 200.9 78.6;" xml:space="preserve">
<style type="text/css">
	.st0{clip-path:url(#SVGID_2_);}
	.st1{fill:url(#SVGID_3_);}
	.st2{clip-path:url(#SVGID_5_);}
	.st3{fill:url(#SVGID_6_);}
	.st4{clip-path:url(#SVGID_8_);}
	.st5{fill:url(#SVGID_9_);}
	.st6{clip-path:url(#SVGID_11_);}
	.st7{fill:url(#SVGID_12_);}
	.st8{clip-path:url(#SVGID_14_);}
	.st9{fill:url(#SVGID_15_);}
	.st10{clip-path:url(#SVGID_17_);}
	.st11{fill:url(#SVGID_18_);}
	.st12{clip-path:url(#SVGID_20_);}
	.st13{fill:url(#SVGID_21_);}
	.st14{fill:#006B6E;}
</style>
<title>eset</title>
<g>
	<defs>
		<path id="SVGID_1_" d="M27.7,3.4C18.4,3.3,9.7,8,4.8,15.9C1.3,23.8-0.4,32.4,0,41.1c-0.4,8.6,1.3,17.2,4.8,25.2
			c5,7.8,13.6,12.5,22.9,12.4h145.5c9.3,0.1,18-4.6,22.9-12.4c3.5-7.9,5.1-16.5,4.8-25.2c0.4-8.6-1.3-17.2-4.8-25.2
			c-5-7.9-13.7-12.6-23-12.5H27.7z"/>
	</defs>
	<clipPath id="SVGID_2_">
		<use xlink:href="#SVGID_1_"  style="overflow:visible;"/>
	</clipPath>
	<g class="st0">
		
			<linearGradient id="SVGID_3_" gradientUnits="userSpaceOnUse" x1="-355.4129" y1="432.4886" x2="-350.2161" y2="432.4886" gradientTransform="matrix(0 -14.47 14.47 0 -6157.6821 -5065.1367)">
			<stop  offset="0" style="stop-color:#008286"/>
			<stop  offset="5.000000e-02" style="stop-color:#008286"/>
			<stop  offset="0.18" style="stop-color:#00686B"/>
			<stop  offset="0.3" style="stop-color:#005356"/>
			<stop  offset="0.39" style="stop-color:#004C4E"/>
			<stop  offset="0.48" style="stop-color:#005254"/>
			<stop  offset="0.6" style="stop-color:#006164"/>
			<stop  offset="0.65" style="stop-color:#006B6E"/>
			<stop  offset="0.95" style="stop-color:#00969A"/>
			<stop  offset="1" style="stop-color:#00969A"/>
		</linearGradient>
		<rect y="3.4" class="st1" width="200.9" height="75.2"/>
	</g>
</g>
<g>
	<defs>
		<path id="SVGID_4_" d="M39.8,13.9c-8.5-0.3-17.1,1.4-24.7,5.2c-5.2,2.2-9.1,6.6-10.7,12.1c-0.6,3.6,0,7.2,1.7,10.4
			c1.9,2.8,5,4.4,8.4,4.4h173.8c3.4,0,6.5-1.6,8.4-4.4c1.6-3.3,2.2-7,1.6-10.7c-0.6-4.8-3.1-9.1-7-11.9c-5.4-3.6-11.8-5.4-18.2-4.9
			L39.8,13.9z"/>
	</defs>
	<clipPath id="SVGID_5_">
		<use xlink:href="#SVGID_4_"  style="overflow:visible;"/>
	</clipPath>
	<g class="st2">
		
			<linearGradient id="SVGID_6_" gradientUnits="userSpaceOnUse" x1="-250.0169" y1="351.7682" x2="-244.8201" y2="351.7682" gradientTransform="matrix(0 6.12 -6.12 0 2254.1848 1543.4406)">
			<stop  offset="0" style="stop-color:#008286"/>
			<stop  offset="0.29" style="stop-color:#00797D"/>
			<stop  offset="0.6" style="stop-color:#006B6E"/>
			<stop  offset="1" style="stop-color:#005E60"/>
		</linearGradient>
		<rect x="4.1" y="13.9" class="st3" width="194.5" height="31.8"/>
	</g>
</g>
<g>
	<defs>
		<path id="SVGID_7_" d="M29.6,10c-6,0.1-11.8,2.5-16.2,6.7c-5.6,6-6.8,15.6-6.8,24.4s1.2,18.3,6.8,24.4c4.4,4.2,10.1,6.5,16.2,6.7
			h75V10H29.6z"/>
	</defs>
	<clipPath id="SVGID_8_">
		<use xlink:href="#SVGID_7_"  style="overflow:visible;"/>
	</clipPath>
	<g class="st4">
		
			<linearGradient id="SVGID_9_" gradientUnits="userSpaceOnUse" x1="-285.1075" y1="382.5533" x2="-279.9107" y2="382.5533" gradientTransform="matrix(0 11.93 -11.93 0 4619.4409 3411.6055)">
			<stop  offset="0" style="stop-color:#FFFFFF"/>
			<stop  offset="0.3" style="stop-color:#FFFFFF"/>
			<stop  offset="0.31" style="stop-color:#F6F6F6"/>
			<stop  offset="1" style="stop-color:#F6F6F6"/>
		</linearGradient>
		<rect x="6.6" y="10" class="st5" width="98" height="62"/>
	</g>
</g>
<g>
	<defs>
		<path id="SVGID_10_" d="M6.6,42.1C6,50.4,8.4,58.7,13.4,65.4c4.4,4.2,10.1,6.5,16.2,6.7h75V45.7H14.5C11.5,45.7,8.6,44.4,6.6,42.1
			z"/>
	</defs>
	<clipPath id="SVGID_11_">
		<use xlink:href="#SVGID_10_"  style="overflow:visible;"/>
	</clipPath>
	<g class="st6">
		
			<linearGradient id="SVGID_12_" gradientUnits="userSpaceOnUse" x1="-269.8968" y1="374.0517" x2="-264.7" y2="374.0517" gradientTransform="matrix(0 8.75 -8.75 0 3328.5322 2392.4414)">
			<stop  offset="0" style="stop-color:#FFFFFF"/>
			<stop  offset="0.24" style="stop-color:#E7E8E9"/>
			<stop  offset="0.4" style="stop-color:#DCDDDE"/>
			<stop  offset="0.69" style="stop-color:#E7E8E9"/>
			<stop  offset="1" style="stop-color:#EDEDEE"/>
		</linearGradient>
		<rect x="6.6" y="42.1" class="st7" width="98" height="30"/>
	</g>
</g>
<g>
	<defs>
		<path id="SVGID_13_" d="M39.8,13.9c-8.5-0.3-17.1,1.4-24.7,5.2c-1.9,1-3.8,2.3-5.5,3.6c-1,2.4-1.8,5-2.2,7.6h97.2V13.9H39.8z"/>
	</defs>
	<clipPath id="SVGID_14_">
		<use xlink:href="#SVGID_13_"  style="overflow:visible;"/>
	</clipPath>
	<g class="st8">
		
			<linearGradient id="SVGID_15_" gradientUnits="userSpaceOnUse" x1="-464.8442" y1="504.5867" x2="-459.6474" y2="504.5867" gradientTransform="matrix(0 -3.14 3.14 0 -1528.3809 -1430.6295)">
			<stop  offset="0" style="stop-color:#F6F6F6"/>
			<stop  offset="1" style="stop-color:#EFEFF0"/>
		</linearGradient>
		<rect x="7.4" y="13.9" class="st9" width="97.2" height="16.3"/>
	</g>
</g>
<g>
	<defs>
		<path id="SVGID_16_" d="M154.6,23.3v7.9h8.2v27.5h11.1V31.2h8v-7.9H154.6z M130.5,30.5c4.1,0,6.3,0.4,6.3,6v0.4h-12.1
			c0-4.8,1-6.4,6-6.4 M113.9,40.9c0,13.1,3.3,17.8,17,17.8c4.2,0.3,8.5-0.4,12.4-2c3.2-2,5-5.7,4.6-9.5h-11c0,3.7-2.8,4.2-6.3,4.2
			c-5.2,0-6.1-2.1-6.1-8.5v-0.3h23.1v-1.6c0-14.3-3.8-17.9-17-17.9c-14.1,0-17,4.4-17,17.9"/>
	</defs>
	<clipPath id="SVGID_17_">
		<use xlink:href="#SVGID_16_"  style="overflow:visible;"/>
	</clipPath>
	<g class="st10">
		
			<linearGradient id="SVGID_18_" gradientUnits="userSpaceOnUse" x1="-256.7506" y1="352.5115" x2="-251.5538" y2="352.5115" gradientTransform="matrix(0 6.87 -6.87 0 2569.5769 1786.5022)">
			<stop  offset="0" style="stop-color:#FFFFFF"/>
			<stop  offset="1" style="stop-color:#E6E7E8"/>
		</linearGradient>
		<rect x="113.6" y="23.1" class="st11" width="68.4" height="35.7"/>
	</g>
</g>
<g>
	<defs>
		<path id="SVGID_19_" d="M38.6,30.9c4,0,6.2,0.4,6.2,5.9V37H32.7C32.7,32.3,33.8,30.8,38.6,30.9 M21.5,41.2
			c0,13.2,3.3,17.9,17.1,17.9c4.3,0.4,8.6-0.3,12.5-2c3.3-2.1,5.1-5.8,4.7-9.7h-11c0,3.7-2.7,4.2-6.2,4.2c-5.2,0-6-2.1-6-8.4V43
			h23.1v-1.7c0-14.4-3.9-18-17.1-18C24.6,23.3,21.6,27.7,21.5,41.2 M63.1,34.7c0,7,2.4,10.4,17.1,10.4c1.6-0.1,3.2,0,4.7,0.5
			c1.1,0.5,1.7,1.5,1.7,3.3c0,3.1-1.1,3.4-6.4,3.4c-2.9,0-5.9,0-6-4h-11c0,7.8,3.8,10.4,10.4,10.9c2.1,0,4.3,0,6.6,0
			c9.4,0,17.2-1.6,17.2-11.7S92.2,37,80.2,36.7c-6,0-6.4-1.4-6.4-3.4c0-2,0.3-3.1,6.4-3.1c2.2,0,4.5,0,5.2,3h10.4v-1.4
			c0-8.4-8.8-8.6-15.6-8.6C70.3,23.2,63.1,23.2,63.1,34.7"/>
	</defs>
	<clipPath id="SVGID_20_">
		<use xlink:href="#SVGID_19_"  style="overflow:visible;"/>
	</clipPath>
	<g class="st12">
		
			<linearGradient id="SVGID_21_" gradientUnits="userSpaceOnUse" x1="-257.022" y1="363.1499" x2="-251.8252" y2="363.1499" gradientTransform="matrix(0 6.91 -6.91 0 2568.947 1799.5038)">
			<stop  offset="0" style="stop-color:#008F94"/>
			<stop  offset="1" style="stop-color:#003C3E"/>
		</linearGradient>
		<rect x="21.6" y="23.3" class="st13" width="76" height="35.9"/>
	</g>
</g>
<path class="st14" d="M194.4,7.5c-2,0.2-3.8-1.3-3.9-3.3c0-0.1,0-0.3,0-0.4c-0.1-2,1.5-3.7,3.5-3.8c0.1,0,0.3,0,0.4,0
	c2-0.2,3.7,1.3,3.9,3.3c0,0.2,0,0.4,0,0.5c0.1,2-1.4,3.7-3.4,3.8C194.7,7.6,194.5,7.6,194.4,7.5 M194.4,0.7c-1.6-0.2-3,1-3.2,2.5
	c0,0.2,0,0.3,0,0.5c-0.1,1.6,1.2,3,2.8,3.1c0.1,0,0.3,0,0.4,0c1.6,0.1,2.9-1.1,3.1-2.6c0-0.1,0-0.3,0-0.4c0.1-1.6-1.2-3-2.9-3.1
	C194.5,0.7,194.4,0.7,194.4,0.7 M196.3,5.9c-0.5,0-0.9-0.3-1.2-0.7c-0.3-0.4-0.6-0.8-0.9-1.2h-0.6v1.6h-0.8v-4h1.5
	c0.8,0,1.4,0.4,1.4,1.3c0,0.5-0.3,1-0.8,1.1c0.2,0.3,0.4,0.6,0.6,0.8c0.2,0.2,0.5,0.3,0.8,0.4L196.3,5.9z M194.3,2.3h-0.6v1.2h0.5
	c0.6,0,0.9,0,0.9-0.7s0-0.7-0.8-0.7"/>
</svg>
