<?xml version="1.0" encoding="utf-8"?>
<!-- Generator: Adobe Illustrator 21.1.0, SVG Export Plug-In . SVG Version: 6.00 Build 0)  -->
<svg version="1.1" id="Layer_1" xmlns="http://www.w3.org/2000/svg" xmlns:xlink="http://www.w3.org/1999/xlink" x="0px" y="0px"
	 viewBox="0 0 437.14 94.53" style="enable-background:new 0 0 437.14 94.53;" xml:space="preserve">
<style type="text/css">
	.st0{fill:#FAEB00;}
</style>
<g>
	<g>
		<path d="M409.575,37.819h9.02V27.555h8.302v10.265h9.024v-25.69h-9.024v9.044h-8.302v-9.044h-9.02V37.819z M354.906,19.468
			c1.902-1.275,4.488-2.182,6.705-2.182c1.129,0,3.61,0.165,3.61,2.345c0,2.128-2.173,2.18-3.048,2.18h-4.434v5.583h3.923
			c1.29,0,3.71,0.106,3.71,2.182c0,0.848-0.509,2.504-3.662,2.504c-3.146,0-5.156-0.855-7.793-2.45l-2.313,6.064
			c4.95,2.831,9.438,3.094,11.501,3.094c10.312,0,11.602-5.964,11.602-7.93c0-2.715-1.597-5.48-5.209-6.336v-0.104
			c2.27-1.012,3.714-3.244,3.714-6.009c0-6.014-6.342-7.236-10.215-7.236c-3.603,0-7.787,1.062-10.517,2.552L354.906,19.468z
			 M335.373,8.777c4.077,0,8.309-1.595,10.162-5.957l-5.878-2.23c-0.72,2.979-3.25,3.135-4.284,3.135
			c-1.031,0-3.552-0.156-4.273-3.135l-5.878,2.23C327.075,7.182,331.307,8.777,335.373,8.777 M321.303,12.129v25.69h8.762
			l8.922-14.146v14.146h9.025v-25.69h-8.663l-9.027,13.774V12.129H321.303z M261.482,32.291V18.032
			c-3.046-0.052-6.151,2.237-6.151,7.132C255.331,30.059,258.436,32.341,261.482,32.291 M269.368,18.032v14.259
			c3.046,0.05,6.135-2.232,6.135-7.127C275.504,20.268,272.414,17.98,269.368,18.032 M260.91,49.002V38.206
			c-5.367,0.05-14.237-2.139-14.237-13.26c0-11.059,8.825-13.241,14.237-13.191V0.59h9.022v11.166
			c5.422-0.05,14.235,2.132,14.235,13.191c0,11.122-8.868,13.311-14.235,13.26v10.796H260.91z M220.893,32.291V18.032
			c-3.042-0.052-6.14,2.237-6.14,7.132C214.753,30.059,217.851,32.341,220.893,32.291 M228.786,18.032v14.259
			c3.035,0.05,6.131-2.232,6.131-7.127C234.917,20.268,231.821,17.98,228.786,18.032 M220.325,49.002V38.206
			c-5.367,0.05-14.235-2.139-14.235-13.26c0-11.059,8.822-13.241,14.235-13.191V0.59h9.025v11.166
			c5.415-0.05,14.231,2.132,14.231,13.191c0,11.122-8.866,13.311-14.231,13.26v10.796H220.325z M189.172,8.777
			c4.077,0,8.306-1.595,10.16-5.957l-5.881-2.23c-0.72,2.979-3.246,3.135-4.279,3.135c-1.029,0-3.555-0.156-4.282-3.135l-5.874,2.23
			C180.872,7.182,185.101,8.777,189.172,8.777 M175.1,12.129v25.69h8.759l8.927-14.146v14.146h9.027v-25.69h-8.666l-9.026,13.774
			V12.129H175.1z M119.996,8.187v8.565h3.305c4.488,0,4.951-2.713,4.951-4.306c0-1.86-0.618-4.26-4.951-4.26h-2.889H119.996z
			 M110.308,37.819V0h15.212c10.267,0,13.152,7.337,13.152,12.447c0,5.156-2.937,12.499-13.152,12.499h-5.524v12.873H110.308z
			 M315.679,12.088v25.731h-8.996v-2.857h-0.098c-1.582,2.559-4.697,3.712-7.663,3.712c-7.512,0-12.806-6.373-12.806-13.744
			c0-7.373,5.191-13.693,12.708-13.693c2.913,0,5.983,1.101,7.858,3.357v-2.506H315.679z M301.196,19.161
			c-3.657,0-5.783,2.661-5.783,5.818c0,3.257,2.125,5.77,5.783,5.77c3.66,0,5.785-2.513,5.785-5.77
			C306.981,21.822,304.855,19.161,301.196,19.161 M169.476,12.088v25.731h-8.996v-2.857h-0.1c-1.582,2.559-4.697,3.712-7.665,3.712
			c-7.513,0-12.804-6.373-12.804-13.744c0-7.373,5.191-13.693,12.708-13.693c2.915,0,5.981,1.101,7.861,3.357v-2.506H169.476z
			 M154.991,19.161c-3.657,0-5.783,2.661-5.783,5.818c0,3.257,2.126,5.77,5.783,5.77c3.657,0,5.783-2.513,5.783-5.77
			C160.774,21.822,158.648,19.161,154.991,19.161 M405.137,26.067v0.957h-18.939c0,3.711,1.932,5.717,5.633,5.717
			c1.93,0,3.318-0.655,4.301-2.36h8.659c-1.44,6.072-7.121,8.831-12.908,8.831c-8.4,0-14.681-4.817-14.681-13.698
			c0-8.577,5.785-13.742,14.039-13.742C400.037,11.773,405.137,17.29,405.137,26.067 M386.346,21.757h10.43
			c-0.442-2.463-2.668-4.064-5.093-4.064C389.066,17.692,386.89,19.096,386.346,21.757 M124.715,78.826h-2.783l-1.373,8.026h2.645
			c5.92,0,7.078-1.675,7.417-3.825C131,80.658,130.537,78.826,124.715,78.826 M141.001,83.134c-0.409,2.543-1.24,5.11-3.076,6.971
			c-4.051,4.081-10.162,4.403-14.039,4.425h-15.158l6.442-37.819h25.794l-1.207,7.443H124.16l-1.206,7.547h4.519
			c3.335,0,7.612,0.45,10.658,3.053C140.377,76.674,141.574,79.568,141.001,83.134 M168.136,87.957h-14.235l-3.84,6.573h-10.965
			l21.587-37.819h11.283l8.678,37.819h-11.017L168.136,87.957z M166.596,80.433l-2.215-12.038h-0.109L158,80.433H166.596z
			 M238.313,56.71h-10.421l-6.29,37.81l10.326,0.004l2.737-16.398h0.105l10.624,16.402l13.387-0.004L244.84,74.611l18.804-17.901
			h-12.812l-15.09,15.593h-0.115L238.313,56.71z M198.338,56.71l-2.3,14.094h13.779l2.293-14.094h10.038l-6.105,37.819h-10.006
			l2.593-16.261h-13.765l-2.606,16.261h-10.082l6.157-37.819H198.338z"/>
	</g>
	<g>
		<rect x="3.15" y="3.136" class="st0" width="88.244" height="88.244"/>
		<path d="M3.15,3.136h88.244V91.38H3.15V3.136z M0,94.53h94.547V-0.014H0V94.53z"/>
		<g>
			<path d="M47.272,58.032L20.116,85.187L9.34,74.422L36.5,47.263l-5.665-5.667V30.4L26.9,26.462v9.764l-3.425,3.422L9.705,25.877
				l-3.405,3.407c0.024-2.572,0.537-10.003,6.842-16.2c6.803-6.549,14.15-3.594,16.663-1.083l13.761,13.765l-3.507,3.509
				l7.212,7.217l7.214-7.217l-3.509-3.509l13.759-13.765c2.515-2.511,9.862-5.465,16.663,1.083c6.307,6.196,6.821,13.628,6.843,16.2
				l-3.405-3.407l-13.77,13.772l-3.424-3.422v-9.764L63.707,30.4v11.196l-5.665,5.667l27.161,27.158L74.428,85.187L47.272,58.032z"
				/>
		</g>
	</g>
</g>
</svg>
