<?xml version="1.0" encoding="utf-8"?>
<!-- Generator: Adobe Illustrator 21.1.0, SVG Export Plug-In . SVG Version: 6.00 Build 0)  -->
<svg version="1.1" id="Слой_1" xmlns="http://www.w3.org/2000/svg" xmlns:xlink="http://www.w3.org/1999/xlink" x="0px" y="0px"
	 viewBox="0 0 364.871 134.11" style="enable-background:new 0 0 364.871 134.11;" xml:space="preserve">
<style type="text/css">
	.st0{fill:#FF208A;}
</style>
<title>reStoreAPR</title>
<g id="Layer_2">
	<g id="Layer_1-2">
		<path d="M28.6,44.92c-5.679-0.12-11.317,0.985-16.53,3.24C7.72,50.24,0,56.89,0,69.51v34.9h14.42V72.8c0-1.66,0.24-6.6,0.46-7.9
			c1.31-6.44,6-8,12.91-8c0.69,0,1.53,0,2.35,0.1l3.36-11.73c-1.621-0.254-3.26-0.374-4.9-0.36"/>
		<path d="M45.25,68.73c0.61-5.86,4.35-14,13.27-14c9.6,0,11.94,8.67,11.81,13.95L45.25,68.73z M83.93,72.73
			c0-12.56-5.95-27.81-24.6-27.81c-18.31,0-27.91,14.9-27.91,30.72c0,17.49,10.93,29,29.43,29c6.814,0.066,13.579-1.169,19.93-3.64
			l-2.11-10c-5.066,1.857-10.437,2.739-15.83,2.6c-9.13,0-17.22-4.45-17.59-14.79h38.24c0.312-2.008,0.459-4.038,0.44-6.07"/>
		<path class="st0" d="M309.46,44.92c-5.676-0.12-11.31,0.985-16.52,3.24c-4.34,2.09-12.08,8.74-12.08,21.35v34.9h14.42V72.8
			c0-1.66,0.23-6.6,0.47-7.9c1.29-6.44,6-8,12.9-8c0.69,0,1.52,0,2.37,0.1l3.34-11.76c-1.621-0.254-3.26-0.374-4.9-0.36"/>
		<path class="st0" d="M326.11,68.73c0.59-5.86,4.35-14,13.27-14c9.63,0,12,8.67,11.83,13.95L326.11,68.73z M364.82,72.73
			c0-12.56-6-27.81-24.64-27.81c-18.29,0-27.92,14.9-27.92,30.72c0,17.49,10.93,29,29.44,29c6.837,0.072,13.625-1.16,20-3.63
			l-2.12-10c-5.067,1.85-10.438,2.726-15.83,2.58c-9.16,0-17.24-4.45-17.58-14.79h38.24c0.32-2.007,0.474-4.037,0.46-6.07"/>
		<path class="st0" d="M156.21,57.36c-10.53-4.11-15.13-6.92-15.13-13c0-4.58,4-9.5,13.13-9.5c5.489-0.062,10.909,1.218,15.79,3.73
			L173.47,27c-4.09-2.1-10.44-4-19-4c-17.1,0-27.92,9.86-27.92,22.76c0,11.38,8.35,18.29,21.37,23C158,72.37,162,75.87,162,81.87
			c0,6.45-5.2,10.79-14.45,10.79c-6.697-0.048-13.273-1.785-19.12-5.05l-3.18,12c4.36,2.59,13,5,21.35,5
			c20.44,0,30.05-11.15,30.05-23.81c0-11.39-6.69-18.3-20.43-23.46"/>
		<path class="st0" d="M206.63,92.78c-5.53,0-7.4-3.63-7.38-10.57V56.98h10l3.07-10.79h-13.09V30l-14.08,7v46.87
			c0,7.5,1.41,12.66,4.46,16c2.69,2.92,7.18,4.8,12.44,4.8c3.551,0.089,7.091-0.425,10.47-1.52l-0.27-11
			c-1.823,0.538-3.721,0.778-5.62,0.71"/>
		<path class="st0" d="M245,94.17c-8.81,0-14.21-8.31-14.21-19.34c0-9.51,4.1-19.34,14.33-19.34c9.84,0,13.83,10.17,13.83,19.09
			c0,11.5-5.74,19.58-13.95,19.58 M245.47,44.91c-17.25,0-29.58,11.5-29.58,30.25c0,18.3,12.46,29.45,28.63,29.45
			c14.56,0,29.31-9.37,29.31-30.37C273.83,56.88,262.48,44.91,245.47,44.91"/>
		<path d="M104,65h0.12c5.39,0,8.9-3.87,8.9-9.14s-3.63-9.26-8.9-9.26s-8.9,3.87-8.9,9.26S98.87,65,104,65"/>
		<path d="M104.16,84.93c-5.16,0-8.9,3.88-8.9,9.27c0,5.17,3.61,9.15,8.78,9.15h0.12c5.39,0,8.9-4,8.9-9.15
			C112.94,88.7,109.43,84.93,104.16,84.93"/>
	</g>
</g>
</svg>
