<?xml version="1.0" encoding="utf-8"?>
<!-- Generator: Adobe Illustrator 13.0.0, SVG Export Plug-In . SVG Version: 6.00 Build 14948)  -->
<!DOCTYPE svg PUBLIC "-//W3C//DTD SVG 1.1//EN" "http://www.w3.org/Graphics/SVG/1.1/DTD/svg11.dtd">
<svg version="1.1" id="Layer_2" xmlns="http://www.w3.org/2000/svg" xmlns:xlink="http://www.w3.org/1999/xlink" x="0px" y="0px"
	 width="543.365px" height="157.566px" viewBox="0 0 543.365 157.566" enable-background="new 0 0 543.365 157.566"
	 xml:space="preserve">
<path fill="#F16522" d="M280.581,52.122c-3.797,0-6.887-3.091-6.887-6.89c0-3.811,3.09-6.896,6.887-6.896
	c3.805,0,6.896,3.086,6.896,6.896C287.477,49.031,284.386,52.122,280.581,52.122"/>
<path fill="#F74902" d="M512.499,112.357V59.15l12.138,0.074v5.467l-0.046,1.561c0.664-2.798,5.149-7.566,13.428-8.148v12.783
	c-6.057,0.383-12.68,2.17-12.901,11.349h-0.028v30.122H512.499z"/>
<path fill="#F74902" d="M370.236,70.373c-8.537,0-15.489,6.961-15.489,15.488c0,8.568,6.952,15.506,15.489,15.506
	c8.548,0,15.505-6.938,15.505-15.506C385.741,77.334,378.784,70.373,370.236,70.373 M369.824,113.482
	c-15.219,0-27.592-12.39-27.592-27.604c0-15.224,12.355-27.601,27.592-27.601c15.197,0,27.583,12.377,27.583,27.601
	C397.407,101.076,385.043,113.482,369.824,113.482"/>
<path fill="#F74902" d="M427.156,70.406c-5.066,0-9.818,2.479-12.715,6.645l-0.128,0.184V94.53l0.128,0.195
	c2.903,4.187,7.656,6.658,12.715,6.658c8.547,0,15.501-6.954,15.501-15.485C442.665,77.334,435.703,70.406,427.156,70.406
	 M428.651,113.482c-6.371-0.104-10.691-1.466-15.144-5.69l0.116-0.062l-0.3,4.678h-11.605V49.397l12.595-12.561l-0.034,26.998
	l0.025-0.074c3.272-3.157,8.586-5.483,14.637-5.475l0.117,0.008c13.931-0.008,25.711,12.64,25.711,27.604
	c0,7.202-2.859,14.118-8.092,19.473c-4.969,5.112-11.435,8.078-17.752,8.111H428.651z"/>
<path fill="#F74902" d="M481.809,88.897c-8,0-12.066,2.484-12.066,7.353c0,4.228,3.63,6.957,9.25,6.957
	c8.594,0,14.15-4.507,14.15-11.464v-2.846H481.809z M476.218,113.08c-11.414,0-19.401-6.771-19.401-16.489
	c0-10.967,8.545-16.761,24.701-16.761h11.625v-2.014c0-4.603-4.194-9.371-11.242-9.371c-5.026,0-9.404,1.492-11.904,4.046
	l-6.805-6.816c0.781-0.847,1.662-1.599,2.609-2.31c4.436-3.318,10.18-5.071,16.615-5.079c13.962,0,22.976,7.676,22.976,19.53v34.606
	h-12.02l-0.025-5.097l-1.203,1.218C487.935,112.763,483.104,113.08,476.218,113.08"/>
<path fill="#F74902" d="M297.78,97.337c5.056,3.768,10.188,5.463,17.482,5.463c8.262,0,12.013-2.467,12.013-6.102
	c0-3.855-3.644-5.532-13.686-6.409c-13.204-1.184-21.952-4.938-21.952-16.149c0-9.647,9.357-15.94,22.238-15.94
	c8.673,0,16.739,2.937,23.04,8.165c0.065,0.071,0.154,0.125,0.212,0.204l-7.29,7.459c-4.386-3.339-9.955-5.2-16.552-5.2
	c-6.688,0-10.329,1.969-10.329,4.931c0,3.145,2.957,4.715,11.916,5.595c13.772,1.38,23.725,5.814,23.725,17.139
	c0,10.74-10.035,16.938-23.517,16.938c-9.771,0-17.528-2.376-24.632-8.266c-0.069-0.074-0.111-0.125-0.183-0.183L297.78,97.337z"/>
<rect x="274.468" y="59.213" fill="#F74902" width="12.352" height="53.202"/>
<path d="M42.738,112.341c-0.987,0.314-2.2,0.539-3.633,0.664c-1.437,0.124-2.897,0.191-4.371,0.191
	c-6.028,0-10.409-1.486-13.14-4.462c-2.744-2.973-4.104-6.986-4.104-12.036V69.36h-7.14V59.191h7.14v-9.96l13.177-10.6v20.56h12.189
	V69.36H30.668v26.357c0,2.434,0.596,4.267,1.786,5.482c1.189,1.223,3.223,1.827,6.099,1.827c0.982,0,2.033-0.1,3.138-0.281
	c1.111-0.192,2.153-0.516,3.144-0.969L42.738,112.341z"/>
<path d="M145.671,112.408H132.49v-42.16h-6.523V59.424h6.523v-5.756c0-4.694,1.594-8.37,4.789-11.037
	c3.194-2.67,7.876-3.999,14.057-3.999c1.063,0,2.115,0.05,3.139,0.136c1.025,0.096,2.113,0.217,3.262,0.341v9.403
	c-0.901-0.133-1.823-0.244-2.769-0.344c-0.944-0.092-1.91-0.134-2.901-0.134c-2.705,0-4.547,0.491-5.533,1.479
	c-0.986,0.992-1.48,2.38-1.48,4.175v5.782h12.929v10.777h-12.313V112.408z"/>
<path d="M243.068,113.511c-4.355,0-8.272-0.673-11.761-2.016c-3.491-1.341-6.446-3.222-8.863-5.656
	c-2.424-2.43-4.275-5.354-5.55-8.776c-1.272-3.415-1.906-7.244-1.906-11.463c0-3.897,0.698-7.511,2.094-10.829
	c1.399-3.33,3.347-6.189,5.851-8.586c2.501-2.404,5.457-4.269,8.869-5.616c3.402-1.341,7.163-2.009,11.266-2.009
	c4.932,0,9.07,0.729,12.447,2.206c3.361,1.466,5.86,3.222,7.509,5.27l-10.105,6.33c-1.155-1.088-2.48-1.919-4.005-2.492
	c-1.515-0.577-3.464-0.863-5.846-0.863c-4.431,0-7.983,1.532-10.649,4.603c-2.667,3.065-4.011,7.094-4.011,12.087
	c0,11.575,5.099,17.361,15.273,17.361c1.893,0,3.589-0.341,5.116-1.005c1.512-0.673,2.892-1.554,4.121-2.639l10.84,6.231
	C258.342,110.886,251.444,113.511,243.068,113.511"/>
<path d="M49.452,112.843V59.631l12.139,0.076v5.466l-0.053,1.562c0.669-2.8,5.153-7.568,13.433-8.146v12.786
	c-6.064,0.374-12.687,2.16-12.905,11.339h-0.024v30.13H49.452z"/>
<path d="M99.963,88.93c-8,0-12.074,2.483-12.074,7.345c0,4.231,3.637,6.961,9.259,6.961c8.586,0,14.143-4.513,14.143-11.457V88.93
	H99.963z M94.375,113.112c-11.424,0-19.403-6.769-19.403-16.493c0-10.961,8.527-16.76,24.695-16.76h11.624v-2.015
	c0-4.598-4.19-9.371-11.238-9.371c-5.036,0-9.408,1.491-11.899,4.046l-6.814-6.815c0.787-0.848,1.667-1.595,2.615-2.31
	c4.432-3.313,10.179-5.066,16.614-5.075c13.966,0,22.975,7.676,22.975,19.525v34.612h-12.014l-0.031-5.101l-1.207,1.213
	C106.083,112.797,101.25,113.112,94.375,113.112"/>
<rect x="198.478" y="59.431" width="12.353" height="53.209"/>
<path d="M204.655,52.414c-3.797,0-6.89-3.092-6.89-6.889c0-3.808,3.093-6.894,6.89-6.894c3.808,0,6.883,3.086,6.883,6.894
	C211.538,49.322,208.463,52.414,204.655,52.414"/>
<path d="M181.968,112.408h-13.182v-42.16h-6.524V59.424h6.524v-5.756c0-4.694,1.599-8.37,4.788-11.037
	c3.195-2.67,7.882-3.999,14.063-3.999c1.063,0,2.109,0.05,3.133,0.136c1.03,0.096,2.11,0.217,3.266,0.341v9.403
	c-0.905-0.133-1.827-0.244-2.767-0.344c-0.949-0.092-1.916-0.134-2.898-0.134c-2.703,0-4.554,0.491-5.537,1.479
	c-0.991,0.992-1.481,2.38-1.481,4.175v5.782h12.931v10.777h-12.316V112.408z"/>
</svg>
