<?xml version="1.0" encoding="UTF-8"?>
<svg width="10px" height="11px" viewBox="0 0 10 11" version="1.1" xmlns="http://www.w3.org/2000/svg" xmlns:xlink="http://www.w3.org/1999/xlink">
    <!-- Generator: sketchtool 51.3 (57544) - http://www.bohemiancoding.com/sketch -->
    <title>B3374789-F64B-4EB5-95F2-3FC58734A911</title>
    <desc>Created with sketchtool.</desc>
    <defs></defs>
    <g id="Landing-page" stroke="none" stroke-width="1" fill="none" fill-rule="evenodd">
        <g id="1920" transform="translate(-911.000000, -8709.000000)" fill="#FFFFFF" fill-rule="nonzero">
            <g id="FOOTER" transform="translate(0.000000, 7707.000000)">
                <g id="back" transform="translate(895.000000, 992.000000)">
                    <path d="M21.5020833,11.13875 C21.3233333,10.95375 21.0258333,10.95375 20.8408333,11.13875 C20.6620833,11.3175 20.6620833,11.615 20.8408333,11.7933333 L24.19375,15.14625 L16.4629167,15.14625 C16.205,15.1466667 16,15.3516667 16,15.6095833 C16,15.8675 16.205,16.0791667 16.4629167,16.0791667 L24.19375,16.0791667 L20.8408333,19.4258333 C20.6620833,19.6108333 20.6620833,19.90875 20.8408333,20.0870833 C21.0258333,20.2720833 21.32375,20.2720833 21.5020833,20.0870833 L25.64875,15.9404167 C25.83375,15.7616667 25.83375,15.4641667 25.64875,15.2858333 L21.5020833,11.13875 Z" id="small-arrow-up" transform="translate(20.893750, 15.612917) rotate(-90.000000) translate(-20.893750, -15.612917) "></path>
                </g>
            </g>
        </g>
    </g>
</svg>