<svg xmlns="http://www.w3.org/2000/svg" xmlns:xlink="http://www.w3.org/1999/xlink" viewBox="0 0 1147.57 1096.94"><defs><style>.cls-1{fill:#f5ce2f;}.cls-2{fill:url(#linear-gradient);}.cls-3{fill:#f1406a;}.cls-31,.cls-32,.cls-33,.cls-4,.cls-5,.cls-7{fill:none;}.cls-4,.cls-7{stroke:#c3cde0;}.cls-32,.cls-4,.cls-7{stroke-linecap:round;stroke-linejoin:round;}.cls-4,.cls-5{stroke-width:2px;}.cls-4{stroke-dasharray:2 6;}.cls-5{stroke:#f36;}.cls-31,.cls-5{stroke-miterlimit:10;}.cls-6{fill:url(#linear-gradient-2);}.cls-8{fill:#2a6fe8;}.cls-12,.cls-34,.cls-35,.cls-36,.cls-37,.cls-40,.cls-9{opacity:0.75;}.cls-9{fill:url(#linear-gradient-3);}.cls-10{opacity:0.7;}.cls-11,.cls-39,.cls-40{fill:#fff;}.cls-12{fill:url(#linear-gradient-4);}.cls-13{fill:url(#linear-gradient-5);}.cls-14{fill:url(#linear-gradient-6);}.cls-15{fill:url(#linear-gradient-7);}.cls-16{fill:url(#linear-gradient-8);}.cls-17{fill:url(#linear-gradient-9);}.cls-18{fill:url(#linear-gradient-10);}.cls-19{fill:url(#linear-gradient-11);}.cls-20{fill:url(#linear-gradient-12);}.cls-21{fill:url(#linear-gradient-13);}.cls-22{fill:url(#linear-gradient-14);}.cls-23{fill:url(#linear-gradient-15);}.cls-24{fill:url(#linear-gradient-16);}.cls-25{fill:url(#linear-gradient-17);}.cls-26,.cls-27{opacity:0.4;}.cls-26{fill:url(#linear-gradient-18);}.cls-27{fill:url(#linear-gradient-19);}.cls-28{opacity:0.85;fill:url(#linear-gradient-20);}.cls-29{fill:url(#linear-gradient-21);}.cls-30{font-size:31.22px;fill:#363649;}.cls-30,.cls-39{font-family:Lato-Heavy, Lato;}.cls-31{stroke:#fff;}.cls-31,.cls-32{stroke-width:3px;}.cls-32{stroke:#f7f7f7;}.cls-34{fill:url(#linear-gradient-22);}.cls-35{fill:url(#linear-gradient-23);}.cls-36{fill:url(#linear-gradient-24);}.cls-37{fill:url(#linear-gradient-25);}.cls-38{fill:url(#linear-gradient-26);}.cls-39{font-size:47.39px;}</style><linearGradient id="linear-gradient" x1="949.44" y1="111.21" x2="1045.67" y2="111.21" gradientUnits="userSpaceOnUse"><stop offset="0" stop-color="#7a30b4"/><stop offset="1" stop-color="#4458e2"/></linearGradient><linearGradient id="linear-gradient-2" x1="972.78" y1="417.99" x2="834.73" y2="671.26" gradientUnits="userSpaceOnUse"><stop offset="0" stop-color="#f1406a"/><stop offset="1" stop-color="#ff7db6" stop-opacity="0"/></linearGradient><linearGradient id="linear-gradient-3" x1="360.63" y1="460.34" x2="924.75" y2="460.34" gradientTransform="matrix(1, 0.58, 0, 1, 0, -325.95)" xlink:href="#linear-gradient"/><linearGradient id="linear-gradient-4" x1="398.68" y1="416.49" x2="962.8" y2="416.49" gradientTransform="matrix(1, 0.58, 0, 1, 0, -325.95)" xlink:href="#linear-gradient"/><linearGradient id="linear-gradient-5" x1="619.22" y1="-2157.81" x2="619.22" y2="-2234.61" gradientTransform="matrix(1, 0.58, 0, 1, 0, 2456.18)" gradientUnits="userSpaceOnUse"><stop offset="0" stop-color="#ee268b"/><stop offset="1" stop-color="#feff94"/></linearGradient><linearGradient id="linear-gradient-6" x1="651.85" y1="-2158.29" x2="651.85" y2="-2255.1" xlink:href="#linear-gradient-5"/><linearGradient id="linear-gradient-7" x1="684.47" y1="-2159.01" x2="684.47" y2="-2285.53" xlink:href="#linear-gradient-5"/><linearGradient id="linear-gradient-8" x1="717.1" y1="-2157.88" x2="717.1" y2="-2237.73" xlink:href="#linear-gradient-5"/><linearGradient id="linear-gradient-9" x1="749.73" y1="-2157.05" x2="749.73" y2="-2202.54" xlink:href="#linear-gradient-5"/><linearGradient id="linear-gradient-10" x1="782.36" y1="-2158.17" x2="782.36" y2="-2249.76" xlink:href="#linear-gradient-5"/><linearGradient id="linear-gradient-11" x1="814.99" y1="-2158.46" x2="814.99" y2="-2262.23" xlink:href="#linear-gradient-5"/><linearGradient id="linear-gradient-12" x1="847.61" y1="-2157.65" x2="847.61" y2="-2227.93" xlink:href="#linear-gradient-5"/><linearGradient id="linear-gradient-13" x1="880.24" y1="-2156.8" x2="880.24" y2="-2191.94" xlink:href="#linear-gradient-5"/><linearGradient id="linear-gradient-14" x1="415.48" y1="186" x2="515.1" y2="186" gradientUnits="userSpaceOnUse"><stop offset="0" stop-color="#e6e6f4"/><stop offset="1" stop-color="#f6f6ff"/></linearGradient><linearGradient id="linear-gradient-15" x1="520.93" y1="288.13" x2="222.15" y2="651.78" gradientUnits="userSpaceOnUse"><stop offset="0" stop-color="#845bc4"/><stop offset="1" stop-color="#4468e2"/></linearGradient><linearGradient id="linear-gradient-16" x1="521.86" y1="33.38" x2="217.05" y2="580.37" gradientTransform="matrix(1, 0.58, 0, 1, 0, -52.97)" xlink:href="#linear-gradient"/><linearGradient id="linear-gradient-17" x1="133.96" y1="501.07" x2="530.13" y2="329.26" gradientTransform="matrix(1, 0.58, 0, 1, 0, -52.97)" gradientUnits="userSpaceOnUse"><stop offset="0" stop-color="#361d67"/><stop offset="1" stop-color="#241d95"/></linearGradient><linearGradient id="linear-gradient-18" x1="278.28" y1="737" x2="325.36" y2="737" xlink:href="#linear-gradient-17"/><linearGradient id="linear-gradient-19" x1="293.48" y1="118.72" x2="310.16" y2="118.72" xlink:href="#linear-gradient-17"/><linearGradient id="linear-gradient-20" y1="433.97" x2="399.69" y2="433.97" gradientTransform="matrix(1, 0.58, 0, 1, 0, -58.73)" gradientUnits="userSpaceOnUse"><stop offset="0" stop-color="#8cffff"/><stop offset="1" stop-color="#3f6cff"/></linearGradient><linearGradient id="linear-gradient-21" y1="586.06" x2="399.69" y2="586.06" gradientTransform="matrix(1, 0.58, 0, 1, 0, -52.97)" gradientUnits="userSpaceOnUse"><stop offset="0" stop-color="#f0f0f0"/><stop offset="1" stop-color="#fff"/></linearGradient><linearGradient id="linear-gradient-22" x1="749.73" y1="421.3" x2="875.03" y2="421.3" gradientTransform="matrix(1, 0.58, 0, 1, 0, -472.51)" xlink:href="#linear-gradient"/><linearGradient id="linear-gradient-23" x1="749.73" y1="414.86" x2="875.03" y2="414.86" gradientTransform="matrix(1, 0.58, 0, 1, 0, -472.51)" xlink:href="#linear-gradient"/><linearGradient id="linear-gradient-24" x1="749.73" y1="435.59" x2="875.03" y2="435.59" gradientTransform="matrix(1, 0.58, 0, 1, 0, -472.51)" xlink:href="#linear-gradient"/><linearGradient id="linear-gradient-25" x1="749.73" y1="424.72" x2="875.03" y2="424.72" gradientTransform="matrix(1, 0.58, 0, 1, 0, -472.51)" xlink:href="#linear-gradient"/><linearGradient id="linear-gradient-26" x1="733.33" y1="424.72" x2="888" y2="424.72" gradientTransform="matrix(1, 0.58, 0, 1, 0, -472.51)" xlink:href="#linear-gradient"/></defs><title>Asset 1</title><g id="Слой_2" data-name="Слой 2"><g id="_5" data-name="5"><path class="cls-1" d="M1045.53,70.45c54,31.38,96.83,99.08,96.83,152.34,0,34.89-18.75,54.7-46.47,55.67l-50.36-111.53Z"/><path class="cls-2" d="M957.46,155.18a132.52,132.52,0,0,1-8-43.84c0-53.34,42.87-71.72,96.21-40.93.08,0-.12,0-.12,0v96.48Z"/><path class="cls-3" d="M958,155.32l88.56,11.89,50.11,111.46c-14.66.51-31.9-4.27-50.36-14.92C1006.86,241,973,197.83,958,155.32Z"/><line class="cls-4" x1="543.45" y1="453.99" x2="543.45" y2="509.86"/><line class="cls-4" x1="583.66" y1="438.9" x2="583.66" y2="533.08"/><line class="cls-4" x1="623.87" y1="447.47" x2="623.87" y2="556.29"/><line class="cls-4" x1="664.08" y1="481.93" x2="664.08" y2="579.51"/><line class="cls-4" x1="704.28" y1="503.89" x2="704.28" y2="602.72"/><line class="cls-4" x1="744.49" y1="466.86" x2="744.49" y2="625.94"/><line class="cls-4" x1="784.7" y1="463.13" x2="784.7" y2="649.15"/><line class="cls-4" x1="824.91" y1="539.82" x2="824.91" y2="672.36"/><line class="cls-4" x1="865.12" y1="607.59" x2="865.12" y2="695.58"/><line class="cls-4" x1="905.32" y1="601.37" x2="905.32" y2="718.79"/><line class="cls-4" x1="945.53" y1="603.24" x2="945.53" y2="742.01"/><line class="cls-4" x1="985.74" y1="660.08" x2="985.74" y2="765.22"/><line class="cls-4" x1="1066.16" y1="725.69" x2="1066.16" y2="811.65"/><line class="cls-4" x1="1025.95" y1="714.32" x2="1025.95" y2="788.43"/><line class="cls-4" x1="1106.37" y1="749.52" x2="1106.37" y2="834.86"/><line class="cls-4" x1="1146.57" y1="802.2" x2="1146.57" y2="858.08"/><path class="cls-5" d="M543.45,454s28-23.28,65.42-12.36,39.93,34,77.72,57.6,50-57,91-40.47,48.73,120,77.27,143.57,50.72-20.21,91.74.8S983.75,684,1010.5,704.75s39.15,11.75,71.06,26.63c37.78,17.62,63.72,72.77,63.72,72.77"/><path class="cls-6" d="M1144.53,855.78V804.15S1119,749,1081.18,731.39c-31.91-14.89-43.93-5.83-70.69-26.63s-22.85-80.62-63.86-101.62-63.22,22.82-91.75-.79-36.27-127-77.29-143.54-53.3,64.13-91.09,40.53-40.64-46.57-78.09-57.49-65.88,12.58-65.88,12.58v55.36"/><polygon class="cls-7" points="1028.04 788.78 495.06 1096.44 260.62 961.2 793.61 653.54 1028.04 788.78"/><line class="cls-7" x1="533.31" y1="1074.36" x2="299.03" y2="939.04"/><line class="cls-7" x1="571.36" y1="1052.39" x2="337.03" y2="917.04"/><line class="cls-7" x1="609.36" y1="1030.39" x2="375.03" y2="895.04"/><polyline class="cls-7" points="413.03 873.04 767.05 1077.44 1146.92 858.13 1028.04 788.78"/><line class="cls-7" x1="804.36" y1="1055.39" x2="451.03" y2="851.04"/><line class="cls-7" x1="842.36" y1="1033.39" x2="489.03" y2="829.04"/><line class="cls-7" x1="880.91" y1="1011.71" x2="527.03" y2="807.04"/><line class="cls-7" x1="918.97" y1="989.74" x2="565.03" y2="785.04"/><line class="cls-7" x1="957.02" y1="967.77" x2="603.03" y2="763.04"/><line class="cls-7" x1="995.07" y1="945.8" x2="641.03" y2="741.04"/><line class="cls-7" x1="1033.12" y1="923.83" x2="679.03" y2="719.04"/><line class="cls-7" x1="1071.18" y1="901.86" x2="717.03" y2="697.04"/><line class="cls-7" x1="989.36" y1="810.39" x2="755.03" y2="675.04"/><line class="cls-7" x1="1109.23" y1="879.89" x2="755.03" y2="675.04"/><line class="cls-7" x1="456.06" y1="1073.44" x2="988.56" y2="766"/><line class="cls-7" x1="416.06" y1="1050.44" x2="948.62" y2="742.97"/><line class="cls-7" x1="376.06" y1="1027.44" x2="908.69" y2="719.93"/><line class="cls-7" x1="336.06" y1="1004.44" x2="868.75" y2="696.89"/><line class="cls-7" x1="727.06" y1="1054.44" x2="1107.21" y2="834.96"/><line class="cls-7" x1="687.06" y1="1031.44" x2="1067.49" y2="811.8"/><line class="cls-7" x1="296.06" y1="981.44" x2="828.82" y2="673.85"/><path class="cls-8" d="M834.91,550.4c0,5.52-4.48,7.42-10,4.23s-10-10.25-10-15.78,4.48-7.42,10-4.23S834.91,544.88,834.91,550.4Z"/><path class="cls-9" d="M914.11,987.36,371.26,673.95c-5.87-3.39-10.63-10.9-10.63-16.77V28c0-5.87,4.76-7.88,10.63-4.49L914.11,336.93c5.87,3.39,10.63,10.9,10.63,16.77V982.87C924.75,988.74,920,990.75,914.11,987.36Z"/><g class="cls-10"><path class="cls-11" d="M706.31,550.42,554.84,463c-2.07-1.2-3.35-2.73-3.35-4V350.81c0-2.77,5.58-3,10.05-.44L713,437.83c2.07,1.2,3.35,2.73,3.35,4V550C716.36,552.75,710.78,553,706.31,550.42Z"/></g><path class="cls-12" d="M952.17,965.49,409.32,652.07c-5.87-3.39-10.63-10.9-10.63-16.77V6.14c0-5.87,4.76-7.88,10.63-4.49L952.17,315.06c5.87,3.39,10.63,10.9,10.63,16.77V961C962.8,966.87,958,968.88,952.17,965.49Z"/><path class="cls-11" d="M569.37,405.19l-20.49-11.83a3.4,3.4,0,0,1-1.64-2.59V370.29c0-.91.73-1.22,1.64-.69l20.49,11.83A3.4,3.4,0,0,1,571,384V404.5C571,405.4,570.28,405.71,569.37,405.19Z"/><path class="cls-11" d="M609.43,428.32l-20.49-11.83a3.4,3.4,0,0,1-1.64-2.59V393.42c0-.91.73-1.22,1.64-.69l20.49,11.83a3.4,3.4,0,0,1,1.64,2.59v20.49C611.07,428.53,610.34,428.84,609.43,428.32Z"/><path class="cls-1" d="M649.49,451.45,629,439.62a3.4,3.4,0,0,1-1.64-2.59V416.54c0-.91.73-1.22,1.64-.69l20.49,11.83a3.4,3.4,0,0,1,1.64,2.59v20.49C651.13,451.66,650.4,452,649.49,451.45Z"/><path class="cls-11" d="M689.55,474.57l-20.49-11.83a3.4,3.4,0,0,1-1.64-2.59V439.67c0-.91.73-1.22,1.64-.69l20.49,11.83a3.4,3.4,0,0,1,1.64,2.59v20.49C691.19,474.79,690.45,475.1,689.55,474.57Z"/><path class="cls-11" d="M569.37,450l-20.49-11.83a3.4,3.4,0,0,1-1.64-2.59V415.07c0-.91.73-1.22,1.64-.69l20.49,11.83a3.4,3.4,0,0,1,1.64,2.59v20.49C571,450.18,570.28,450.49,569.37,450Z"/><path class="cls-3" d="M609.43,473.1l-20.49-11.83a3.4,3.4,0,0,1-1.64-2.59V438.2c0-.91.73-1.22,1.64-.69l20.49,11.83a3.4,3.4,0,0,1,1.64,2.59V472.4C611.07,473.31,610.34,473.62,609.43,473.1Z"/><path class="cls-11" d="M649.49,496.22,629,484.4a3.4,3.4,0,0,1-1.64-2.59V461.32c0-.91.73-1.22,1.64-.69l20.49,11.83a3.4,3.4,0,0,1,1.64,2.59v20.49C651.13,496.44,650.4,496.75,649.49,496.22Z"/><path class="cls-3" d="M689.55,519.35l-20.49-11.83a3.4,3.4,0,0,1-1.64-2.59V484.45c0-.91.73-1.22,1.64-.69l20.49,11.83a3.4,3.4,0,0,1,1.64,2.59v20.49C691.19,519.57,690.45,519.88,689.55,519.35Z"/><path class="cls-13" d="M619.22,657.74h0c-3.05-1.76-5.55-5.7-5.55-8.75v-68.7c0-3.05,2.5-4.11,5.55-2.35h0c3.05,1.76,5.55,5.7,5.55,8.75v68.7C624.77,658.44,622.27,659.5,619.22,657.74Z"/><path class="cls-14" d="M651.85,676.57h0c-3.05-1.76-5.55-5.7-5.55-8.75V578.34c0-3.05,2.5-4.11,5.55-2.35h0c3.05,1.76,5.55,5.7,5.55,8.75v89.48C657.39,677.28,654.9,678.34,651.85,676.57Z"/><path class="cls-15" d="M684.47,695.41h0c-3.05-1.76-5.55-5.7-5.55-8.75V566.31c0-3.05,2.5-4.11,5.55-2.35h0c3.05,1.76,5.55,5.7,5.55,8.75V693.07C690,696.12,687.53,697.17,684.47,695.41Z"/><path class="cls-16" d="M717.1,714.25h0c-3.05-1.76-5.55-5.7-5.55-8.75V633.64c0-3.05,2.5-4.11,5.55-2.35h0c3.05,1.76,5.55,5.7,5.55,8.75V711.9C722.65,715,720.15,716,717.1,714.25Z"/><path class="cls-17" d="M750.09,733.3l-.73-.42c-2.85-1.65-5.19-5.33-5.19-8.18V687.81c0-2.85,2.33-3.84,5.19-2.19l.73.42c2.85,1.65,5.19,5.33,5.19,8.18v36.89C755.28,734,752.95,734.94,750.09,733.3Z"/><path class="cls-18" d="M782.36,751.93h0c-3.05-1.76-5.55-5.7-5.55-8.75V659.11c0-3.05,2.5-4.11,5.55-2.35h0c3.05,1.76,5.55,5.7,5.55,8.75v84.06C787.91,752.63,785.41,753.69,782.36,751.93Z"/><path class="cls-19" d="M815,770.76h0c-3.05-1.76-5.55-5.7-5.55-8.75V665.3c0-3.05,2.5-4.11,5.55-2.35h0c3.05,1.76,5.55,5.7,5.55,8.75v96.71C820.54,771.47,818,772.53,815,770.76Z"/><path class="cls-20" d="M847.61,789.6h0c-3.05-1.76-5.55-5.7-5.55-8.75V718.93c0-3.05,2.5-4.11,5.55-2.35h0c3.05,1.76,5.55,5.7,5.55,8.75v61.92C853.16,790.31,850.67,791.36,847.61,789.6Z"/><path class="cls-21" d="M880.37,808.51l-.25-.15c-3-1.72-5.42-5.57-5.42-8.55V774.15c0-3,2.44-4,5.42-2.29l.25.15c3,1.72,5.42,5.57,5.42,8.55v25.66C885.79,809.2,883.35,810.23,880.37,808.51Z"/><path class="cls-1" d="M621.59,675.1l-4.75-2.74a6.61,6.61,0,0,1-3.17-5h0c0-1.75,1.43-2.35,3.17-1.34l4.75,2.74a6.61,6.61,0,0,1,3.17,5h0C624.77,675.5,623.34,676.11,621.59,675.1Z"/><path class="cls-11" d="M654.22,693.94l-4.75-2.74a6.61,6.61,0,0,1-3.17-5h0c0-1.75,1.43-2.35,3.17-1.34l4.75,2.74a6.61,6.61,0,0,1,3.17,5h0C657.39,694.34,656,694.95,654.22,693.94Z"/><path class="cls-1" d="M686.85,712.78,682.1,710a6.61,6.61,0,0,1-3.17-5h0c0-1.75,1.43-2.35,3.17-1.34l4.75,2.74a6.61,6.61,0,0,1,3.17,5h0C690,713.18,688.59,713.78,686.85,712.78Z"/><path class="cls-3" d="M719.48,731.61l-4.75-2.74a6.61,6.61,0,0,1-3.17-5h0c0-1.75,1.43-2.35,3.17-1.34l4.75,2.74a6.61,6.61,0,0,1,3.17,5h0C722.65,732,721.22,732.62,719.48,731.61Z"/><path class="cls-1" d="M752.1,750.45l-4.75-2.74a6.61,6.61,0,0,1-3.17-5h0c0-1.75,1.43-2.35,3.17-1.34l4.75,2.74a6.61,6.61,0,0,1,3.17,5h0C755.28,750.86,753.85,751.46,752.1,750.45Z"/><path class="cls-3" d="M784.73,769.29,780,766.55a6.61,6.61,0,0,1-3.17-5h0c0-1.75,1.43-2.35,3.17-1.34l4.75,2.74a6.61,6.61,0,0,1,3.17,5h0C787.91,769.69,786.48,770.3,784.73,769.29Z"/><path class="cls-11" d="M817.36,788.13l-4.75-2.74a6.61,6.61,0,0,1-3.17-5h0c0-1.75,1.43-2.35,3.17-1.34l4.75,2.74a6.61,6.61,0,0,1,3.17,5h0C820.54,788.53,819.11,789.14,817.36,788.13Z"/><path class="cls-11" d="M850,807l-4.75-2.74a6.61,6.61,0,0,1-3.17-5h0c0-1.75,1.43-2.35,3.17-1.34l4.75,2.74a6.61,6.61,0,0,1,3.17,5h0C853.16,807.37,851.74,808,850,807Z"/><path class="cls-1" d="M882.62,825.8l-4.75-2.74a6.61,6.61,0,0,1-3.17-5h0c0-1.75,1.43-2.35,3.17-1.34l4.75,2.74a6.61,6.61,0,0,1,3.17,5h0C885.79,826.21,884.36,826.81,882.62,825.8Z"/><path class="cls-11" d="M528.5,343.73,396.23,267.37a5.85,5.85,0,0,1-2.93-5.07V86.72a5.85,5.85,0,0,1,8.78-5.07L534.35,158a5.85,5.85,0,0,1,2.93,5.07V338.67A5.85,5.85,0,0,1,528.5,343.73Z"/><path class="cls-22" d="M508.39,250.15l-90.68-52.41a4.48,4.48,0,0,1-2.24-3.87V125.73a4.48,4.48,0,0,1,6.71-3.87l90.68,52.41a4.48,4.48,0,0,1,2.24,3.87v68.14A4.48,4.48,0,0,1,508.39,250.15Z"/><path class="cls-23" d="M543.29,319.51,94.28,60.17c-3-1.74-5.82-2.09-7.79-1.27l-17.73,12L83.46,740c0,6,4.77,13.79,10.81,17.27l439.89,271.19,17.46-10.81h0c1.76-.94,2.89-2.87,2.89-5.66V336.79C554.53,330.74,549.33,323,543.29,319.51Z"/><path class="cls-24" d="M526.43,1027.25,77.23,768.2c-6-3.49-10.94-11.21-10.94-17.26V76.44c0-6,4.89-8.11,10.93-4.63l449.2,259.06c6,3.49,10.94,11.21,10.94,17.26v674.5C537.36,1028.66,532.47,1030.74,526.43,1027.25Z"/><path class="cls-25" d="M510,939.32,93.67,699.94c-4.28-2.46-7.76-8-7.76-12.27V163.13c0-4.3,3.45-5.79,7.72-3.33L510,399.18c4.28,2.46,7.76,8,7.76,12.27V936C517.73,940.28,514.28,941.77,510,939.32Z"/><path class="cls-26" d="M325.36,871.87c0,13-10.54,17.45-23.54,9.95s-23.54-24.13-23.54-37.13,10.54-17.45,23.54-9.95S325.36,858.87,325.36,871.87Z"/><path class="cls-27" d="M310.16,244.82c0,4.61-3.73,6.18-8.34,3.52s-8.34-8.55-8.34-13.15,3.73-6.18,8.34-3.52S310.16,240.21,310.16,244.82Z"/><path class="cls-28" d="M386.72,796.65,13,581.6c-7.19-4.14-13-13.34-13-20.53v-371c0-7.18,5.81-9.65,13-5.52l373.69,215c7.19,4.14,13,13.34,13,20.53v371C399.69,798.3,393.89,800.77,386.72,796.65Z"/><path class="cls-29" d="M385.93,796.75l-373-215.2C5.79,577.43,0,568.27,0,561.09V492.24L399.69,722.85v68C399.69,798.5,393.53,801.14,385.93,796.75Z"/><polygon class="cls-11" points="278.98 553.72 239.44 478.5 226.8 488.4 186.91 409.53 121.09 462.56 199.9 508.06 199.9 508.06 278.98 553.72"/><path class="cls-11" d="M280.53,467.46c0,9.76-7.91,13.11-17.68,7.47s-17.68-18.12-17.68-27.88,7.91-13.11,17.68-7.47S280.53,457.7,280.53,467.46Z"/><path class="cls-3" d="M59.53,566.95a5.8,5.8,0,0,0,2.17-4.59c0-4.92-4-11.22-8.93-14.06-2.24-1.29-4.3-1.65-5.86-1.19a3.9,3.9,0,0,0-2.26,1.73,19.2,19.2,0,0,0-2.26-4.34,18.8,18.8,0,0,0-5.86-5.57c-4.92-2.84-8.92-1.17-8.92,3.75a13.66,13.66,0,0,0,2.19,7.11h0l0,0c.26.44.53.89.83,1.31l14,22.07,14-5.9a4.32,4.32,0,0,0,.89-.36h0Z"/><text class="cls-30" transform="matrix(1, 0.58, 0, 1, 76.84, 587.58)">10</text><text class="cls-30" transform="matrix(1, 0.58, 0, 1, 183.91, 649.39)">15</text><path class="cls-1" d="M167.7,638.91l-29.6-17.09a7.07,7.07,0,0,1-3.4-5.36V599c0-1.87,1.53-2.52,3.4-1.44l29.6,17.09a7.07,7.07,0,0,1,3.4,5.36v17.46C171.1,639.34,169.57,640,167.7,638.91Z"/><polygon class="cls-1" points="162.93 629.81 162.93 636.16 162.93 642.51 156.58 632.49 162.93 629.81"/><path class="cls-11" d="M145.83,614.16c0,1.33-1.08,1.78-2.4,1a5,5,0,0,1-2.4-3.79c0-1.33,1.08-1.78,2.4-1A5,5,0,0,1,145.83,614.16Z"/><path class="cls-11" d="M155.3,619.63c0,1.33-1.08,1.78-2.4,1a5,5,0,0,1-2.4-3.79c0-1.33,1.08-1.78,2.4-1A5,5,0,0,1,155.3,619.63Z"/><path class="cls-11" d="M164.78,625.1c0,1.33-1.08,1.78-2.4,1a5,5,0,0,1-2.4-3.79c0-1.33,1.08-1.78,2.4-1A5,5,0,0,1,164.78,625.1Z"/><line class="cls-31" x1="399.69" y1="601.41" x2="456.7" y2="634.32"/><polyline class="cls-31" points="399.69 502.03 537.36 581.36 790.55 434.69"/><line class="cls-31" x1="399.69" y1="643.28" x2="456.7" y2="676.2"/><line class="cls-31" x1="399.69" y1="685.15" x2="456.7" y2="718.07"/><path class="cls-1" d="M475,644.88c0,5-4.09,6.78-9.14,3.86s-9.14-9.37-9.14-14.42,4.09-6.78,9.14-3.86S475,639.83,475,644.88Z"/><path class="cls-1" d="M418.9,513.12c0,10.61-8.6,14.24-19.21,8.12s-19.21-19.69-19.21-30.29,8.6-14.24,19.21-8.12S418.9,502.51,418.9,513.12Z"/><path class="cls-11" d="M408.12,506.9c0,4.66-3.77,6.25-8.43,3.56s-8.43-8.64-8.43-13.3,3.77-6.25,8.43-3.56S408.12,502.24,408.12,506.9Z"/><path class="cls-3" d="M475,686.75c0,5-4.09,6.78-9.14,3.86s-9.14-9.37-9.14-14.42,4.09-6.78,9.14-3.86S475,681.7,475,686.75Z"/><path class="cls-1" d="M475,728.62c0,5-4.09,6.78-9.14,3.86s-9.14-9.37-9.14-14.42,4.09-6.78,9.14-3.86S475,723.58,475,728.62Z"/><line class="cls-32" x1="564.76" y1="193.37" x2="717.31" y2="281.06"/><line class="cls-32" x1="564.76" y1="212.24" x2="717.31" y2="299.93"/><line class="cls-32" x1="564.76" y1="231.12" x2="717.31" y2="318.81"/><line class="cls-32" x1="564.76" y1="249.99" x2="717.31" y2="337.68"/><line class="cls-32" x1="564.76" y1="268.87" x2="717.31" y2="356.56"/><line class="cls-32" x1="614.06" y1="704.99" x2="766.62" y2="792.68"/><line class="cls-32" x1="614.06" y1="723.86" x2="766.62" y2="811.55"/><line class="cls-32" x1="614.06" y1="742.74" x2="766.62" y2="830.43"/><line class="cls-32" x1="614.06" y1="761.61" x2="766.62" y2="849.3"/><line class="cls-32" x1="614.06" y1="780.49" x2="766.62" y2="868.18"/><line class="cls-32" x1="789.51" y1="803.87" x2="883.8" y2="858.08"/><line class="cls-32" x1="789.51" y1="822.75" x2="881.64" y2="875.71"/><line class="cls-32" x1="789.51" y1="841.62" x2="853.16" y2="878.21"/><line class="cls-32" x1="789.51" y1="860.5" x2="868.75" y2="906.05"/><line class="cls-32" x1="789.51" y1="879.37" x2="843.46" y2="910.39"/><path class="cls-33" d="M853.47,434.91l.26-.26c3.94-4.17,6.12-10.27,6.12-18.39,0-23.33-19.32-53.7-42.32-66.48v42.45Z"/><path class="cls-33" d="M853.2,435.12l.23-.22-36-42.68Z"/><path class="cls-33" d="M817.53,349.78c0,.09-.06-.51-.21-.59-23.48-13.56-42.26-5.83-42.26,17.65a61.3,61.3,0,0,0,4.82,22.39l37.65,3Z"/><path class="cls-11" d="M775,366.84c0-23.49,18.8-31.21,42.28-17.65.15.09.21.68.21.59V324.61c0,.09-.06-.51-.21-.59-37.38-21.58-67.57-8.93-67.57,28.45,0,11.06,2.67,23,7.38,34.94l22.71,1.81A61.25,61.25,0,0,1,775,366.84Z"/><path class="cls-34" d="M853.71,434.65l-.28.26,0,0-.23.22,21.35,25.62.41-.4L853.6,434.78Z"/><path class="cls-35" d="M853.44,434.91l-.23.22,0,0,.23-.22Z"/><path class="cls-3" d="M859.84,416.26c0,8.12-2.17,14.22-6.11,18.39h0l21.3,25.7,0,0h0c6.45-6.64,10-16.44,10-29.55,0-37.23-29.44-83.55-67.44-106.22v25.17C840.53,362.56,859.84,392.93,859.84,416.26Z"/><path class="cls-3" d="M853.72,434.64h0l-.11.13L875,460.37l0,0Z"/><path class="cls-36" d="M817.49,459.16c24,13.84,45.06,13.48,57.09,1.61l-21.35-25.62c-7.53,7.55-20.53,7.5-35.67-1.24-16.41-9.47-30.63-27-37.73-44.69l-22.72-1.81C768.33,415.8,791.16,444,817.49,459.16Z"/><path class="cls-1" d="M817.49,459.16c24,13.84,45.06,13.48,57.09,1.61l-21.35-25.62c-7.53,7.55-20.53,7.5-35.67-1.24-16.41-9.47-30.63-27-37.73-44.69l-22.72-1.81C768.33,415.8,791.16,444,817.49,459.16Z"/><path class="cls-37" d="M817.56,433.91c15.14,8.74,28.14,8.8,35.67,1.24l0,0C845.62,442.41,832.51,442.55,817.56,433.91Z"/><path class="cls-38" d="M817.56,433.91c15.14,8.74,28.14,8.8,35.67,1.24l0,0C845.62,442.41,832.51,442.55,817.56,433.91Z"/><path class="cls-11" d="M797.1,440.77c0,4.66-3.77,6.25-8.43,3.56s-8.43-8.64-8.43-13.3,3.77-6.25,8.43-3.56S797.1,436.12,797.1,440.77Z"/><path class="cls-8" d="M995.74,665.86c0,5.52-4.48,7.42-10,4.23s-10-10.25-10-15.78,4.48-7.42,10-4.23S995.74,660.33,995.74,665.86Z"/><path class="cls-8" d="M1077.5,731.46c0,5.52-4.48,7.42-10,4.23s-10-10.25-10-15.78,4.48-7.42,10-4.23S1077.5,725.94,1077.5,731.46Z"/><text class="cls-39" transform="matrix(1, 0.58, 0, 1, 788.95, 393.11)">50</text><path class="cls-40" d="M848.77,626.73,781,587.64c-3.44-2-6.25-6.42-6.25-9.86V474.64c0-3.44,2.81-4.63,6.25-2.64l67.72,39.1c3.44,2,6.25,6.42,6.25,9.86V624.09C855,627.53,852.21,628.72,848.77,626.73Z"/><path class="cls-11" d="M835.43,538.74l-40.73-23.51c-3.74-2.16-6.8-7-6.8-10.73h0c0-3.74,3.06-5,6.8-2.87l40.73,23.51c3.74,2.16,6.8,7,6.8,10.73h0C842.23,539.61,839.17,540.9,835.43,538.74Z"/><path class="cls-11" d="M835.43,567.38l-40.73-23.51c-3.74-2.16-6.8-7-6.8-10.73h0c0-3.74,3.06-5,6.8-2.87l40.73,23.51c3.74,2.16,6.8,7,6.8,10.73h0C842.23,568.25,839.17,569.54,835.43,567.38Z"/><path class="cls-11" d="M835.43,596l-40.73-23.51c-3.74-2.16-6.8-7-6.8-10.73h0c0-3.74,3.06-5,6.8-2.87l40.73,23.51c3.74,2.16,6.8,7,6.8,10.73h0C842.23,596.89,839.17,598.18,835.43,596Z"/></g></g></svg>