<svg xmlns="http://www.w3.org/2000/svg" xmlns:xlink="http://www.w3.org/1999/xlink" viewBox="0 0 800.72 671.56"><defs><style>.cls-1{fill:url(#linear-gradient);}.cls-2{fill:url(#linear-gradient-2);}.cls-11,.cls-14,.cls-15,.cls-24,.cls-25,.cls-26,.cls-3,.cls-43,.cls-44,.cls-45,.cls-46,.cls-48,.cls-7,.cls-8{fill:none;}.cls-11,.cls-3,.cls-40{stroke:#c3cde0;}.cls-11,.cls-26,.cls-3,.cls-40,.cls-43,.cls-44,.cls-46,.cls-48{stroke-linecap:round;stroke-linejoin:round;}.cls-4{fill:url(#linear-gradient-3);}.cls-5{fill:url(#linear-gradient-4);}.cls-6{fill:url(#linear-gradient-5);}.cls-14,.cls-15,.cls-24,.cls-25,.cls-7,.cls-8{stroke-miterlimit:10;}.cls-26,.cls-7,.cls-8{stroke-width:3px;}.cls-7{stroke:url(#linear-gradient-6);}.cls-8{stroke:url(#linear-gradient-7);}.cls-9{fill:url(#linear-gradient-8);}.cls-10{fill:url(#linear-gradient-9);}.cls-11{stroke-dasharray:5 5;}.cls-12{fill:url(#linear-gradient-10);}.cls-13{fill:url(#linear-gradient-11);}.cls-14,.cls-15,.cls-24,.cls-25,.cls-43,.cls-44,.cls-46,.cls-48{stroke-width:2px;}.cls-14{stroke:url(#linear-gradient-12);}.cls-15{stroke:url(#linear-gradient-13);}.cls-16{fill:url(#linear-gradient-14);}.cls-17{fill:url(#linear-gradient-15);}.cls-18{fill:url(#linear-gradient-16);}.cls-19{opacity:0.85;fill:url(#linear-gradient-17);}.cls-20{opacity:0.4;fill:url(#linear-gradient-18);}.cls-21{fill:url(#linear-gradient-19);}.cls-22,.cls-40{fill:#fff;}.cls-23{fill:url(#linear-gradient-20);}.cls-24{stroke:url(#linear-gradient-21);}.cls-25{stroke:url(#linear-gradient-22);}.cls-26,.cls-43,.cls-44,.cls-46,.cls-48{stroke:#f7f7f7;}.cls-27{fill:#9dabc8;}.cls-28{fill:url(#linear-gradient-23);}.cls-29{fill:url(#linear-gradient-24);}.cls-30{fill:url(#linear-gradient-25);}.cls-31{fill:url(#linear-gradient-26);}.cls-32{fill:url(#linear-gradient-27);}.cls-33{fill:url(#linear-gradient-28);}.cls-34{fill:url(#linear-gradient-29);}.cls-35{fill:#f1406a;}.cls-36{fill:#f5ce2f;}.cls-37{fill:url(#linear-gradient-30);}.cls-38{fill:url(#linear-gradient-31);}.cls-39{fill:url(#linear-gradient-32);}.cls-41{fill:url(#linear-gradient-33);}.cls-42{fill:url(#linear-gradient-34);}.cls-44,.cls-46,.cls-47{opacity:0.5;}.cls-46{stroke-dasharray:2 6;}.cls-48{stroke-dasharray:2.01 6.03;}.cls-49{fill:url(#linear-gradient-35);}.cls-50{fill:url(#linear-gradient-36);}.cls-51{fill:url(#linear-gradient-37);}.cls-52{fill:url(#linear-gradient-38);}</style><linearGradient id="linear-gradient" x1="790.88" y1="465.5" x2="790.85" y2="495.58" gradientUnits="userSpaceOnUse"><stop offset="0" stop-color="#dcdcf4"/><stop offset="1" stop-color="#f2f2ff"/></linearGradient><linearGradient id="linear-gradient-2" x1="-2791.19" y1="514.84" x2="-2792.8" y2="486.56" gradientTransform="matrix(-1, 0, 0, 1, -1995.9, -0.99)" gradientUnits="userSpaceOnUse"><stop offset="0" stop-color="#e6e6f4"/><stop offset="1" stop-color="#ebebff"/></linearGradient><linearGradient id="linear-gradient-3" x1="-2635.57" y1="539.98" x2="-2636.1" y2="577.67" gradientTransform="matrix(-1, 0, 0, 1, -1995.9, -0.99)" xlink:href="#linear-gradient"/><linearGradient id="linear-gradient-4" x1="633.58" y1="554.91" x2="633.68" y2="597.92" xlink:href="#linear-gradient"/><linearGradient id="linear-gradient-5" x1="564.02" y1="405.49" x2="662.1" y2="270.18" gradientUnits="userSpaceOnUse"><stop offset="0" stop-color="#7a30b4"/><stop offset="1" stop-color="#4458e2"/></linearGradient><linearGradient id="linear-gradient-6" x1="431.48" y1="466.18" x2="552.22" y2="466.18" gradientUnits="userSpaceOnUse"><stop offset="0" stop-color="#ee268b"/><stop offset="1" stop-color="#feff94"/></linearGradient><linearGradient id="linear-gradient-7" x1="449.06" y1="449.61" x2="550.23" y2="449.61" xlink:href="#linear-gradient-6"/><linearGradient id="linear-gradient-8" x1="623.73" y1="524.61" x2="581.5" y2="505.26" gradientUnits="userSpaceOnUse"><stop offset="0" stop-color="#dcdcf4"/><stop offset="1" stop-color="#f6f6ff"/></linearGradient><linearGradient id="linear-gradient-9" x1="511.75" y1="481.95" x2="762.21" y2="454.14" xlink:href="#linear-gradient"/><linearGradient id="linear-gradient-10" x1="-1.72" y1="366.08" x2="503.35" y2="366.08" gradientUnits="userSpaceOnUse"><stop offset="0" stop-color="#4d149c"/><stop offset="1" stop-color="#4477e2"/></linearGradient><linearGradient id="linear-gradient-11" x1="53.23" y1="384.92" x2="506.1" y2="308.99" xlink:href="#linear-gradient-5"/><linearGradient id="linear-gradient-12" x1="410.83" y1="333.57" x2="420.62" y2="333.57" gradientUnits="userSpaceOnUse"><stop offset="0" stop-color="#1a268f"/><stop offset="1" stop-color="#3645c8"/></linearGradient><linearGradient id="linear-gradient-13" x1="405.25" y1="336.75" x2="415.04" y2="336.75" xlink:href="#linear-gradient-12"/><linearGradient id="linear-gradient-14" x1="139.78" y1="310.48" x2="331.46" y2="416.66" gradientUnits="userSpaceOnUse"><stop offset="0" stop-color="#834dae"/><stop offset="1" stop-color="#5064d2"/></linearGradient><linearGradient id="linear-gradient-15" x1="124.17" y1="365.61" x2="343.75" y2="365.61" gradientUnits="userSpaceOnUse"><stop offset="0" stop-color="#591da3"/><stop offset="1" stop-color="#4239bd"/></linearGradient><linearGradient id="linear-gradient-16" x1="794.99" y1="492.78" x2="598.73" y2="428.05" xlink:href="#linear-gradient-8"/><linearGradient id="linear-gradient-17" x1="135.65" y1="213.49" x2="333.07" y2="213.49" gradientUnits="userSpaceOnUse"><stop offset="0" stop-color="#8cffff"/><stop offset="1" stop-color="#3f6cff"/></linearGradient><linearGradient id="linear-gradient-18" x1="158.21" y1="146.64" x2="310.77" y2="146.64" gradientUnits="userSpaceOnUse"><stop offset="0" stop-color="#1a268f"/><stop offset="1" stop-color="#4458e2"/></linearGradient><linearGradient id="linear-gradient-19" x1="412.22" y1="352.22" x2="463.01" y2="352.22" gradientUnits="userSpaceOnUse"><stop offset="0" stop-color="#ff9c00"/><stop offset="1" stop-color="#fff694"/></linearGradient><linearGradient id="linear-gradient-20" x1="360.67" y1="318.76" x2="411.46" y2="318.76" gradientUnits="userSpaceOnUse"><stop offset="0" stop-color="#f1406a"/><stop offset="1" stop-color="#ff7db6"/></linearGradient><linearGradient id="linear-gradient-21" x1="352.36" y1="318.76" x2="419.76" y2="318.76" xlink:href="#linear-gradient-12"/><linearGradient id="linear-gradient-22" x1="403.92" y1="352.48" x2="471.32" y2="352.48" xlink:href="#linear-gradient-12"/><linearGradient id="linear-gradient-23" x1="278.47" y1="470.6" x2="141.94" y2="383.82" xlink:href="#linear-gradient-6"/><linearGradient id="linear-gradient-24" x1="282.01" y1="465.03" x2="145.48" y2="378.25" xlink:href="#linear-gradient-6"/><linearGradient id="linear-gradient-25" x1="279.16" y1="469.52" x2="142.63" y2="382.74" xlink:href="#linear-gradient-6"/><linearGradient id="linear-gradient-26" x1="287.44" y1="456.49" x2="150.91" y2="369.71" xlink:href="#linear-gradient-6"/><linearGradient id="linear-gradient-27" x1="285.29" y1="459.86" x2="148.76" y2="373.09" xlink:href="#linear-gradient-6"/><linearGradient id="linear-gradient-28" x1="280.83" y1="466.89" x2="144.3" y2="380.11" xlink:href="#linear-gradient-6"/><linearGradient id="linear-gradient-29" x1="277.74" y1="471.75" x2="141.21" y2="384.97" xlink:href="#linear-gradient-6"/><linearGradient id="linear-gradient-30" x1="418.88" y1="187.99" x2="439.09" y2="187.99" xlink:href="#linear-gradient-20"/><linearGradient id="linear-gradient-31" x1="471.96" y1="247.8" x2="492.18" y2="247.8" xlink:href="#linear-gradient-20"/><linearGradient id="linear-gradient-32" x1="422.83" y1="278.77" x2="443.05" y2="278.77" xlink:href="#linear-gradient-20"/><linearGradient id="linear-gradient-33" x1="514.57" y1="246.34" x2="534.79" y2="246.34" xlink:href="#linear-gradient-19"/><linearGradient id="linear-gradient-34" x1="415.36" y1="234.67" x2="435.58" y2="234.67" xlink:href="#linear-gradient-19"/><linearGradient id="linear-gradient-35" x1="460.46" y1="624.55" x2="289.15" y2="598.34" xlink:href="#linear-gradient"/><linearGradient id="linear-gradient-36" x1="357.42" y1="612.91" x2="529.32" y2="612.91" xlink:href="#linear-gradient-8"/><linearGradient id="linear-gradient-37" x1="-116.76" y1="1222.09" x2="-135.69" y2="1166.33" gradientTransform="matrix(1, -0.58, 1, 0.58, -653.48, -158.34)" xlink:href="#linear-gradient-20"/><linearGradient id="linear-gradient-38" x1="-142.63" y1="1217.26" x2="-87.07" y2="1217.26" gradientTransform="matrix(1, -0.58, 1, 0.58, -653.48, -158.34)" xlink:href="#linear-gradient-20"/></defs><title>Ресурс 3</title><g id="Слой_2" data-name="Слой 2"><g id="_1.2" data-name="1.2"><polygon class="cls-1" points="787.64 504.26 794.08 507.98 794.08 452.56 787.64 448.84 787.64 504.26"/><polygon class="cls-2" points="800.52 504.26 794.08 507.98 794.08 452.56 800.52 449.72 800.52 504.26"/><path class="cls-3" d="M324.16,247.09l100.26-57.88a9.13,9.13,0,0,1,9.13,0l86.57,50a9.13,9.13,0,0,1,0,15.81L429,307.61"/><path class="cls-3" d="M343.21,260.89l81.21-46.78a5.25,5.25,0,0,1,5.25,0l49.78,28.74a5.25,5.25,0,0,1,0,9.09l-82.64,47.43"/><path class="cls-3" d="M360.59,271.5l63.83-36.57a2,2,0,0,1,2,0l19,11a2,2,0,0,1,0,3.47l-64.14,36.06"/><polygon class="cls-4" points="643.27 592.22 636.83 595.94 636.83 540.52 643.27 536.8 643.27 592.22"/><path class="cls-3" d="M5.86,442.63l240.85,140a6.49,6.49,0,0,0,6.49,0L498.28,441.73a6.49,6.49,0,0,0,0-11.24L256.43,290.8a6.49,6.49,0,0,0-6.48,0L5.88,431.4A6.49,6.49,0,0,0,5.86,442.63Z"/><polygon class="cls-5" points="630.39 592.22 636.83 595.94 636.83 540.52 630.39 536.8 630.39 592.22"/><path class="cls-6" d="M552.63,425.72l157-90.58a5,5,0,0,0,2.52-4.37V211.37a5,5,0,0,0-7.56-4.37l-157,90.58a5,5,0,0,0-2.52,4.37V421.36A5,5,0,0,0,552.63,425.72Z"/><line class="cls-3" x1="213.47" y1="563.29" x2="471.62" y2="415.08"/><line class="cls-3" x1="179.47" y1="543.29" x2="437.62" y2="395.08"/><line class="cls-3" x1="140.47" y1="520.29" x2="398.62" y2="372.08"/><path class="cls-7" d="M432.2,403.6,467.44,423a17.56,17.56,0,0,1,9.1,15.39v39.29a17.34,17.34,0,0,0,9.1,15.26l65.87,35.84"/><path class="cls-8" d="M449.78,392.44,485,411.81a17.56,17.56,0,0,1,9.1,15.39v39.29a17.34,17.34,0,0,0,9.1,15.26l46.3,25"/><polygon class="cls-9" points="576.41 564.25 622.87 537.31 622.87 462.89 576.41 489.84 576.41 564.25"/><line class="cls-3" x1="105.47" y1="500.29" x2="363.62" y2="352.08"/><polygon class="cls-10" points="800.67 458.17 800.67 449.61 712.34 370.16 548.67 456.39 548.67 462.49 548.67 464.96 548.67 547.87 576.67 564.25 576.67 492.91 637.05 553.09 800.67 458.17"/><line class="cls-3" x1="67.47" y1="478.29" x2="325.62" y2="330.08"/><line class="cls-3" x1="32.47" y1="458.29" x2="290.62" y2="310.08"/><line class="cls-3" x1="286.83" y1="563.29" x2="32.22" y2="416.22"/><line class="cls-11" x1="385.4" y1="576.27" x2="70.22" y2="394.22"/><line class="cls-3" x1="360.83" y1="520.29" x2="106.22" y2="373.22"/><line class="cls-3" x1="397.83" y1="499.29" x2="143.22" y2="352.22"/><line class="cls-3" x1="433.83" y1="478.29" x2="179.22" y2="331.22"/><line class="cls-3" x1="471.83" y1="456.29" x2="217.22" y2="309.22"/><path class="cls-12" d="M3.33,371.76,245.66,511.67a12,12,0,0,0,12,0L497.39,374a10,10,0,0,0,5-8.68l0-11a4.38,4.38,0,0,0-2.33-3.86L252.76,219.4a4.38,4.38,0,0,0-4.1,0L2.43,349.6A4.38,4.38,0,0,0,.1,353.44L0,366A6.66,6.66,0,0,0,3.33,371.76Z"/><path class="cls-13" d="M3.36,356.71,248.47,498.26a6.48,6.48,0,0,0,6.47,0L499.16,358a6.48,6.48,0,0,0,0-11.23L254,205.18a6.48,6.48,0,0,0-6.47,0L3.38,345.48A6.48,6.48,0,0,0,3.36,356.71Z"/><line class="cls-14" x1="411.33" y1="331.03" x2="420.12" y2="336.11"/><line class="cls-15" x1="405.75" y1="334.21" x2="414.54" y2="339.29"/><path class="cls-16" d="M339.67,427.75,128,305.94a2,2,0,0,1,0-3.54l3.41-2a2,2,0,0,1,2,0L345.12,422.26a2,2,0,0,1,0,3.54l-3.41,1.95A2,2,0,0,1,339.67,427.75Z"/><path class="cls-17" d="M337.16,429.32,125.09,307.26a1.82,1.82,0,0,1,0-3.16l3.85-2.21a1.82,1.82,0,0,1,1.81,0L342.84,424a1.82,1.82,0,0,1,0,3.16l-3.86,2.2A1.82,1.82,0,0,1,337.16,429.32Z"/><polygon class="cls-18" points="548.29 456.39 712.18 361.6 800.72 449.61 636.95 544.52 548.29 456.39"/><path class="cls-19" d="M333.07,427,135.65,313.5V9a9,9,0,0,1,13.52-7.82L328.54,104.32a9,9,0,0,1,4.53,7.82Z"/><path class="cls-20" d="M307.21,257.59l-147.81-85a2.37,2.37,0,0,1-1.19-2.06V37.76a2.37,2.37,0,0,1,3.55-2.06l147.81,85a2.37,2.37,0,0,1,1.19,2.06V255.53A2.37,2.37,0,0,1,307.21,257.59Z"/><path class="cls-21" d="M463,352.35c0,7.91-11,14.33-24.6,14.33s-26.19-6.67-26.19-14.59,11-14.33,24.6-14.33S463,344.44,463,352.35Z"/><path class="cls-22" d="M446.25,352.27c0,2.69-3.74,4.87-8.36,4.87s-8.9-2.27-8.9-5,3.74-4.87,8.36-4.87S446.25,349.58,446.25,352.27Z"/><path class="cls-23" d="M411.46,318.89c0,7.91-11,14.33-24.6,14.33s-26.19-6.67-26.19-14.59,11-14.33,24.6-14.33S411.46,311,411.46,318.89Z"/><path class="cls-24" d="M418.76,318.93c0,10.19-14.18,18.45-31.68,18.45s-33.72-8.59-33.72-18.78,14.18-18.45,31.68-18.45S418.76,308.74,418.76,318.93Z"/><path class="cls-25" d="M470.32,352.64c0,10.19-14.18,18.45-31.68,18.45s-33.72-8.59-33.72-18.78,14.18-18.45,31.68-18.45S470.32,342.46,470.32,352.64Z"/><path class="cls-22" d="M394.7,318.8c0,2.69-3.74,4.87-8.36,4.87s-8.9-2.27-8.9-5,3.74-4.87,8.36-4.87S394.7,316.11,394.7,318.8Z"/><line class="cls-26" x1="158.21" y1="197.18" x2="310.77" y2="284.87"/><line class="cls-26" x1="158.21" y1="216.05" x2="310.77" y2="303.74"/><line class="cls-26" x1="158.21" y1="234.93" x2="310.77" y2="322.62"/><line class="cls-26" x1="158.21" y1="253.8" x2="310.77" y2="341.49"/><path class="cls-27" d="M589.43,543a4.57,4.57,0,0,1-2.2,3.48c-1.22.7-2.2.29-2.2-.93a4.57,4.57,0,0,1,2.2-3.48C588.44,541.37,589.43,541.78,589.43,543Z"/><path class="cls-27" d="M589.43,530.89a4.57,4.57,0,0,1-2.2,3.48c-1.22.7-2.2.29-2.2-.93a4.57,4.57,0,0,1,2.2-3.48C588.44,529.26,589.43,529.68,589.43,530.89Z"/><line class="cls-26" x1="158.21" y1="272.68" x2="310.77" y2="360.37"/><polygon class="cls-22" points="270.84 192.65 250.46 153.59 243.94 158.55 223.37 118.1 189.44 145.66 230.07 169.11 230.07 169.11 270.84 192.65"/><path class="cls-22" d="M275.53,143.23c0,5-4.08,6.76-9.11,3.85s-9.11-9.34-9.11-14.38,4.08-6.76,9.11-3.85S275.53,138.19,275.53,143.23Z"/><path class="cls-22" d="M82.77,335.29q1.87.71,3.44,1.45t2.89,1.5a18,18,0,0,1,5.4,4.39,7.24,7.24,0,0,1,1.68,4.48,7,7,0,0,1-1.67,4.28,16.07,16.07,0,0,1-4.64,3.8,29.39,29.39,0,0,1-8.1,3.16,36.16,36.16,0,0,1-8.89.93A37.73,37.73,0,0,1,64,358.06a32.83,32.83,0,0,1-8.13-3.31,20.86,20.86,0,0,1-3.72-2.67,16.25,16.25,0,0,1-2.49-2.84,12.1,12.1,0,0,1-1.46-2.86,9.93,9.93,0,0,1-.55-2.73l5.85-.54a5.14,5.14,0,0,1,3.14.54,2.56,2.56,0,0,1,1.13,1.25c.22.52.48,1.11.79,1.76A10.5,10.5,0,0,0,60,348.8a11.24,11.24,0,0,0,3,2.34A16.8,16.8,0,0,0,67.6,353a17.87,17.87,0,0,0,4.79.47,19.16,19.16,0,0,0,4.72-.78,20.33,20.33,0,0,0,4.4-1.89q3.82-2.2,3.75-4.72t-4.4-5a34.55,34.55,0,0,0-8.05-3.23l-3.56-3.7,26.58-10.87,23.09,13.33-3.4,2a7.55,7.55,0,0,1-3.85,1A9.53,9.53,0,0,1,107,338l-12.84-7.41Z"/><path class="cls-22" d="M136.65,373.79a60.73,60.73,0,0,1-11.93,5.38,47.55,47.55,0,0,1-11.08,2.21,35.07,35.07,0,0,1-9.85-.63,28.31,28.31,0,0,1-8.25-3.1,15.11,15.11,0,0,1-5.34-4.74,7.3,7.3,0,0,1-1-5.66A13.8,13.8,0,0,1,93,360.88a42.42,42.42,0,0,1,9.33-6.88,61.3,61.3,0,0,1,11.93-5.4,47.44,47.44,0,0,1,11-2.22,35,35,0,0,1,9.8.6,28,28,0,0,1,8.21,3.08,15.34,15.34,0,0,1,5.37,4.76,7.35,7.35,0,0,1,1.08,5.69,13.74,13.74,0,0,1-3.82,6.39A41.74,41.74,0,0,1,136.65,373.79ZM128.4,369a45.66,45.66,0,0,0,7.66-5.28,12.34,12.34,0,0,0,3.31-4.21,3.56,3.56,0,0,0-.1-3.25,6.89,6.89,0,0,0-2.57-2.4,13.24,13.24,0,0,0-4.11-1.46,17.39,17.39,0,0,0-5.59,0,34.45,34.45,0,0,0-7.26,1.93,61.07,61.07,0,0,0-9.14,4.43,46.7,46.7,0,0,0-7.68,5.27,12.45,12.45,0,0,0-3.35,4.19,3.52,3.52,0,0,0,.06,3.23,6.71,6.71,0,0,0,2.52,2.37,13.49,13.49,0,0,0,4.15,1.48,17.55,17.55,0,0,0,5.63.06,34.56,34.56,0,0,0,7.29-1.91A60,60,0,0,0,128.4,369Z"/><path class="cls-28" d="M133.59,398.38h0a6.83,6.83,0,0,0,6.15,0L166.33,383c1.69-1,1.69-2.58,0-3.55h0a6.83,6.83,0,0,0-6.15,0l-26.59,15.35C131.9,395.8,131.9,397.4,133.59,398.38Z"/><path class="cls-29" d="M154.7,410.56h0a6.83,6.83,0,0,0,6.15,0l37.45-21.62c1.69-1,1.69-2.58,0-3.55h0a6.83,6.83,0,0,0-6.15,0L154.7,407C153,408,153,409.59,154.7,410.56Z"/><path class="cls-30" d="M175.81,422.75h0a6.83,6.83,0,0,0,6.15,0l25-14.46c1.69-1,1.69-2.58,0-3.55h0a6.83,6.83,0,0,0-6.15,0l-25,14.46C174.11,420.17,174.11,421.77,175.81,422.75Z"/><path class="cls-31" d="M196.91,434.94h0a6.83,6.83,0,0,0,6.15,0l53.18-30.7c1.69-1,1.69-2.58,0-3.55h0a6.83,6.83,0,0,0-6.15,0l-53.18,30.7C195.22,432.36,195.22,434,196.91,434.94Z"/><path class="cls-32" d="M218,447.12h0a6.83,6.83,0,0,0,6.15,0l43.34-25c1.69-1,1.69-2.58,0-3.55h0a6.83,6.83,0,0,0-6.15,0l-43.34,25C216.33,444.55,216.33,446.15,218,447.12Z"/><path class="cls-33" d="M239.13,459.31h0a6.83,6.83,0,0,0,6.15,0l25-14.46c1.69-1,1.69-2.58,0-3.55h0a6.83,6.83,0,0,0-6.15,0l-25,14.46C237.44,456.73,237.44,458.33,239.13,459.31Z"/><path class="cls-34" d="M260.24,471.5h0a6.83,6.83,0,0,0,6.15,0l11.77-6.8c1.69-1,1.69-2.58,0-3.55h0a6.83,6.83,0,0,0-6.15,0l-11.77,6.8C258.55,468.92,258.55,470.52,260.24,471.5Z"/><polygon class="cls-27" points="592.22 461.39 587.19 464.3 583.47 460.6 588.5 457.7 592.22 461.39"/><polygon class="cls-27" points="615.82 447.53 611.21 450.19 607.8 446.81 612.41 444.14 615.82 447.53"/><polygon class="cls-35" points="639.95 433.77 635.15 436.55 631.6 433.02 636.4 430.25 639.95 433.77"/><polygon class="cls-27" points="663.96 419.75 659.33 422.43 655.91 419.03 660.54 416.36 663.96 419.75"/><polygon class="cls-27" points="687.94 405.92 683.3 408.6 679.87 405.2 684.51 402.52 687.94 405.92"/><polygon class="cls-27" points="711.94 392.16 707.26 394.86 703.79 391.43 708.48 388.72 711.94 392.16"/><polygon class="cls-27" points="611.39 480.06 606.35 482.97 602.63 479.27 607.66 476.37 611.39 480.06"/><polygon class="cls-36" points="634.98 466.19 630.37 468.85 626.97 465.47 631.58 462.81 634.98 466.19"/><polygon class="cls-35" points="659.12 452.44 654.31 455.22 650.76 451.69 655.57 448.92 659.12 452.44"/><polygon class="cls-27" points="683.13 438.42 678.5 441.09 675.08 437.7 679.71 435.02 683.13 438.42"/><polygon class="cls-35" points="707.1 424.59 702.46 427.27 699.03 423.86 703.67 421.18 707.1 424.59"/><polygon class="cls-27" points="731.11 410.83 726.42 413.53 722.96 410.09 727.64 407.39 731.11 410.83"/><polygon class="cls-36" points="630.85 498.43 625.81 501.34 622.09 497.64 627.13 494.74 630.85 498.43"/><polygon class="cls-27" points="654.44 484.56 649.84 487.23 646.43 483.84 651.04 481.18 654.44 484.56"/><polygon class="cls-36" points="678.58 470.81 673.77 473.59 670.22 470.06 675.03 467.29 678.58 470.81"/><polygon class="cls-27" points="702.59 456.79 697.96 459.46 694.54 456.07 699.17 453.39 702.59 456.79"/><polygon class="cls-27" points="726.56 442.96 721.92 445.64 718.5 442.23 723.13 439.56 726.56 442.96"/><polygon class="cls-36" points="750.57 429.2 745.88 431.9 742.42 428.46 747.1 425.76 750.57 429.2"/><polygon class="cls-27" points="649.77 517.46 644.74 520.37 641.02 516.67 646.05 513.76 649.77 517.46"/><polygon class="cls-27" points="673.37 503.59 668.76 506.25 665.35 502.87 669.96 500.21 673.37 503.59"/><polygon class="cls-27" points="697.5 489.84 692.7 492.62 689.15 489.09 693.95 486.32 697.5 489.84"/><polygon class="cls-27" points="721.51 475.82 716.88 478.49 713.46 475.1 718.09 472.42 721.51 475.82"/><polygon class="cls-27" points="745.49 461.99 740.85 464.67 737.42 461.26 742.06 458.58 745.49 461.99"/><polygon class="cls-35" points="769.49 448.23 764.81 450.93 761.34 447.49 766.03 444.79 769.49 448.23"/><path class="cls-37" d="M421.84,192.11a15.8,15.8,0,0,0,14.3,0c3.95-2.28,3.95-6,0-8.25a15.8,15.8,0,0,0-14.3,0C417.89,186.14,417.89,189.83,421.84,192.11Z"/><path class="cls-38" d="M474.92,251.93a15.8,15.8,0,0,0,14.3,0c3.95-2.28,3.95-6,0-8.25a15.8,15.8,0,0,0-14.3,0C471,246,471,249.65,474.92,251.93Z"/><path class="cls-39" d="M425.79,282.9a15.8,15.8,0,0,0,14.3,0c3.95-2.28,3.95-6,0-8.25a15.8,15.8,0,0,0-14.3,0C421.84,276.92,421.84,280.62,425.79,282.9Z"/><path class="cls-40" d="M242.45,546.44a15.8,15.8,0,0,0,14.3,0c3.95-2.28,3.95-6,0-8.25a15.8,15.8,0,0,0-14.3,0C238.5,540.46,238.5,544.16,242.45,546.44Z"/><path class="cls-40" d="M354.26,482.42a15.8,15.8,0,0,0,14.3,0c3.95-2.28,3.95-6,0-8.25a15.8,15.8,0,0,0-14.3,0C350.31,476.44,350.31,480.14,354.26,482.42Z"/><path class="cls-40" d="M96.46,461.45a15.8,15.8,0,0,0,14.3,0c3.95-2.28,3.95-6,0-8.25a15.8,15.8,0,0,0-14.3,0C92.51,455.48,92.51,459.17,96.46,461.45Z"/><path class="cls-40" d="M25.32,420.35a15.8,15.8,0,0,0,14.3,0c3.95-2.28,3.95-6,0-8.25a15.8,15.8,0,0,0-14.3,0C21.37,414.37,21.37,418.07,25.32,420.35Z"/><path class="cls-41" d="M517.53,250.47a15.8,15.8,0,0,0,14.3,0c3.95-2.28,3.95-6,0-8.25a15.8,15.8,0,0,0-14.3,0C513.58,244.5,513.58,248.19,517.53,250.47Z"/><path class="cls-42" d="M418.32,238.8a15.8,15.8,0,0,0,14.3,0c3.95-2.28,3.95-6,0-8.25a15.8,15.8,0,0,0-14.3,0C414.37,232.82,414.37,236.52,418.32,238.8Z"/><path class="cls-43" d="M563.25,352.48s1.8-34.81,15.35-39.79c9.33-3.43,8.2,14.25,17.76,11.11s6.86-35.42,19-43.39,16.94,20.12,16.94,20.12"/><path class="cls-35" d="M633.37,359.84l-19.51,11.05a1.18,1.18,0,0,1-1.77-1V337a1.18,1.18,0,0,1,.6-1l19.51-11.05a1.18,1.18,0,0,1,1.77,1v32.84A1.18,1.18,0,0,1,633.37,359.84Z"/><line class="cls-44" x1="595.35" y1="303.3" x2="595.35" y2="335.46"/><path class="cls-45" d="M659.13,277.58c0,7.47,6.05,10,13.52,5.71a29.69,29.69,0,0,0,11.44-13.06l-11.42-.56v-13.5s0,.05-.08.08C665.12,260.56,659.13,270.11,659.13,277.58Z"/><path class="cls-22" d="M672.65,283.29c-7.47,4.31-13.52,1.75-13.52-5.71s6-17,13.45-21.33c0,0,.08-.05.08-.08v-8s0,.05-.08.08c-11.89,6.86-21.49,22.06-21.49,33.95s9.65,16,21.54,9.1c7.72-4.46,14.49-12.43,18.29-20.72l-6.77-.34A29.82,29.82,0,0,1,672.65,283.29Z"/><path class="cls-36" d="M672.67,248.17v8c7-4.19,13.44-1.62,13.44,5.79a20.32,20.32,0,0,1-2,8.27l6.79.34a32.4,32.4,0,0,0,3.18-13.22C694.1,245.51,684.67,241.43,672.67,248.17Z"/><line class="cls-43" x1="563.57" y1="367.22" x2="602.81" y2="344.78"/><line class="cls-43" x1="563.57" y1="381.98" x2="602.81" y2="359.54"/><line class="cls-43" x1="563.57" y1="396.74" x2="602.81" y2="374.31"/><path class="cls-36" d="M598.47,299.07a6.47,6.47,0,0,1-3.12,4.92c-1.72,1-3.12.4-3.12-1.32a6.47,6.47,0,0,1,3.12-4.92C597.07,296.76,598.47,297.35,598.47,299.07Z"/><path class="cls-22" d="M694.55,308.79c0,11.9-9.65,27.12-21.55,34s-21.55,2.79-21.55-9.11,9.65-27.12,21.55-34S694.55,296.89,694.55,308.79Z"/><path class="cls-35" d="M689,326.52c3.48-5.84,5.6-12.14,5.6-17.72,0-11.9-9.65-16-21.55-9.11v21.55Z"/><line class="cls-46" x1="578.6" y1="312.68" x2="578.6" y2="344.84"/><g class="cls-47"><line class="cls-43" x1="611.09" y1="293.46" x2="611.09" y2="294.46"/><line class="cls-48" x1="611.09" y1="300.5" x2="611.09" y2="321.61"/><line class="cls-43" x1="611.09" y1="324.63" x2="611.09" y2="325.63"/></g><g class="cls-47"><line class="cls-43" x1="624.83" y1="286.67" x2="624.83" y2="287.67"/><line class="cls-48" x1="624.83" y1="293.7" x2="624.83" y2="314.81"/><line class="cls-43" x1="624.83" y1="317.83" x2="624.83" y2="318.83"/></g><path class="cls-35" d="M581.72,311.35a6.47,6.47,0,0,1-3.12,4.92c-1.72,1-3.12.4-3.12-1.32A6.47,6.47,0,0,1,578.6,310C580.32,309,581.72,309.62,581.72,311.35Z"/><path class="cls-35" d="M620.18,278a6.47,6.47,0,0,1-3.12,4.92c-1.72,1-3.12.4-3.12-1.32a6.47,6.47,0,0,1,3.12-4.92C618.79,275.69,620.18,276.28,620.18,278Z"/><path class="cls-49" d="M504.15,586.85c15.37,8.87,23.73,11.48,25,23.09.07.6.09,10,.12,10.6.64,13.16-7.74,26.44-25.14,36.49-33.57,19.38-88,19.38-121.55,0-18-10.37-24.84-24.13-25.05-37.77-.05-3.31-.54-7.69.07-9.68,3-9.68,12-15.26,25-22.73C416.16,567.47,470.58,567.47,504.15,586.85Z"/><path class="cls-50" d="M504.15,577.82c33.57,19.38,33.57,50.8,0,70.18s-88,19.38-121.55,0-33.57-50.8,0-70.18S470.58,558.44,504.15,577.82Z"/><path class="cls-51" d="M407,618.22c-.13,9.2,13.75,16.55,35.87,14.89,11.11-.84,28.45-3.26,28.45-3.26s3.91-10,5.53-16.36a23,23,0,0,0,.51-6.17c0-.78.17-5.07,0-5.74-2.46-8.68-13.88-9.34-26.24-8.74-18.35.88-17.37,15.11-17.37,15.11s-27.32-4.37-26.72,5.33C407,614.31,407,617.55,407,618.22Z"/><path class="cls-52" d="M407,612.24c-1.31,9.11,13.66,16.54,35.78,14.87,11.11-.84,28.45-3.26,28.45-3.26s3.91-10,5.53-16.36c3.55-14-10-21.41-25.75-20.65-18.35.88-17.37,15.11-17.37,15.11S408.57,601.64,407,612.24Z"/></g></g></svg>