<svg xmlns="http://www.w3.org/2000/svg" xmlns:xlink="http://www.w3.org/1999/xlink" viewBox="0 0 737.49 744.46"><defs><style>.cls-1,.cls-16,.cls-19,.cls-23,.cls-24,.cls-26,.cls-36{fill:none;}.cls-1{stroke:#c3cde0;}.cls-1,.cls-16,.cls-23,.cls-24,.cls-26,.cls-36{stroke-linecap:round;stroke-linejoin:round;}.cls-2,.cls-24,.cls-36{opacity:0.5;}.cls-2{fill:url(#linear-gradient);}.cls-3{opacity:0.75;fill:url(#linear-gradient-2);}.cls-37,.cls-4{opacity:0.85;}.cls-4{fill:url(#linear-gradient-3);}.cls-5{fill:url(#linear-gradient-4);}.cls-6{fill:url(#linear-gradient-5);}.cls-7{fill:url(#linear-gradient-6);}.cls-8{fill:url(#linear-gradient-7);}.cls-9{fill:url(#linear-gradient-8);}.cls-10{fill:url(#linear-gradient-9);}.cls-11{fill:#dcdcf4;}.cls-12{fill:url(#linear-gradient-10);}.cls-13{fill:url(#linear-gradient-11);}.cls-14{opacity:0.4;fill:url(#linear-gradient-12);}.cls-15{fill:#fff;}.cls-16,.cls-23,.cls-24,.cls-36{stroke:#f7f7f7;}.cls-16{stroke-width:3px;}.cls-17{fill:url(#linear-gradient-13);}.cls-18{fill:url(#linear-gradient-14);}.cls-20{fill:url(#linear-gradient-15);}.cls-21{fill:#f1406a;}.cls-22{fill:#f5ce2f;}.cls-23,.cls-24,.cls-26,.cls-36{stroke-width:2px;}.cls-24{stroke-dasharray:2 6;}.cls-25{fill:url(#linear-gradient-16);}.cls-26{stroke:#f5ce2f;}.cls-27{fill:url(#linear-gradient-17);}.cls-28{fill:url(#linear-gradient-18);}.cls-29{fill:url(#linear-gradient-19);}.cls-30{fill:url(#linear-gradient-20);}.cls-31{fill:url(#linear-gradient-21);}.cls-32{fill:url(#linear-gradient-22);}.cls-33{fill:url(#linear-gradient-23);}.cls-34{fill:url(#linear-gradient-24);}.cls-35{fill:url(#linear-gradient-25);}.cls-37{fill:url(#linear-gradient-26);}.cls-38{fill:url(#linear-gradient-27);}.cls-39{fill:url(#linear-gradient-28);}</style><linearGradient id="linear-gradient" x1="261.25" y1="290.89" x2="737.49" y2="290.89" gradientUnits="userSpaceOnUse"><stop offset="0" stop-color="#7a30b4"/><stop offset="1" stop-color="#4458e2"/></linearGradient><linearGradient id="linear-gradient-2" x1="241.63" y1="301.44" x2="717.86" y2="301.44" xlink:href="#linear-gradient"/><linearGradient id="linear-gradient-3" x1="64.72" y1="217.86" x2="241.63" y2="217.86" gradientUnits="userSpaceOnUse"><stop offset="0" stop-color="#8cffff"/><stop offset="1" stop-color="#3f6cff"/></linearGradient><linearGradient id="linear-gradient-4" x1="-2438.11" y1="604.92" x2="-2438.83" y2="656.97" gradientTransform="matrix(-1, 0, 0, 1, -2068.23, -0.99)" gradientUnits="userSpaceOnUse"><stop offset="0" stop-color="#dcdcf4"/><stop offset="1" stop-color="#f2f2ff"/></linearGradient><linearGradient id="linear-gradient-5" x1="-2245.2" y1="493.95" x2="-2245.92" y2="545.78" xlink:href="#linear-gradient-4"/><linearGradient id="linear-gradient-6" x1="171.02" y1="514.86" x2="171.16" y2="573.96" gradientTransform="matrix(1, 0, 0, 1, 0, 0)" xlink:href="#linear-gradient-4"/><linearGradient id="linear-gradient-7" x1="363.93" y1="625.92" x2="364.07" y2="685.28" gradientTransform="matrix(1, 0, 0, 1, 0, 0)" xlink:href="#linear-gradient-4"/><linearGradient id="linear-gradient-8" x1="518.75" y1="507.94" x2="245.55" y2="507.94" gradientUnits="userSpaceOnUse"><stop offset="0" stop-color="#dcdcf4"/><stop offset="1" stop-color="#f6f6ff"/></linearGradient><linearGradient id="linear-gradient-9" x1="305.82" y1="417.46" x2="456.96" y2="417.46" gradientUnits="userSpaceOnUse"><stop offset="0" stop-color="#e6e6f4"/><stop offset="1" stop-color="#ebebff"/></linearGradient><linearGradient id="linear-gradient-10" x1="304.54" y1="431.67" x2="447.26" y2="407.43" gradientUnits="userSpaceOnUse"><stop offset="0" stop-color="#dcdcf4"/><stop offset="1" stop-color="#fbfbff"/></linearGradient><linearGradient id="linear-gradient-11" x1="278.09" y1="426.83" x2="417.73" y2="403.1" xlink:href="#linear-gradient"/><linearGradient id="linear-gradient-12" y1="201.73" x2="215.21" y2="201.73" gradientUnits="userSpaceOnUse"><stop offset="0" stop-color="#1a268f"/><stop offset="1" stop-color="#4458e2"/></linearGradient><linearGradient id="linear-gradient-13" x1="540.33" y1="681.02" x2="567.11" y2="641.5" gradientUnits="userSpaceOnUse"><stop offset="0" stop-color="#ee268b"/><stop offset="1" stop-color="#feff94"/></linearGradient><linearGradient id="linear-gradient-14" x1="570.71" y1="701.61" x2="597.5" y2="662.09" xlink:href="#linear-gradient-13"/><linearGradient id="linear-gradient-15" x1="463.54" y1="658.41" x2="635.08" y2="658.41" gradientUnits="userSpaceOnUse"><stop offset="0" stop-color="#ff9c00"/><stop offset="1" stop-color="#fff694"/></linearGradient><linearGradient id="linear-gradient-16" x1="516.07" y1="399.7" x2="573.82" y2="399.7" gradientUnits="userSpaceOnUse"><stop offset="0" stop-color="#e6e6f4"/><stop offset="1" stop-color="#f6f6ff"/></linearGradient><linearGradient id="linear-gradient-17" x1="269.94" y1="-1521.35" x2="269.94" y2="-1569.15" gradientTransform="matrix(1, 0.58, 0, 1, 0, 1498.94)" xlink:href="#linear-gradient-13"/><linearGradient id="linear-gradient-18" x1="290.25" y1="-1521.65" x2="290.25" y2="-1581.91" gradientTransform="matrix(1, 0.58, 0, 1, 0, 1498.94)" xlink:href="#linear-gradient-13"/><linearGradient id="linear-gradient-19" x1="310.56" y1="-1522.1" x2="310.56" y2="-1600.85" gradientTransform="matrix(1, 0.58, 0, 1, 0, 1498.94)" xlink:href="#linear-gradient-13"/><linearGradient id="linear-gradient-20" x1="330.87" y1="-1521.39" x2="330.87" y2="-1571.1" gradientTransform="matrix(1, 0.58, 0, 1, 0, 1498.94)" xlink:href="#linear-gradient-13"/><linearGradient id="linear-gradient-21" x1="351.18" y1="-1520.88" x2="351.18" y2="-1549.19" gradientTransform="matrix(1, 0.58, 0, 1, 0, 1498.94)" xlink:href="#linear-gradient-13"/><linearGradient id="linear-gradient-22" x1="371.49" y1="-1521.57" x2="371.49" y2="-1578.58" gradientTransform="matrix(1, 0.58, 0, 1, 0, 1498.94)" xlink:href="#linear-gradient-13"/><linearGradient id="linear-gradient-23" x1="391.8" y1="-1521.75" x2="391.8" y2="-1586.35" gradientTransform="matrix(1, 0.58, 0, 1, 0, 1498.94)" xlink:href="#linear-gradient-13"/><linearGradient id="linear-gradient-24" x1="412.11" y1="-1521.25" x2="412.11" y2="-1565" gradientTransform="matrix(1, 0.58, 0, 1, 0, 1498.94)" xlink:href="#linear-gradient-13"/><linearGradient id="linear-gradient-25" x1="432.42" y1="-1520.72" x2="432.42" y2="-1542.59" gradientTransform="matrix(1, 0.58, 0, 1, 0, 1498.94)" xlink:href="#linear-gradient-13"/><linearGradient id="linear-gradient-26" x1="346.51" y1="393.75" x2="372.92" y2="393.75" xlink:href="#linear-gradient-3"/><linearGradient id="linear-gradient-27" x1="-2573.18" y1="528.54" x2="-2573.9" y2="579.87" xlink:href="#linear-gradient-4"/><linearGradient id="linear-gradient-28" x1="499" y1="549.24" x2="499.14" y2="607.77" gradientTransform="matrix(1, 0, 0, 1, 0, 0)" xlink:href="#linear-gradient-4"/></defs><title>Ресурс 3</title><g id="Слой_2" data-name="Слой 2"><g id="_2.2" data-name="2.2"><path class="cls-1" d="M9.38,561.08l313.79,182a6.27,6.27,0,0,0,6.27,0L575,602a6.27,6.27,0,0,0,0-10.86L260.15,409.37a6.27,6.27,0,0,0-6.26,0L9.39,550.22A6.27,6.27,0,0,0,9.38,561.08Z"/><line class="cls-1" x1="217.3" y1="681.93" x2="475.46" y2="533.73"/><line class="cls-1" x1="183.3" y1="661.93" x2="441.46" y2="513.73"/><line class="cls-1" x1="144.3" y1="638.93" x2="402.46" y2="490.73"/><line class="cls-1" x1="109.3" y1="618.93" x2="367.46" y2="470.73"/><line class="cls-1" x1="292.3" y1="724.93" x2="550.1" y2="576.93"/><line class="cls-1" x1="253.3" y1="701.93" x2="510.69" y2="554.16"/><line class="cls-1" x1="71.3" y1="596.93" x2="329.46" y2="448.73"/><line class="cls-1" x1="36.3" y1="576.93" x2="294.46" y2="428.73"/><line class="cls-1" x1="363" y1="723.44" x2="36.05" y2="534.86"/><line class="cls-1" x1="401" y1="701.44" x2="74.05" y2="512.86"/><line class="cls-1" x1="437.6" y1="680.95" x2="110.81" y2="492.3"/><line class="cls-1" x1="474.46" y1="659.87" x2="147.05" y2="470.86"/><line class="cls-1" x1="510.75" y1="639.04" x2="183.71" y2="450.24"/><line class="cls-1" x1="548.79" y1="617.03" x2="221.99" y2="428.13"/><path class="cls-2" d="M716.79,579.9l-455.54-263V5.8a5.79,5.79,0,0,1,8.69-5l460.65,266a13.8,13.8,0,0,1,6.9,11.95V568A13.8,13.8,0,0,1,716.79,579.9Z"/><path class="cls-3" d="M697.17,592.57l-455.54-263V8.44L711,279.41a13.8,13.8,0,0,1,6.9,11.95V580.62A13.8,13.8,0,0,1,697.17,592.57Z"/><path class="cls-4" d="M75.68,426.29l165.95-96.4V8.44L73.22,106.26A17.09,17.09,0,0,0,64.72,121V420A7.3,7.3,0,0,0,75.68,426.29Z"/><polygon class="cls-5" points="373.63 678.83 367.18 682.55 367.18 604.64 373.63 600.92 373.63 678.83"/><polygon class="cls-6" points="180.72 567.53 174.28 571.25 174.28 493.69 180.72 489.97 180.72 567.53"/><polygon class="cls-7" points="167.84 567.53 174.28 571.25 174.28 493.69 167.84 489.97 167.84 567.53"/><polygon class="cls-8" points="360.74 678.83 367.18 682.55 367.18 604.64 360.74 600.92 360.74 678.83"/><path class="cls-9" d="M504.72,532.23l-133.27,77a8,8,0,0,1-8,0L171.6,497.61a8,8,0,0,1,0-13.75l132.94-77.2a8,8,0,0,1,8,0L504.74,518.46A8,8,0,0,1,504.72,532.23Z"/><path class="cls-10" d="M446.29,521.36h0a1.81,1.81,0,0,1-1-.24L307.15,442a1.81,1.81,0,0,1-.91-1.56l-.42-120.31a1.81,1.81,0,0,1,.35-1.08l1.37-1.86A8.8,8.8,0,0,1,319,314.73l134.58,77.11a6,6,0,0,1,3,5.16L457,510.13A11.2,11.2,0,0,1,446.29,521.36Z"/><path class="cls-11" d="M336.93,494.51,362.11,509a7.86,7.86,0,0,0,8.69-.56l23.67-18.05a7.86,7.86,0,0,0-.84-13.05l-17.58-10.15a7.86,7.86,0,0,0-7.08-.4L337.71,480.5A7.86,7.86,0,0,0,336.93,494.51Z"/><path class="cls-12" d="M444.87,520.87,308.16,442.54a3.83,3.83,0,0,1-1.92-3.31l-.4-118.45a3.83,3.83,0,0,1,5.73-3.33l136.71,78.33a3.83,3.83,0,0,1,1.92,3.31l.4,118.45A3.83,3.83,0,0,1,444.87,520.87Z"/><path class="cls-13" d="M450.62,502.25,306.09,419.47l-.4-98.82a3.83,3.83,0,0,1,5.74-3.34L448.28,395.7A3.83,3.83,0,0,1,450.2,399Z"/><path class="cls-14" d="M211.88,220.64,10,337.18A6.67,6.67,0,0,1,0,331.4V188.6a6.67,6.67,0,0,1,3.34-5.78L205.2,66.28a6.67,6.67,0,0,1,10,5.78v142.8A6.67,6.67,0,0,1,211.88,220.64Z"/><polygon class="cls-15" points="134.94 213.47 101.02 185.91 67.08 252.64 134.94 213.47"/><polygon class="cls-15" points="148.48 205.65 128.1 190.13 107.71 229.19 148.48 205.65"/><path class="cls-15" d="M153.17,150.81c0,5-4.08,11.47-9.11,14.38s-9.11,1.18-9.11-3.85S139,149.86,144.06,147,153.17,145.78,153.17,150.81Z"/><line class="cls-16" x1="92.57" y1="312.96" x2="215.21" y2="241.85"/><line class="cls-16" x1="92.57" y1="331.84" x2="215.21" y2="260.72"/><line class="cls-16" x1="92.57" y1="350.71" x2="215.21" y2="279.6"/><line class="cls-16" x1="92.57" y1="369.59" x2="215.21" y2="298.47"/><line class="cls-16" x1="92.57" y1="388.46" x2="215.21" y2="317.35"/><path class="cls-17" d="M554,661.52l-3.13.19a23.44,23.44,0,0,1,3.44.94,19.69,19.69,0,0,1,3.24,1.5,13.69,13.69,0,0,1,3.7,3,6.11,6.11,0,0,1,1.54,3.52,5.93,5.93,0,0,1-1.13,3.72A12.59,12.59,0,0,1,557.4,678a23.35,23.35,0,0,1-6.33,2.46,30.68,30.68,0,0,1-7.23.82,31.56,31.56,0,0,1-7.42-.93,26.26,26.26,0,0,1-6.89-2.75,15.43,15.43,0,0,1-4.78-4,6.79,6.79,0,0,1-1.5-4.2,6.91,6.91,0,0,1,1.69-4.19,17,17,0,0,1,4.84-3.91,27.86,27.86,0,0,1,7-2.71,60.14,60.14,0,0,1,9.84-1.53l22.59-1.9a9.55,9.55,0,0,1,2.61.19,8.71,8.71,0,0,1,2.7,1l6.15,3.55Zm-19,12.77a13.62,13.62,0,0,0,3.59,1.43,16.22,16.22,0,0,0,3.94.47,17,17,0,0,0,3.91-.47,13.09,13.09,0,0,0,3.51-1.38,8.74,8.74,0,0,0,2.59-2.11,3.28,3.28,0,0,0,0-4.43,8.85,8.85,0,0,0-2.52-2,13.14,13.14,0,0,0-3.55-1.4,15.72,15.72,0,0,0-3.84-.43,16.45,16.45,0,0,0-3.83.5,13.45,13.45,0,0,0-3.45,1.38,10.07,10.07,0,0,0-2.6,2,3.67,3.67,0,0,0-1,2.15,3.3,3.3,0,0,0,.73,2.18A8.2,8.2,0,0,0,535,674.28Z"/><path class="cls-18" d="M583.2,678.37q1.62.61,3,1.25t2.5,1.3a15.52,15.52,0,0,1,4.67,3.79,6.25,6.25,0,0,1,1.45,3.87,6.05,6.05,0,0,1-1.44,3.7,13.89,13.89,0,0,1-4,3.28,25.41,25.41,0,0,1-7,2.74,31.3,31.3,0,0,1-7.69.81A32.61,32.61,0,0,1,567,698a28.37,28.37,0,0,1-7-2.86,18,18,0,0,1-3.21-2.31,14,14,0,0,1-2.15-2.45,10.48,10.48,0,0,1-1.26-2.47,8.6,8.6,0,0,1-.47-2.36l5.06-.47a4.44,4.44,0,0,1,2.71.47,2.21,2.21,0,0,1,1,1.08q.28.68.68,1.53A9.1,9.1,0,0,0,563.5,690a9.71,9.71,0,0,0,2.61,2,14.52,14.52,0,0,0,4,1.58,15.41,15.41,0,0,0,4.14.4,16.53,16.53,0,0,0,4.08-.68,17.58,17.58,0,0,0,3.8-1.63q3.3-1.9,3.24-4.08t-3.8-4.34a29.87,29.87,0,0,0-7-2.79l-3.08-3.2,23-9.39,20,11.52-2.93,1.69a6.53,6.53,0,0,1-3.33.86,8.23,8.23,0,0,1-4.05-1.27L593,674.33Z"/><path class="cls-19" d="M514.73,650c-19.15,11.06-24.92,26.9-17.23,40.84L564,678.26l49.3-28.47C586.56,634.5,542,634.27,514.73,650Z"/><path class="cls-20" d="M514.73,650c27.25-15.73,71.84-15.51,98.63-.21l21.73-12.55c-39.37-22.56-102.83-22.45-142.08.21-27.61,15.94-35.79,38.87-24.64,59l29.21-5.52C489.88,677,495.57,661.06,514.73,650Z"/><path class="cls-21" d="M635.56,719.77c39.34-22.71,39.24-59.6-.1-82.31l-.37-.21L613.35,649.8l.38.21c27.34,15.78,27.39,41.41.05,57.19s-71.64,15.8-99,0c-8.18-4.73-13.89-10.32-17.17-16.28l-29.23,5.51c4.74,8.53,13,16.56,24.69,23.32C532.44,742.48,596.22,742.48,635.56,719.77Z"/><path class="cls-22" d="M297.51,216c20,11.51,35.61,36.34,35.61,55.87,0,12.8-6.92,20.06-17.09,20.42l-18.52-40.91Z"/><path class="cls-15" d="M265.3,247.12A48.5,48.5,0,0,1,262.4,231c0-19.56,15.66-26.31,35.22-15,0,0-.11,0-.11,0v35.38Z"/><path class="cls-21" d="M265.57,247.17l32.48,4.36,18.38,40.88c-5.38.19-11.7-1.56-18.47-5.47C283.51,278.59,271.08,262.76,265.57,247.17Z"/><line class="cls-23" x1="433.5" y1="255.76" x2="262.54" y2="156.07"/><line class="cls-23" x1="402.63" y1="255.76" x2="262.54" y2="174.07"/><line class="cls-23" x1="493.44" y1="331.93" x2="464.54" y2="315.07"/><line class="cls-24" x1="493.44" y1="345.68" x2="464.54" y2="328.82"/><line class="cls-23" x1="493.44" y1="359.43" x2="464.54" y2="342.57"/><line class="cls-23" x1="423.44" y1="421.93" x2="394.54" y2="405.07"/><line class="cls-24" x1="423.44" y1="435.68" x2="394.54" y2="418.82"/><line class="cls-23" x1="423.44" y1="449.43" x2="394.54" y2="432.57"/><line class="cls-24" x1="493.44" y1="373.18" x2="464.54" y2="356.32"/><line class="cls-23" x1="493.44" y1="386.93" x2="464.54" y2="370.07"/><line class="cls-23" x1="493.44" y1="427.18" x2="464.54" y2="410.32"/><line class="cls-24" x1="493.44" y1="440.93" x2="464.54" y2="424.07"/><line class="cls-23" x1="627.44" y1="408.93" x2="598.54" y2="392.07"/><line class="cls-24" x1="627.44" y1="422.68" x2="598.54" y2="405.82"/><line class="cls-23" x1="627.44" y1="436.43" x2="598.54" y2="419.57"/><line class="cls-23" x1="627.44" y1="450.18" x2="598.54" y2="433.32"/><line class="cls-23" x1="627.44" y1="514.93" x2="598.54" y2="498.07"/><line class="cls-23" x1="627.44" y1="500.93" x2="598.54" y2="484.07"/><line class="cls-23" x1="291.44" y1="333.93" x2="262.54" y2="317.07"/><line class="cls-23" x1="291.44" y1="319.93" x2="262.54" y2="303.07"/><path class="cls-15" d="M581.58,491.13l-76.66-44.26a3.39,3.39,0,0,1-1.7-2.94V342.16a3.39,3.39,0,0,1,5.09-2.94L585,383.48a3.39,3.39,0,0,1,1.7,2.94V488.19A3.39,3.39,0,0,1,581.58,491.13Z"/><path class="cls-25" d="M569.93,436.89l-52.56-30.38a2.59,2.59,0,0,1-1.3-2.25V364.77a2.59,2.59,0,0,1,3.89-2.25l52.56,30.38a2.59,2.59,0,0,1,1.3,2.25v39.49A2.59,2.59,0,0,1,569.93,436.89Z"/><line class="cls-26" x1="516.54" y1="420.58" x2="569.65" y2="451.24"/><line class="cls-26" x1="516.54" y1="434.99" x2="548.67" y2="453.54"/><path class="cls-15" d="M674,198.2c0,3.44-2.79,4.62-6.23,2.63s-6.23-6.39-6.23-9.83,2.79-4.62,6.23-2.63S674,194.76,674,198.2Z"/><path class="cls-27" d="M269.94,134.6h0a7.19,7.19,0,0,1-3.45-5.45V86.39c0-1.9,1.55-2.56,3.45-1.46h0a7.19,7.19,0,0,1,3.45,5.45v42.76C273.39,135,271.84,135.7,269.94,134.6Z"/><path class="cls-28" d="M290.25,146.33h0a7.19,7.19,0,0,1-3.45-5.45V85.18c0-1.9,1.55-2.56,3.45-1.46h0a7.19,7.19,0,0,1,3.45,5.45v55.7C293.7,146.77,292.15,147.43,290.25,146.33Z"/><path class="cls-29" d="M310.56,158.06h0a7.19,7.19,0,0,1-3.45-5.45V77.7c0-1.9,1.55-2.56,3.45-1.46h0A7.19,7.19,0,0,1,314,81.68V156.6C314,158.5,312.46,159.15,310.56,158.06Z"/><path class="cls-30" d="M330.87,169.78h0a7.19,7.19,0,0,1-3.45-5.45V119.6c0-1.9,1.55-2.56,3.45-1.46h0a7.19,7.19,0,0,1,3.45,5.45v44.73C334.32,170.22,332.77,170.88,330.87,169.78Z"/><path class="cls-31" d="M351.4,181.64l-.45-.26a6.72,6.72,0,0,1-3.23-5.09v-23c0-1.78,1.45-2.39,3.23-1.36l.45.26a6.72,6.72,0,0,1,3.23,5.09v23C354.63,182,353.18,182.66,351.4,181.64Z"/><path class="cls-32" d="M371.49,193.23h0a7.19,7.19,0,0,1-3.45-5.45V135.46c0-1.9,1.55-2.56,3.45-1.46h0a7.19,7.19,0,0,1,3.45,5.45v52.32C374.94,193.67,373.39,194.33,371.49,193.23Z"/><path class="cls-33" d="M391.8,205h0a7.19,7.19,0,0,1-3.45-5.45v-60.2c0-1.9,1.55-2.56,3.45-1.46h0a7.19,7.19,0,0,1,3.45,5.45v60.2C395.25,205.4,393.7,206.06,391.8,205Z"/><path class="cls-34" d="M412.11,216.69h0a7.19,7.19,0,0,1-3.45-5.45V172.69c0-1.9,1.55-2.56,3.45-1.46h0a7.19,7.19,0,0,1,3.45,5.45v38.54C415.56,217.13,414,217.78,412.11,216.69Z"/><path class="cls-35" d="M432.5,228.46l-.16-.09A7,7,0,0,1,429,223v-16c0-1.86,1.52-2.5,3.38-1.43l.16.09a7,7,0,0,1,3.38,5.32v16C435.87,228.89,434.35,229.53,432.5,228.46Z"/><path class="cls-22" d="M271.42,145.41l-3-1.71a4.11,4.11,0,0,1-2-3.12h0c0-1.09.89-1.46,2-.84l3,1.71a4.11,4.11,0,0,1,2,3.12h0C273.39,145.66,272.5,146,271.42,145.41Z"/><path class="cls-15" d="M291.73,157.14l-3-1.71a4.11,4.11,0,0,1-2-3.12h0c0-1.09.89-1.46,2-.84l3,1.71a4.11,4.11,0,0,1,2,3.12h0C293.7,157.39,292.81,157.77,291.73,157.14Z"/><path class="cls-22" d="M312,168.86l-3-1.71a4.11,4.11,0,0,1-2-3.12h0c0-1.09.89-1.46,2-.84l3,1.71a4.11,4.11,0,0,1,2,3.12h0C314,169.12,313.12,169.49,312,168.86Z"/><path class="cls-21" d="M332.35,180.59l-3-1.71a4.11,4.11,0,0,1-2-3.12h0c0-1.09.89-1.46,2-.84l3,1.71a4.11,4.11,0,0,1,2,3.12h0C334.32,180.84,333.43,181.22,332.35,180.59Z"/><path class="cls-22" d="M352.66,192.32l-3-1.71a4.11,4.11,0,0,1-2-3.12h0c0-1.09.89-1.46,2-.84l3,1.71a4.11,4.11,0,0,1,2,3.12h0C354.63,192.57,353.74,192.94,352.66,192.32Z"/><path class="cls-21" d="M373,204l-3-1.71a4.11,4.11,0,0,1-2-3.12h0c0-1.09.89-1.46,2-.84l3,1.71a4.11,4.11,0,0,1,2,3.12h0C374.94,204.29,374.05,204.67,373,204Z"/><path class="cls-15" d="M393.28,215.77l-3-1.71a4.11,4.11,0,0,1-2-3.12h0c0-1.09.89-1.46,2-.84l3,1.71a4.11,4.11,0,0,1,2,3.12h0C395.25,216,394.36,216.4,393.28,215.77Z"/><path class="cls-15" d="M413.59,227.49l-3-1.71a4.11,4.11,0,0,1-2-3.12h0c0-1.09.89-1.46,2-.84l3,1.71a4.11,4.11,0,0,1,2,3.12h0C415.56,227.75,414.67,228.12,413.59,227.49Z"/><path class="cls-22" d="M433.9,239.22l-3-1.71a4.11,4.11,0,0,1-2-3.12h0c0-1.09.89-1.46,2-.84l3,1.71a4.11,4.11,0,0,1,2,3.12h0C435.87,239.47,435,239.85,433.9,239.22Z"/><line class="cls-36" x1="468.65" y1="255.76" x2="468.65" y2="273.48"/><line class="cls-36" x1="490.47" y1="251.61" x2="490.47" y2="286.08"/><line class="cls-24" x1="512.3" y1="231.77" x2="512.3" y2="298.68"/><line class="cls-36" x1="534.13" y1="256.72" x2="534.13" y2="311.28"/><line class="cls-36" x1="555.96" y1="288.77" x2="555.96" y2="323.89"/><line class="cls-24" x1="599.61" y1="245.87" x2="599.61" y2="349.09"/><line class="cls-36" x1="621.44" y1="305.25" x2="621.44" y2="361.69"/><line class="cls-24" x1="643.27" y1="324.92" x2="643.27" y2="374.29"/><line class="cls-36" x1="665.1" y1="342.75" x2="665.1" y2="386.9"/><line class="cls-36" x1="686.93" y1="377" x2="686.93" y2="399.5"/><line class="cls-36" x1="577.79" y1="257.93" x2="577.79" y2="336.49"/><path class="cls-15" d="M471.95,288.51l-6.48-3.74a3.56,3.56,0,0,1-1.71-2.7h0c0-.94.77-1.27,1.71-.72l6.48,3.74a3.56,3.56,0,0,1,1.71,2.7h0C473.66,288.73,472.89,289.05,471.95,288.51Z"/><path class="cls-15" d="M493.71,301.07l-6.48-3.74a3.56,3.56,0,0,1-1.71-2.7h0c0-.94.77-1.27,1.71-.72l6.48,3.74a3.56,3.56,0,0,1,1.71,2.7h0C495.42,301.29,494.66,301.62,493.71,301.07Z"/><path class="cls-15" d="M515.54,313.68l-6.48-3.74a3.56,3.56,0,0,1-1.71-2.7h0c0-.94.77-1.27,1.71-.72l6.48,3.74a3.56,3.56,0,0,1,1.71,2.7h0C517.25,313.89,516.48,314.22,515.54,313.68Z"/><path class="cls-15" d="M537.37,326.28l-6.48-3.74a3.56,3.56,0,0,1-1.71-2.7h0c0-.94.77-1.27,1.71-.72l6.48,3.74a3.56,3.56,0,0,1,1.71,2.7h0C539.08,326.5,538.31,326.82,537.37,326.28Z"/><path class="cls-15" d="M559.2,338.88l-6.48-3.74a3.56,3.56,0,0,1-1.71-2.7h0c0-.94.77-1.27,1.71-.72l6.48,3.74a3.56,3.56,0,0,1,1.71,2.7h0C560.91,339.1,560.14,339.42,559.2,338.88Z"/><path class="cls-15" d="M581,351.48l-6.48-3.74a3.56,3.56,0,0,1-1.71-2.7h0c0-.94.77-1.27,1.71-.72l6.48,3.74a3.56,3.56,0,0,1,1.71,2.7h0C582.74,351.7,582,352,581,351.48Z"/><path class="cls-15" d="M602.85,364.09l-6.48-3.74a3.56,3.56,0,0,1-1.71-2.7h0c0-.94.77-1.27,1.71-.72l6.48,3.74a3.56,3.56,0,0,1,1.71,2.7h0C604.56,364.3,603.79,364.63,602.85,364.09Z"/><path class="cls-15" d="M624.68,376.69l-6.48-3.74a3.56,3.56,0,0,1-1.71-2.7h0c0-.94.77-1.27,1.71-.72l6.48,3.74a3.56,3.56,0,0,1,1.71,2.7h0C626.39,376.91,625.62,377.23,624.68,376.69Z"/><path class="cls-15" d="M646.51,389.29,640,385.55a3.56,3.56,0,0,1-1.71-2.7h0c0-.94.77-1.27,1.71-.72l6.48,3.74a3.56,3.56,0,0,1,1.71,2.7h0C648.22,389.51,647.45,389.83,646.51,389.29Z"/><path class="cls-15" d="M668.34,401.89l-6.48-3.74a3.56,3.56,0,0,1-1.71-2.7h0c0-.94.77-1.27,1.71-.72l6.48,3.74a3.56,3.56,0,0,1,1.71,2.7h0C670,402.11,669.28,402.44,668.34,401.89Z"/><path class="cls-15" d="M690.17,414.5l-6.48-3.74a3.56,3.56,0,0,1-1.71-2.7h0c0-.94.77-1.27,1.71-.72l6.48,3.74a3.56,3.56,0,0,1,1.71,2.7h0C691.88,414.71,691.11,415,690.17,414.5Z"/><path class="cls-26" d="M457.41,251.32s20.08,8.83,30.13,2.25c7-4.55,14.81-28.7,29.91-20.56,16.12,8.68,21.2,44,35.08,54.2S577,236.91,597,244.56s18.58,53,27.31,66.49c11.4,17.63,19.33,10.42,31,18.26s11.11,23.9,21.1,36.34,24.24,19.27,24.24,19.27"/><path class="cls-15" d="M516.64,233.86c0,2.39-1.94,3.21-4.33,1.83s-4.33-4.44-4.33-6.84,1.94-3.21,4.33-1.83S516.64,231.46,516.64,233.86Z"/><path class="cls-15" d="M603.95,248.37c0,2.39-1.94,3.21-4.33,1.83s-4.33-4.44-4.33-6.84,1.94-3.21,4.33-1.83S603.95,246,603.95,248.37Z"/><path class="cls-15" d="M647.6,327.42c0,2.39-1.94,3.21-4.33,1.83s-4.33-4.44-4.33-6.84,1.94-3.21,4.33-1.83S647.6,325,647.6,327.42Z"/><path class="cls-15" d="M380.53,273.74,375.79,271a1.77,1.77,0,0,1-.85-1.34v-4.74c0-.47.38-.63.85-.36l4.74,2.74a1.77,1.77,0,0,1,.85,1.34v4.74C381.38,273.84,381,274,380.53,273.74Z"/><path class="cls-15" d="M433.48,357.63l-4.74-2.74a1.77,1.77,0,0,1-.85-1.34v-4.74c0-.47.38-.63.85-.36l4.74,2.74a1.77,1.77,0,0,1,.85,1.34v4.74C434.32,357.74,433.94,357.9,433.48,357.63Z"/><path class="cls-21" d="M415.83,347.44l-4.74-2.74a1.77,1.77,0,0,1-.85-1.34v-4.74c0-.47.38-.63.85-.36l4.74,2.74a1.77,1.77,0,0,1,.85,1.34v4.74C416.68,347.55,416.29,347.71,415.83,347.44Z"/><path class="cls-15" d="M398.18,337.25l-4.74-2.74a1.77,1.77,0,0,1-.85-1.34v-4.74c0-.47.38-.63.85-.36l4.74,2.74a1.77,1.77,0,0,1,.85,1.34v4.74C399,337.36,398.65,337.52,398.18,337.25Z"/><path class="cls-15" d="M380.53,327.06l-4.74-2.74a1.77,1.77,0,0,1-.85-1.34v-4.74c0-.47.38-.63.85-.36l4.74,2.74a1.77,1.77,0,0,1,.85,1.34v4.74C381.38,327.17,381,327.33,380.53,327.06Z"/><path class="cls-21" d="M380.53,309.29l-4.74-2.74a1.77,1.77,0,0,1-.85-1.34v-4.74c0-.47.38-.63.85-.36l4.74,2.74a1.77,1.77,0,0,1,.85,1.34v4.74C381.38,309.39,381,309.55,380.53,309.29Z"/><path class="cls-15" d="M380.53,291.51l-4.74-2.74a1.77,1.77,0,0,1-.85-1.34V282.7c0-.47.38-.63.85-.36l4.74,2.74a1.77,1.77,0,0,1,.85,1.34v4.74C381.38,291.62,381,291.78,380.53,291.51Z"/><path class="cls-15" d="M398.18,319.47l-4.74-2.74a1.77,1.77,0,0,1-.85-1.34v-4.74c0-.47.38-.63.85-.36l4.74,2.74a1.77,1.77,0,0,1,.85,1.34v4.74C399,319.58,398.65,319.74,398.18,319.47Z"/><path class="cls-22" d="M398.18,301.7,393.44,299a1.77,1.77,0,0,1-.85-1.34v-4.74c0-.47.38-.63.85-.36l4.74,2.74a1.77,1.77,0,0,1,.85,1.34v4.74C399,301.81,398.65,302,398.18,301.7Z"/><path class="cls-22" d="M415.83,329.66l-4.74-2.74a1.77,1.77,0,0,1-.85-1.34v-4.74c0-.47.38-.63.85-.36l4.74,2.74a1.77,1.77,0,0,1,.85,1.34v4.74C416.68,329.77,416.29,329.93,415.83,329.66Z"/><path class="cls-15" d="M415.83,311.89l-4.74-2.74a1.77,1.77,0,0,1-.85-1.34v-4.74c0-.47.38-.63.85-.36l4.74,2.74a1.77,1.77,0,0,1,.85,1.34v4.74C416.68,312,416.29,312.16,415.83,311.89Z"/><path class="cls-15" d="M433.48,339.85l-4.74-2.74a1.77,1.77,0,0,1-.85-1.34V331c0-.47.38-.63.85-.36l4.74,2.74a1.77,1.77,0,0,1,.85,1.34v4.74C434.32,340,433.94,340.12,433.48,339.85Z"/><path class="cls-21" d="M433.48,322.08l-4.74-2.74a1.77,1.77,0,0,1-.85-1.34v-4.74c0-.47.38-.63.85-.36l4.74,2.74a1.77,1.77,0,0,1,.85,1.34v4.74C434.32,322.19,433.94,322.35,433.48,322.08Z"/><path class="cls-22" d="M433.48,304.3l-4.74-2.74a1.77,1.77,0,0,1-.85-1.34v-4.74c0-.47.38-.63.85-.36l4.74,2.74a1.77,1.77,0,0,1,.85,1.34v4.74C434.32,304.41,433.94,304.57,433.48,304.3Z"/><path class="cls-15" d="M415.83,294.11l-4.74-2.74a1.77,1.77,0,0,1-.85-1.34V285.3c0-.47.38-.63.85-.36l4.74,2.74a1.77,1.77,0,0,1,.85,1.34v4.74C416.68,294.22,416.29,294.38,415.83,294.11Z"/><path class="cls-15" d="M398.18,283.93l-4.74-2.74a1.77,1.77,0,0,1-.85-1.34v-4.74c0-.47.38-.63.85-.36l4.74,2.74a1.77,1.77,0,0,1,.85,1.34v4.74C399,284,398.65,284.19,398.18,283.93Z"/><path class="cls-19" d="M648.81,505.69c0,9.21,7.46,21,16.67,26.29,6,3.46,11.17,3.45,14.11.4l-14.08-16.74V499s0-.2-.11-.23C656.2,493.46,648.81,496.49,648.81,505.69Z"/><path class="cls-15" d="M665.47,532c-9.21-5.31-16.67-17.09-16.67-26.29s7.39-12.23,16.59-6.92c.06,0,.11.27.11.23v-9.86s0-.2-.11-.23c-14.65-8.46-26.5-3.5-26.5,11.15s11.9,33.36,26.55,41.82c9.51,5.49,17.86,5.28,22.55.46l-8.35-10.07C676.71,535.32,671.47,535.44,665.47,532Z"/><path class="cls-22" d="M665.51,489.14V499c9,5,16.56,16.91,16.56,26.06,0,3.21-.87,5.62-2.45,7.26l8.37,10c2.53-2.6,3.93-6.44,3.93-11.58C691.92,516.18,680.51,498,665.51,489.14Z"/><path class="cls-19" d="M648.81,437.69c0,9.21,7.46,21,16.67,26.29,6,3.46,11.17,3.45,14.11.4l-14.08-16.74V431s0-.2-.11-.23C656.2,425.46,648.81,428.49,648.81,437.69Z"/><path class="cls-15" d="M665.47,464c-9.21-5.31-16.67-17.09-16.67-26.29s7.39-12.23,16.59-6.92c.06,0,.11.27.11.23v-9.86s0-.2-.11-.23c-14.65-8.46-26.5-3.5-26.5,11.15s11.9,33.36,26.55,41.82c9.51,5.49,17.86,5.28,22.55.46l-8.35-10.07C676.71,467.32,671.47,467.44,665.47,464Z"/><path class="cls-21" d="M665.51,421.14V431c9,5,16.56,16.91,16.56,26.06,0,3.21-.87,5.62-2.45,7.26l8.37,10c2.53-2.6,3.93-6.44,3.93-11.58C691.92,448.18,680.51,430,665.51,421.14Z"/><path class="cls-19" d="M329.81,383.69c0,9.21,7.46,21,16.67,26.29,6,3.46,11.17,3.45,14.11.4l-14.08-16.74V377s0-.2-.11-.23C337.2,371.46,329.81,374.49,329.81,383.69Z"/><path class="cls-15" d="M346.47,410c-9.21-5.31-16.67-17.09-16.67-26.29s7.39-12.23,16.59-6.92c.06,0,.11.27.11.23v-9.86s0-.2-.11-.23c-14.65-8.46-26.5-3.5-26.5,11.15s11.9,33.36,26.55,41.82c9.51,5.49,17.86,5.28,22.55.46l-8.35-10.07C357.71,413.32,352.47,413.44,346.47,410Z"/><path class="cls-37" d="M346.51,367.14V377c9,5,16.56,16.91,16.56,26.06,0,3.21-.87,5.62-2.45,7.26l8.37,10c2.53-2.6,3.93-6.44,3.93-11.58C372.92,394.18,361.51,376,346.51,367.14Z"/><path class="cls-11" d="M412.31,549.86,260.88,462.43a14.36,14.36,0,0,0-12.94,0l-44,25.4c-3.56,2.06-3.56,5.42,0,7.47l151.43,87.43a14.36,14.36,0,0,0,12.94,0l44-25.4C415.87,555.28,415.87,551.91,412.31,549.86Z"/><path class="cls-15" d="M230,491.73l-3.75-2.16a1.72,1.72,0,0,0-1.55,0L221,491.73a.47.47,0,0,0,0,.89l3.75,2.16a1.72,1.72,0,0,0,1.55,0l3.75-2.16A.47.47,0,0,0,230,491.73Z"/><path class="cls-15" d="M245.06,500.41l-3.75-2.16a1.72,1.72,0,0,0-1.55,0L236,500.41a.47.47,0,0,0,0,.89l3.75,2.16a1.72,1.72,0,0,0,1.55,0l3.75-2.16A.47.47,0,0,0,245.06,500.41Z"/><path class="cls-15" d="M260.1,509.09l-3.75-2.16a1.72,1.72,0,0,0-1.55,0l-3.75,2.16a.47.47,0,0,0,0,.89l3.75,2.16a1.72,1.72,0,0,0,1.55,0L260.1,510A.47.47,0,0,0,260.1,509.09Z"/><path class="cls-15" d="M275.13,517.76l-3.75-2.16a1.72,1.72,0,0,0-1.55,0l-3.75,2.16a.47.47,0,0,0,0,.89l3.75,2.16a1.72,1.72,0,0,0,1.55,0l3.75-2.16A.47.47,0,0,0,275.13,517.76Z"/><path class="cls-15" d="M290.16,526.44l-3.75-2.16a1.72,1.72,0,0,0-1.55,0l-3.75,2.16a.47.47,0,0,0,0,.89l3.75,2.16a1.72,1.72,0,0,0,1.55,0l3.75-2.16A.47.47,0,0,0,290.16,526.44Z"/><path class="cls-15" d="M305.19,535.12,301.44,533a1.72,1.72,0,0,0-1.55,0l-3.75,2.16a.47.47,0,0,0,0,.89l3.75,2.16a1.72,1.72,0,0,0,1.55,0l3.75-2.16A.47.47,0,0,0,305.19,535.12Z"/><path class="cls-15" d="M320.22,543.8l-3.75-2.16a1.72,1.72,0,0,0-1.55,0l-3.75,2.16a.47.47,0,0,0,0,.89l3.75,2.16a1.72,1.72,0,0,0,1.55,0l3.75-2.16A.47.47,0,0,0,320.22,543.8Z"/><path class="cls-15" d="M335.25,552.47l-3.75-2.16a1.72,1.72,0,0,0-1.55,0l-3.75,2.16a.47.47,0,0,0,0,.89l3.75,2.16a1.72,1.72,0,0,0,1.55,0l3.75-2.16A.47.47,0,0,0,335.25,552.47Z"/><path class="cls-15" d="M350.28,561.15,346.53,559a1.72,1.72,0,0,0-1.55,0l-3.75,2.16a.47.47,0,0,0,0,.89l3.75,2.16a1.72,1.72,0,0,0,1.55,0l3.75-2.16A.47.47,0,0,0,350.28,561.15Z"/><path class="cls-15" d="M365.31,569.83l-3.75-2.16a1.72,1.72,0,0,0-1.55,0l-3.75,2.16a.47.47,0,0,0,0,.89l3.75,2.16a1.72,1.72,0,0,0,1.55,0l3.75-2.16A.47.47,0,0,0,365.31,569.83Z"/><path class="cls-15" d="M260.93,473.89l-3.75-2.16a1.72,1.72,0,0,0-1.55,0l-3.75,2.16a.47.47,0,0,0,0,.89l3.75,2.16a1.72,1.72,0,0,0,1.55,0l3.75-2.16A.47.47,0,0,0,260.93,473.89Z"/><path class="cls-15" d="M245,483.08l-3.75-2.16a1.72,1.72,0,0,0-1.55,0L236,483.08a.47.47,0,0,0,0,.89l3.75,2.16a1.72,1.72,0,0,0,1.55,0L245,484A.47.47,0,0,0,245,483.08Z"/><path class="cls-15" d="M276,482.57l-3.75-2.16a1.72,1.72,0,0,0-1.55,0l-3.75,2.16a.47.47,0,0,0,0,.89l3.75,2.16a1.72,1.72,0,0,0,1.55,0l3.75-2.16A.47.47,0,0,0,276,482.57Z"/><path class="cls-15" d="M291,491.25l-3.75-2.16a1.72,1.72,0,0,0-1.55,0L282,491.25a.47.47,0,0,0,0,.89l3.75,2.16a1.72,1.72,0,0,0,1.55,0l3.75-2.16A.47.47,0,0,0,291,491.25Z"/><path class="cls-15" d="M306,499.93l-3.75-2.16a1.72,1.72,0,0,0-1.55,0L297,499.93a.47.47,0,0,0,0,.89l3.75,2.16a1.72,1.72,0,0,0,1.55,0l3.75-2.16A.47.47,0,0,0,306,499.93Z"/><path class="cls-15" d="M321.05,508.6l-3.75-2.16a1.72,1.72,0,0,0-1.55,0L312,508.6a.47.47,0,0,0,0,.89l3.75,2.16a1.72,1.72,0,0,0,1.55,0l3.75-2.16A.47.47,0,0,0,321.05,508.6Z"/><path class="cls-15" d="M336.08,517.28l-3.75-2.16a1.72,1.72,0,0,0-1.55,0L327,517.28a.47.47,0,0,0,0,.89l3.75,2.16a1.72,1.72,0,0,0,1.55,0l3.75-2.16A.47.47,0,0,0,336.08,517.28Z"/><path class="cls-15" d="M351.11,526l-3.75-2.16a1.72,1.72,0,0,0-1.55,0L342.07,526a.47.47,0,0,0,0,.89l3.75,2.16a1.72,1.72,0,0,0,1.55,0l3.75-2.16A.47.47,0,0,0,351.11,526Z"/><path class="cls-15" d="M366.14,534.64l-3.75-2.16a1.72,1.72,0,0,0-1.55,0l-3.75,2.16a.47.47,0,0,0,0,.89l3.75,2.16a1.72,1.72,0,0,0,1.55,0l3.75-2.16A.47.47,0,0,0,366.14,534.64Z"/><path class="cls-15" d="M381.17,543.31l-3.75-2.16a1.72,1.72,0,0,0-1.55,0l-3.75,2.16a.47.47,0,0,0,0,.89l3.75,2.16a1.72,1.72,0,0,0,1.55,0l3.75-2.16A.47.47,0,0,0,381.17,543.31Z"/><path class="cls-15" d="M396.2,552l-3.75-2.16a1.72,1.72,0,0,0-1.55,0L387.16,552a.47.47,0,0,0,0,.89l3.75,2.16a1.72,1.72,0,0,0,1.55,0l3.75-2.16A.47.47,0,0,0,396.2,552Z"/><path class="cls-15" d="M260,491.76l-3.75-2.16a1.72,1.72,0,0,0-1.55,0L251,491.76a.47.47,0,0,0,0,.89l3.75,2.16a1.72,1.72,0,0,0,1.55,0l3.75-2.16A.47.47,0,0,0,260,491.76Z"/><path class="cls-15" d="M275.07,500.44l-3.75-2.16a1.72,1.72,0,0,0-1.55,0L266,500.44a.47.47,0,0,0,0,.89l3.75,2.16a1.72,1.72,0,0,0,1.55,0l3.75-2.16A.47.47,0,0,0,275.07,500.44Z"/><path class="cls-15" d="M290.11,509.11,286.36,507a1.72,1.72,0,0,0-1.55,0l-3.75,2.16a.47.47,0,0,0,0,.89l3.75,2.16a1.72,1.72,0,0,0,1.55,0l3.75-2.16A.47.47,0,0,0,290.11,509.11Z"/><path class="cls-15" d="M305.14,517.79l-3.75-2.16a1.72,1.72,0,0,0-1.55,0l-3.75,2.16a.47.47,0,0,0,0,.89l3.75,2.16a1.72,1.72,0,0,0,1.55,0l3.75-2.16A.47.47,0,0,0,305.14,517.79Z"/><path class="cls-15" d="M320.17,526.47l-3.75-2.16a1.72,1.72,0,0,0-1.55,0l-3.75,2.16a.47.47,0,0,0,0,.89l3.75,2.16a1.72,1.72,0,0,0,1.55,0l3.75-2.16A.47.47,0,0,0,320.17,526.47Z"/><path class="cls-15" d="M335.2,535.15,331.45,533a1.72,1.72,0,0,0-1.55,0l-3.75,2.16a.47.47,0,0,0,0,.89l3.75,2.16a1.72,1.72,0,0,0,1.55,0L335.2,536A.47.47,0,0,0,335.2,535.15Z"/><path class="cls-15" d="M350.23,543.83l-3.75-2.16a1.72,1.72,0,0,0-1.55,0l-3.75,2.16a.47.47,0,0,0,0,.89l3.75,2.16a1.72,1.72,0,0,0,1.55,0l3.75-2.16A.47.47,0,0,0,350.23,543.83Z"/><path class="cls-15" d="M365.26,552.5l-3.75-2.16a1.72,1.72,0,0,0-1.55,0l-3.75,2.16a.47.47,0,0,0,0,.89l3.75,2.16a1.72,1.72,0,0,0,1.55,0l3.75-2.16A.47.47,0,0,0,365.26,552.5Z"/><path class="cls-15" d="M380.29,561.18,376.54,559a1.72,1.72,0,0,0-1.55,0l-3.75,2.16a.47.47,0,0,0,0,.89l3.75,2.16a1.72,1.72,0,0,0,1.55,0l3.75-2.16A.47.47,0,0,0,380.29,561.18Z"/><polygon class="cls-38" points="508.7 601.37 502.26 605.09 502.26 528.31 508.7 524.59 508.7 601.37"/><polygon class="cls-39" points="495.82 601.37 502.26 605.09 502.26 528.31 495.82 524.59 495.82 601.37"/></g></g></svg>