<svg xmlns="http://www.w3.org/2000/svg" xmlns:xlink="http://www.w3.org/1999/xlink" viewBox="0 0 771.71 824.46"><defs><style>.cls-1,.cls-14,.cls-18,.cls-19,.cls-2,.cls-24{fill:none;}.cls-1,.cls-18{stroke:#c3cde0;}.cls-1,.cls-18,.cls-24{stroke-linecap:round;stroke-linejoin:round;}.cls-2{stroke:#e2ecf2;stroke-width:3px;stroke-dasharray:12 12;}.cls-19,.cls-2{stroke-miterlimit:10;}.cls-3,.cls-4{opacity:0.85;}.cls-3{fill:url(#linear-gradient);}.cls-4{fill:url(#linear-gradient-2);}.cls-5{fill:url(#linear-gradient-3);}.cls-6{fill:url(#linear-gradient-4);}.cls-7{fill:url(#linear-gradient-5);}.cls-8{fill:url(#linear-gradient-6);}.cls-9{fill:url(#linear-gradient-7);}.cls-10{opacity:0.4;fill:url(#linear-gradient-8);}.cls-11{fill:#fff;}.cls-12{fill:#dcdcf4;}.cls-13{fill:#363649;}.cls-15{fill:#f5ce2f;}.cls-16{fill:#f1406a;}.cls-17{fill:#c8c8e8;}.cls-18,.cls-19,.cls-24{stroke-width:2px;}.cls-18{stroke-dasharray:2 6;}.cls-19{stroke:#f36;}.cls-20{fill:url(#linear-gradient-9);}.cls-21{fill:#2a6fe8;}.cls-22{fill:url(#linear-gradient-10);}.cls-23{fill:url(#linear-gradient-11);}.cls-24{stroke:#dcdcf4;}</style><linearGradient id="linear-gradient" x1="46" y1="298.57" x2="294.99" y2="298.57" gradientUnits="userSpaceOnUse"><stop offset="0" stop-color="#8cffff"/><stop offset="1" stop-color="#3f6cff"/></linearGradient><linearGradient id="linear-gradient-2" x1="99.17" y1="330.53" x2="348.17" y2="330.53" xlink:href="#linear-gradient"/><linearGradient id="linear-gradient-3" x1="182.25" y1="629.3" x2="639.77" y2="629.3" gradientUnits="userSpaceOnUse"><stop offset="0" stop-color="#cdcdf4"/><stop offset="1" stop-color="#d7d7ff"/></linearGradient><linearGradient id="linear-gradient-4" x1="224.52" y1="620.43" x2="681.91" y2="609.36" gradientUnits="userSpaceOnUse"><stop offset="0" stop-color="#d6d7f4"/><stop offset="1" stop-color="#f6f6ff"/></linearGradient><linearGradient id="linear-gradient-5" x1="136.88" y1="453.61" x2="411.49" y2="453.61" xlink:href="#linear-gradient-4"/><linearGradient id="linear-gradient-6" x1="408.95" y1="449.16" x2="160.78" y2="462.15" gradientUnits="userSpaceOnUse"><stop offset="0" stop-color="#e6e6f4"/><stop offset="1" stop-color="#f6f6ff"/></linearGradient><linearGradient id="linear-gradient-7" x1="161.18" y1="455.37" x2="396.96" y2="455.37" gradientUnits="userSpaceOnUse"><stop offset="0" stop-color="#7a30b4"/><stop offset="1" stop-color="#4458e2"/></linearGradient><linearGradient id="linear-gradient-8" x1="141.75" y1="244.16" x2="318.68" y2="244.16" gradientUnits="userSpaceOnUse"><stop offset="0" stop-color="#1a268f"/><stop offset="1" stop-color="#4458e2"/></linearGradient><linearGradient id="linear-gradient-9" x1="677.39" y1="416.36" x2="604.02" y2="550.96" gradientUnits="userSpaceOnUse"><stop offset="0" stop-color="#f1406a"/><stop offset="1" stop-color="#ff7db6" stop-opacity="0"/></linearGradient><linearGradient id="linear-gradient-10" x1="495.16" y1="-398.52" x2="677.78" y2="-503.22" gradientTransform="matrix(1, 0.58, 0, 1, 0, 423.45)" xlink:href="#linear-gradient-6"/><linearGradient id="linear-gradient-11" x1="523.52" y1="-541.49" x2="725.6" y2="-541.49" gradientTransform="matrix(1, 0.58, 0, 1, 0, 423.45)" xlink:href="#linear-gradient-7"/></defs><title>Ресурс 4</title><g id="Слой_2" data-name="Слой 2"><g id="_3.2" data-name="3.2"><path class="cls-1" d="M695.5,618.71,343.35,823.11a6.27,6.27,0,0,1-6.28,0L91.56,682a6.27,6.27,0,0,1,0-10.87L444.72,467a6.27,6.27,0,0,1,6.27,0L695.48,607.85A6.27,6.27,0,0,1,695.5,618.71Z"/><line class="cls-1" x1="487.58" y1="739.56" x2="229.43" y2="591.35"/><line class="cls-1" x1="521.58" y1="719.56" x2="263.43" y2="571.35"/><line class="cls-1" x1="560.58" y1="696.56" x2="302.43" y2="548.35"/><line class="cls-1" x1="595.58" y1="676.56" x2="337.43" y2="528.35"/><line class="cls-1" x1="378.58" y1="802.56" x2="120.43" y2="654.35"/><line class="cls-1" x1="412.58" y1="782.56" x2="154.79" y2="634.56"/><line class="cls-1" x1="451.58" y1="759.56" x2="194.19" y2="611.79"/><line class="cls-1" x1="633.58" y1="654.56" x2="375.43" y2="506.35"/><line class="cls-1" x1="668.58" y1="634.56" x2="410.43" y2="486.35"/><line class="cls-1" x1="303.21" y1="803.56" x2="668.83" y2="592.49"/><line class="cls-1" x1="265.21" y1="781.56" x2="630.83" y2="570.49"/><line class="cls-1" x1="229.21" y1="760.56" x2="594.08" y2="549.93"/><line class="cls-1" x1="192.21" y1="739.56" x2="557.78" y2="528.52"/><line class="cls-1" x1="156.21" y1="718.56" x2="521.17" y2="507.87"/><line class="cls-1" x1="118.21" y1="696.56" x2="482.9" y2="485.76"/><path class="cls-2" d="M246.71,418.52l-234,133.09A7.49,7.49,0,0,1,1.5,545.11v-403a7.49,7.49,0,0,1,3.79-6.51L239.3,2.49A7.49,7.49,0,0,1,250.49,9V412A7.49,7.49,0,0,1,246.71,418.52Z"/><path class="cls-3" d="M291.21,440l-234,133.09A7.49,7.49,0,0,1,46,566.62v-403a7.49,7.49,0,0,1,3.79-6.51L283.8,24A7.49,7.49,0,0,1,295,30.51v403A7.49,7.49,0,0,1,291.21,440Z"/><path class="cls-4" d="M344.39,472,110.32,605.12a7.46,7.46,0,0,1-11.15-6.48V195.55a7.46,7.46,0,0,1,3.77-6.48L337,55.94a7.46,7.46,0,0,1,11.15,6.48V465.51A7.46,7.46,0,0,1,344.39,472Z"/><polygon class="cls-5" points="603.21 608.03 337.6 761.37 145.68 650.57 145.88 638.19 411.29 497.22 603.21 595.53 603.21 608.03"/><polygon class="cls-6" points="603.21 595.53 337.6 748.88 145.68 638.07 411.29 484.72 603.21 595.53"/><polygon class="cls-7" points="402.49 480.22 145.68 638.07 136.88 633.56 136.88 422.5 402.49 269.15 411.49 273.77 402.49 480.22"/><polygon class="cls-8" points="411.49 484.84 145.88 638.19 145.88 427.12 411.49 273.77 411.49 484.84"/><polygon class="cls-9" points="396.96 474.98 161.18 610.79 161.18 435.76 396.96 299.95 396.96 474.98"/><path class="cls-10" d="M316.08,276.88,149.55,373a5.2,5.2,0,0,1-7.81-4.51V216a5.2,5.2,0,0,1,2.6-4.51L310.87,115.3a5.2,5.2,0,0,1,7.81,4.51V272.38A5.2,5.2,0,0,1,316.08,276.88Z"/><polygon class="cls-11" points="255.24 258.53 221.31 230.98 187.38 297.71 255.24 258.53"/><polygon class="cls-11" points="268.78 250.72 248.4 235.19 228.01 274.26 268.78 250.72"/><path class="cls-11" d="M273.47,195.88c0,5-4.08,11.47-9.11,14.38s-9.11,1.18-9.11-3.85,4.08-11.47,9.11-14.38S273.47,190.85,273.47,195.88Z"/><polygon class="cls-11" points="255.24 534.67 180.49 578.03 180.49 451.24 255.24 407.88 255.24 534.67"/><polygon class="cls-11" points="378.97 462 304.21 505.35 304.21 378.56 378.97 335.2 378.97 462"/><polygon class="cls-12" points="237.62 461.94 198.11 484.75 198.11 459.8 237.62 436.99 237.62 461.94"/><polygon class="cls-12" points="363.63 388 324.12 410.81 324.12 385.86 363.63 363.05 363.63 388"/><path class="cls-13" d="M235,520.76v5.62l-24.3,14v-5.62l8.9-5.14V504q0-1.52.09-3.18l-6.32,8.93a5.87,5.87,0,0,1-1.08,1.16,4,4,0,0,1-1,.59,2.08,2.08,0,0,1-.83.16.85.85,0,0,1-.55-.19l-2.37-1.88L221,490.52l6.17-3.56v38.36Z"/><path class="cls-13" d="M356.3,448.25a2.36,2.36,0,0,1,1.93-.43q.71.27.71,1.4v4.5l-30.13,17.4v-2.49a6.09,6.09,0,0,1,.32-1.78,8.5,8.5,0,0,1,1-2.09l13.33-21.06q1.67-2.66,3-5a44.82,44.82,0,0,0,2.2-4.34A25.87,25.87,0,0,0,350,430.5a14.34,14.34,0,0,0,.47-3.57,5.82,5.82,0,0,0-.46-2.52,2.46,2.46,0,0,0-1.29-1.28,3.34,3.34,0,0,0-2-.07,9.71,9.71,0,0,0-2.63,1.11,14.25,14.25,0,0,0-2.48,1.81,15.42,15.42,0,0,0-3.51,4.68,12.55,12.55,0,0,0-.91,2.53,7,7,0,0,1-1.34,2.62,6.42,6.42,0,0,1-2.37,1.58L329.57,439a25.88,25.88,0,0,1,1.76-6.56,29.3,29.3,0,0,1,3.26-5.86,30.89,30.89,0,0,1,4.5-5,32.64,32.64,0,0,1,5.45-4,20,20,0,0,1,5.56-2.31,8,8,0,0,1,4.31,0,5,5,0,0,1,2.79,2.34,9,9,0,0,1,1,4.55,17.67,17.67,0,0,1-.71,4.91,34.88,34.88,0,0,1-1.91,5.05,57.78,57.78,0,0,1-2.81,5.27q-1.61,2.69-3.37,5.53l-9.9,15.83q1.43-1.25,2.84-2.29a28.89,28.89,0,0,1,2.69-1.78Z"/><path class="cls-14" d="M259.29,473.91c0,12.31,10,16.52,22.28,9.42,8-4.63,14.94-12.91,18.86-21.52l-18.82-.93V438.63s-.06.09-.14.13C269.17,445.86,259.29,461.6,259.29,473.91Z"/><path class="cls-15" d="M281.58,483.32c-12.31,7.11-22.28,2.89-22.28-9.42s9.88-28,22.19-35.15c.08,0,.14-.09.14-.13V425.44s-.06.09-.14.13c-19.59,11.31-35.42,36.36-35.42,56s15.91,26.3,35.5,15c12.72-7.34,23.88-20.48,30.14-34.16l-11.17-.55C296.6,470.42,289.59,478.7,281.58,483.32Z"/><path class="cls-16" d="M281.62,425.44v13.19c12-6.91,22.14-2.68,22.14,9.55a33.51,33.51,0,0,1-3.28,13.63l11.2.55a53.42,53.42,0,0,0,5.26-21.8C316.94,421.05,300.62,414.32,281.62,425.44Z"/><path class="cls-17" d="M476.92,639.54,411.35,677.4a2.55,2.55,0,0,1-2.55,0l-37.43-21.61a2.55,2.55,0,0,1,0-4.42l65.58-37.86a2.55,2.55,0,0,1,2.55,0l37.43,21.61A2.55,2.55,0,0,1,476.92,639.54Z"/><polygon class="cls-17" points="225.29 629.92 210.31 638.58 195.32 629.92 210.31 621.27 225.29 629.92"/><polygon class="cls-17" points="244.33 640.92 229.35 649.57 214.36 640.92 229.35 632.27 244.33 640.92"/><polygon class="cls-17" points="263.38 651.91 248.39 660.56 233.41 651.91 248.39 643.26 263.38 651.91"/><polygon class="cls-17" points="267.43 671.56 252.45 662.91 267.43 654.25 282.42 662.91 267.43 671.56"/><polygon class="cls-17" points="286.48 682.55 271.49 673.9 286.48 665.25 301.46 673.9 286.48 682.55"/><polygon class="cls-17" points="244.37 618.91 229.39 627.56 214.4 618.91 229.39 610.25 244.37 618.91"/><polygon class="cls-17" points="263.42 629.9 248.43 638.55 233.44 629.9 248.43 621.25 263.42 629.9"/><polygon class="cls-17" points="282.46 640.89 267.47 649.55 252.49 640.89 267.47 632.24 282.46 640.89"/><polygon class="cls-17" points="286.52 660.54 271.53 651.89 286.52 643.24 301.5 651.89 286.52 660.54"/><polygon class="cls-17" points="305.56 671.54 290.57 662.88 305.56 654.23 320.54 662.88 305.56 671.54"/><polygon class="cls-17" points="263.45 607.89 248.47 616.54 233.48 607.89 248.47 599.24 263.45 607.89"/><polygon class="cls-17" points="282.5 618.88 267.51 627.54 252.53 618.88 267.51 610.23 282.5 618.88"/><polygon class="cls-17" points="301.54 629.88 286.56 638.53 271.57 629.88 286.56 621.23 301.54 629.88"/><polygon class="cls-17" points="305.6 649.52 290.61 640.87 305.6 632.22 320.58 640.87 305.6 649.52"/><polygon class="cls-17" points="324.64 660.52 309.65 651.87 324.64 643.22 339.63 651.87 324.64 660.52"/><polygon class="cls-17" points="282.54 596.87 267.55 605.52 252.56 596.87 267.55 588.22 282.54 596.87"/><polygon class="cls-17" points="301.58 607.87 286.59 616.52 271.61 607.87 286.59 599.22 301.58 607.87"/><polygon class="cls-17" points="320.62 618.86 305.64 627.51 290.65 618.86 305.64 610.21 320.62 618.86"/><polygon class="cls-17" points="324.68 638.51 309.69 629.86 324.68 621.2 339.67 629.86 324.68 638.51"/><polygon class="cls-17" points="343.72 649.5 328.74 640.85 343.72 632.2 358.71 640.85 343.72 649.5"/><polygon class="cls-17" points="301.62 585.86 286.63 594.51 271.65 585.86 286.63 577.2 301.62 585.86"/><polygon class="cls-17" points="320.66 596.85 305.68 605.5 290.69 596.85 305.68 588.2 320.66 596.85"/><polygon class="cls-17" points="339.7 607.85 324.72 616.5 309.73 607.85 324.72 599.19 339.7 607.85"/><polygon class="cls-17" points="343.76 627.49 328.78 618.84 343.76 610.19 358.75 618.84 343.76 627.49"/><polygon class="cls-17" points="362.8 638.49 347.82 629.83 362.8 621.18 377.79 629.83 362.8 638.49"/><polygon class="cls-17" points="320.7 574.84 305.71 583.49 290.73 574.84 305.71 566.19 320.7 574.84"/><polygon class="cls-17" points="339.74 585.83 324.76 594.49 309.77 585.83 324.76 577.18 339.74 585.83"/><polygon class="cls-17" points="358.79 596.83 343.8 605.48 328.81 596.83 343.8 588.18 358.79 596.83"/><polygon class="cls-17" points="362.84 616.47 347.86 607.82 362.84 599.17 377.83 607.82 362.84 616.47"/><polygon class="cls-17" points="381.88 627.47 366.9 618.82 381.88 610.16 396.87 618.82 381.88 627.47"/><polygon class="cls-17" points="339.78 563.82 324.8 572.47 309.81 563.82 324.8 555.17 339.78 563.82"/><polygon class="cls-17" points="358.82 574.82 343.84 583.47 328.85 574.82 343.84 566.16 358.82 574.82"/><polygon class="cls-17" points="377.87 585.81 362.88 594.46 347.9 585.81 362.88 577.16 377.87 585.81"/><polygon class="cls-17" points="381.92 605.46 366.94 596.8 381.92 588.15 396.91 596.8 381.92 605.46"/><polygon class="cls-17" points="400.97 616.45 385.98 607.8 400.97 599.15 415.95 607.8 400.97 616.45"/><polygon class="cls-17" points="358.86 552.8 343.88 561.46 328.89 552.8 343.88 544.15 358.86 552.8"/><polygon class="cls-17" points="377.9 563.8 362.92 572.45 347.94 563.8 362.92 555.15 377.9 563.8"/><polygon class="cls-17" points="396.95 574.79 381.96 583.45 366.98 574.79 381.96 566.14 396.95 574.79"/><polygon class="cls-17" points="401.01 594.44 386.02 585.79 401.01 577.14 415.99 585.79 401.01 594.44"/><polygon class="cls-17" points="420.05 605.43 405.06 596.78 420.05 588.13 435.03 596.78 420.05 605.43"/><polygon class="cls-17" points="377.94 541.79 362.96 550.44 347.97 541.79 362.96 533.14 377.94 541.79"/><polygon class="cls-17" points="396.99 552.78 382 561.43 367.02 552.78 382 544.13 396.99 552.78"/><polygon class="cls-17" points="416.03 563.78 401.04 572.43 386.06 563.78 401.04 555.13 416.03 563.78"/><polygon class="cls-17" points="420.09 583.42 405.1 574.77 420.09 566.12 435.07 574.77 420.09 583.42"/><polygon class="cls-17" points="439.13 594.42 424.14 585.77 439.13 577.12 454.12 585.77 439.13 594.42"/><polygon class="cls-17" points="397.03 530.77 382.04 539.42 367.06 530.77 382.04 522.12 397.03 530.77"/><polygon class="cls-17" points="416.07 541.77 401.08 550.42 386.1 541.77 401.08 533.12 416.07 541.77"/><polygon class="cls-17" points="435.11 552.76 420.13 561.41 405.14 552.76 420.13 544.11 435.11 552.76"/><polygon class="cls-17" points="439.17 572.41 424.18 563.75 439.17 555.1 454.15 563.75 439.17 572.41"/><polygon class="cls-17" points="458.21 583.4 443.23 574.75 458.21 566.1 473.2 574.75 458.21 583.4"/><polygon class="cls-17" points="416.11 519.75 401.12 528.41 386.14 519.75 401.12 511.1 416.11 519.75"/><polygon class="cls-17" points="435.15 530.75 420.17 539.4 405.18 530.75 420.17 522.1 435.15 530.75"/><polygon class="cls-17" points="454.19 541.74 439.21 550.4 424.22 541.74 439.21 533.09 454.19 541.74"/><polygon class="cls-17" points="458.25 561.39 443.26 552.74 458.25 544.09 473.24 552.74 458.25 561.39"/><polygon class="cls-17" points="477.29 572.38 462.31 563.73 477.29 555.08 492.28 563.73 477.29 572.38"/><line class="cls-18" x1="447.88" y1="435.24" x2="447.88" y2="465.14"/><line class="cls-18" x1="469.4" y1="427.16" x2="469.4" y2="477.57"/><line class="cls-18" x1="490.92" y1="431.75" x2="490.92" y2="490"/><line class="cls-18" x1="512.45" y1="450.19" x2="512.45" y2="502.42"/><line class="cls-18" x1="533.97" y1="461.95" x2="533.97" y2="514.85"/><line class="cls-18" x1="555.49" y1="442.13" x2="555.49" y2="527.27"/><line class="cls-18" x1="577.01" y1="440.13" x2="577.01" y2="539.7"/><line class="cls-18" x1="598.53" y1="481.18" x2="598.53" y2="552.12"/><line class="cls-18" x1="620.06" y1="517.45" x2="620.06" y2="564.55"/><line class="cls-18" x1="641.58" y1="514.12" x2="641.58" y2="576.98"/><line class="cls-18" x1="663.1" y1="515.13" x2="663.1" y2="589.4"/><line class="cls-18" x1="684.62" y1="545.55" x2="684.62" y2="601.83"/><line class="cls-18" x1="727.67" y1="580.67" x2="727.67" y2="626.68"/><line class="cls-18" x1="706.14" y1="574.58" x2="706.14" y2="614.25"/><line class="cls-18" x1="749.19" y1="593.42" x2="749.19" y2="639.1"/><line class="cls-18" x1="770.71" y1="621.62" x2="770.71" y2="651.53"/><path class="cls-19" d="M447.88,435.24s15-12.46,35-6.62,21.37,18.2,41.6,30.83,26.78-30.52,48.73-21.66,26.08,64.21,41.36,76.85,27.15-10.82,49.11.43,19.86,43.27,34.18,54.4,21,6.29,38,14.26c20.22,9.43,34.11,38.95,34.11,38.95"/><path class="cls-20" d="M769.62,649.56V622.67s-13.69-29.51-33.91-38.95c-17.08-8-23.52-3.12-37.84-14.25s-12.23-43.15-34.19-54.4-33.84,12.22-49.11-.42-19.41-68-41.37-76.83-28.53,34.33-48.76,21.69-21.63-24.93-41.68-30.77-35.14,6.73-35.14,6.73v29.09"/><path class="cls-21" d="M581.35,442.63c0,2.39-1.94,3.21-4.33,1.83s-4.33-4.44-4.33-6.84,1.94-3.21,4.33-1.83S581.35,440.23,581.35,442.63Z"/><path class="cls-21" d="M495.26,435c0,2.39-1.94,3.21-4.33,1.83s-4.33-4.44-4.33-6.84,1.94-3.21,4.33-1.83S495.26,432.58,495.26,435Z"/><path class="cls-21" d="M624.39,520c0,2.39-1.94,3.21-4.33,1.83s-4.33-4.44-4.33-6.84,1.94-3.21,4.33-1.83S624.39,517.56,624.39,520Z"/><path class="cls-21" d="M732,583.17c0,2.39-1.94,3.21-4.33,1.83s-4.33-4.44-4.33-6.84,1.94-3.21,4.33-1.83S732,580.78,732,583.17Z"/><path class="cls-22" d="M715.33,441.45,533.79,336.63c-5.65-3.26-10.27-10.55-10.27-16.2V185.56c0-5.65,4.62-7.6,10.27-4.34L715.33,286c5.65,3.26,10.27,10.55,10.27,16.2V437.11C725.6,442.76,721,444.71,715.33,441.45Z"/><path class="cls-23" d="M523.52,193.14v-8.36c0-5.22,4.71-6.77,10.48-3.44L715.12,285.92c5.76,3.33,10.48,10.32,10.48,15.54v8.36Z"/><line class="cls-24" x1="606.99" y1="260.38" x2="707.11" y2="318.18"/><line class="cls-24" x1="606.99" y1="271.49" x2="707.11" y2="329.29"/><line class="cls-24" x1="606.99" y1="282.6" x2="707.11" y2="340.4"/><line class="cls-18" x1="540.97" y1="298.02" x2="593.8" y2="328.53"/><line class="cls-18" x1="540.97" y1="309.13" x2="593.8" y2="339.64"/><line class="cls-18" x1="540.97" y1="320.24" x2="593.8" y2="350.75"/><path class="cls-11" d="M538.91,193.1c0,2-1.58,2.62-3.54,1.5a7.34,7.34,0,0,1-3.54-5.58c0-2,1.58-2.62,3.54-1.5A7.34,7.34,0,0,1,538.91,193.1Z"/><path class="cls-11" d="M550.42,199.75c0,2-1.58,2.62-3.54,1.5a7.34,7.34,0,0,1-3.54-5.58c0-2,1.58-2.62,3.54-1.5A7.34,7.34,0,0,1,550.42,199.75Z"/><path class="cls-11" d="M561.93,206.39c0,2-1.58,2.62-3.54,1.5a7.34,7.34,0,0,1-3.54-5.58c0-2,1.58-2.62,3.54-1.5A7.34,7.34,0,0,1,561.93,206.39Z"/><path class="cls-15" d="M590.12,313.38l-45.47-26.25a7.67,7.67,0,0,1-3.69-5.81V225.94c0-2,1.66-2.73,3.69-1.56l45.47,26.25a7.67,7.67,0,0,1,3.69,5.81v55.38C593.8,313.85,592.15,314.55,590.12,313.38Z"/><path class="cls-16" d="M704.66,414.75,609.75,360a6.84,6.84,0,0,1-3.29-5.18V299.08c0-1.81,1.48-2.43,3.29-1.39l94.91,54.79a6.84,6.84,0,0,1,3.29,5.18v55.69C707.94,415.17,706.46,415.79,704.66,414.75Z"/><path class="cls-11" d="M575.43,261.6c0,4.6-3.73,6.18-8.34,3.52s-8.34-8.55-8.34-13.15,3.73-6.18,8.34-3.52S575.43,257,575.43,261.6Z"/><path class="cls-11" d="M585,298.38c0-9.75-7.9-22.22-17.65-27.85s-17.65-2.29-17.65,7.46Z"/><polygon class="cls-11" points="659.73 367.11 659.37 367.4 648.52 345.73 631.89 359.23 653.59 371.75 665.15 378.43 676.72 385.11 665.15 362.44 659.73 367.11"/><path class="cls-11" d="M674.05,347.75c-2.86-1.65-5.17-.67-5.17,2.19s2.32,6.51,5.17,8.16,5.17.67,5.17-2.19S676.91,349.39,674.05,347.75Z"/></g></g></svg>