<svg xmlns="http://www.w3.org/2000/svg" xmlns:xlink="http://www.w3.org/1999/xlink" viewBox="0 0 815.11 597.12"><defs><style>.cls-1,.cls-19,.cls-21,.cls-26{fill:none;stroke-linecap:round;}.cls-1,.cls-26{stroke:#c3cde0;}.cls-1,.cls-21,.cls-26{stroke-linejoin:round;}.cls-2{fill:#dcdcf4;}.cls-3{fill:url(#linear-gradient);}.cls-4{fill:url(#linear-gradient-2);}.cls-5{fill:url(#linear-gradient-3);}.cls-6{fill:url(#linear-gradient-4);}.cls-7{fill:url(#linear-gradient-5);}.cls-8{fill:#fff;}.cls-9{fill:url(#linear-gradient-6);}.cls-10{fill:#23345c;}.cls-11{fill:#f1406a;}.cls-12{fill:url(#linear-gradient-7);}.cls-13{fill:url(#linear-gradient-8);}.cls-14{fill:url(#linear-gradient-9);}.cls-15{fill:url(#linear-gradient-10);}.cls-16{fill:url(#linear-gradient-11);}.cls-17{fill:#f5ce2f;}.cls-18{fill:url(#linear-gradient-12);}.cls-19{stroke:#cdcde8;stroke-miterlimit:10;}.cls-19,.cls-21,.cls-26{stroke-width:2px;}.cls-20{fill:url(#linear-gradient-13);}.cls-21{stroke:#fff;}.cls-22{fill:url(#linear-gradient-14);}.cls-23{fill:url(#linear-gradient-15);}.cls-24{fill:url(#linear-gradient-16);}.cls-25{fill:url(#linear-gradient-17);}.cls-26{stroke-dasharray:2 6;}.cls-27{fill:#c8c8e8;}.cls-28{fill:url(#linear-gradient-18);}.cls-29{fill:url(#linear-gradient-19);}.cls-30{fill:url(#linear-gradient-20);}.cls-31{fill:url(#linear-gradient-21);}</style><linearGradient id="linear-gradient" x1="396.09" y1="350.71" x2="815.11" y2="350.71" gradientUnits="userSpaceOnUse"><stop offset="0" stop-color="#7a30b4"/><stop offset="1" stop-color="#4458e2"/></linearGradient><linearGradient id="linear-gradient-2" x1="457.81" y1="350.71" x2="752.97" y2="350.71" gradientUnits="userSpaceOnUse"><stop offset="0" stop-color="#4d149c"/><stop offset="1" stop-color="#4477e2"/></linearGradient><linearGradient id="linear-gradient-3" x1="107.65" y1="162.43" x2="340.69" y2="162.43" xlink:href="#linear-gradient-2"/><linearGradient id="linear-gradient-4" x1="107.31" y1="165.03" x2="332.34" y2="165.03" xlink:href="#linear-gradient"/><linearGradient id="linear-gradient-5" x1="107.31" y1="245.17" x2="332.34" y2="245.17" gradientUnits="userSpaceOnUse"><stop offset="0" stop-color="#dcdcf4"/><stop offset="1" stop-color="#f6f6ff"/></linearGradient><linearGradient id="linear-gradient-6" x1="435.83" y1="287.36" x2="506.14" y2="287.36" gradientUnits="userSpaceOnUse"><stop offset="0" stop-color="#e6e6f4"/><stop offset="1" stop-color="#f6f6ff"/></linearGradient><linearGradient id="linear-gradient-7" x1="546.74" y1="222.8" x2="617.05" y2="222.8" xlink:href="#linear-gradient-6"/><linearGradient id="linear-gradient-8" x1="546.74" y1="262.67" x2="617.05" y2="262.67" gradientUnits="userSpaceOnUse"><stop offset="0" stop-color="#ff9c00"/><stop offset="1" stop-color="#fff694"/></linearGradient><linearGradient id="linear-gradient-9" x1="520.47" y1="335.55" x2="590.79" y2="335.55" xlink:href="#linear-gradient-6"/><linearGradient id="linear-gradient-10" x1="520.47" y1="375.41" x2="590.79" y2="375.41" xlink:href="#linear-gradient-8"/><linearGradient id="linear-gradient-11" x1="631.12" y1="271.84" x2="701.43" y2="271.84" xlink:href="#linear-gradient-6"/><linearGradient id="linear-gradient-12" x1="396.11" y1="473.82" x2="605.11" y2="473.82" xlink:href="#linear-gradient"/><linearGradient id="linear-gradient-13" x1="605.11" y1="474.03" x2="815.11" y2="474.03" xlink:href="#linear-gradient"/><linearGradient id="linear-gradient-14" x1="606.4" y1="384.94" x2="676.72" y2="384.94" xlink:href="#linear-gradient-6"/><linearGradient id="linear-gradient-15" x1="606.4" y1="424.81" x2="676.72" y2="424.81" xlink:href="#linear-gradient-8"/><linearGradient id="linear-gradient-16" x1="717.31" y1="321.24" x2="787.63" y2="321.24" xlink:href="#linear-gradient-6"/><linearGradient id="linear-gradient-17" x1="717.31" y1="361.1" x2="787.63" y2="361.1" xlink:href="#linear-gradient-8"/><linearGradient id="linear-gradient-18" x1="440.12" y1="466.23" x2="445.42" y2="466.23" xlink:href="#linear-gradient-2"/><linearGradient id="linear-gradient-19" x1="440.12" y1="414.56" x2="445.42" y2="414.56" xlink:href="#linear-gradient-2"/><linearGradient id="linear-gradient-20" x1="549.21" y1="529.48" x2="554.51" y2="529.48" xlink:href="#linear-gradient-2"/><linearGradient id="linear-gradient-21" x1="549.21" y1="477.8" x2="554.51" y2="477.8" xlink:href="#linear-gradient-2"/></defs><title>Ресурс 5</title><g id="Слой_2" data-name="Слой 2"><g id="_4.2" data-name="4.2"><path class="cls-1" d="M610.24,387.28,256,181.65a5.21,5.21,0,0,0-5.21,0L3.11,324a5.21,5.21,0,0,0,0,9L358.41,538.36a5.21,5.21,0,0,0,5.21,0L610.23,396.3A5.21,5.21,0,0,0,610.24,387.28Z"/><line class="cls-1" x1="400.74" y1="265.51" x2="142.58" y2="413.71"/><line class="cls-1" x1="434.74" y1="285.51" x2="177.36" y2="433.26"/><line class="cls-1" x1="473.74" y1="308.51" x2="215.58" y2="456.71"/><line class="cls-1" x1="508.74" y1="328.51" x2="250.58" y2="476.71"/><line class="cls-1" x1="291.74" y1="202.51" x2="33.58" y2="350.71"/><line class="cls-1" x1="325.74" y1="222.51" x2="67.95" y2="370.5"/><line class="cls-1" x1="364.74" y1="245.51" x2="107.35" y2="393.27"/><line class="cls-1" x1="546.74" y1="350.51" x2="288.58" y2="498.71"/><line class="cls-1" x1="581.74" y1="370.51" x2="323.58" y2="518.71"/><line class="cls-1" x1="216.37" y1="201.51" x2="581.99" y2="412.57"/><line class="cls-1" x1="178.37" y1="223.51" x2="543.99" y2="434.57"/><line class="cls-1" x1="142.37" y1="244.51" x2="507.23" y2="455.14"/><line class="cls-1" x1="105.37" y1="265.51" x2="470.99" y2="476.57"/><line class="cls-1" x1="69.37" y1="286.51" x2="434.33" y2="497.19"/><line class="cls-1" x1="31.37" y1="308.51" x2="396.05" y2="519.31"/><path class="cls-2" d="M180,214.89l-.44,39.82a21,21,0,0,1-10.28,17.85l-21.67,12.9a3.44,3.44,0,0,0,.07,6l68.41,38.65a3.44,3.44,0,0,0,3.41,0l23.92-13.78A21,21,0,0,0,254,298V253.92a3.44,3.44,0,0,0-1.71-3l-67.07-39A3.44,3.44,0,0,0,180,214.89Z"/><polygon class="cls-3" points="815.11 350.93 605.39 471.55 396.09 350.71 605.39 229.87 815.11 350.93"/><polygon class="cls-4" points="752.97 350.71 605.39 435.92 457.81 350.71 605.39 265.51 752.97 350.71"/><path class="cls-5" d="M322.1,323.64,127.23,204.07c-6.39-3.69-11.57-11.86-11.57-18.26l-8-177.17c0-6.39,13.18-11,19.58-7.34L329.12,117.87c6.39,3.69,11.57,11.86,11.57,18.26V315.74C340.69,322.13,328.49,327.33,322.1,323.64Z"/><path class="cls-6" d="M320.77,324.69,118.88,208.13c-6.39-3.69-11.57-11.86-11.57-18.26V10.26c0-6.39,5.18-8.58,11.57-4.89L320.77,121.93c6.39,3.69,11.57,11.86,11.57,18.26V319.8C332.34,326.2,327.16,328.39,320.77,324.69Z"/><path class="cls-2" d="M332.34,293.78l8.35-4.41.42,23.56s1.55,11.5-14.26,13.55C329,319.56,332.34,293.78,332.34,293.78Z"/><path class="cls-7" d="M332.34,293.78v26c0,6.39-5.18,8.58-11.57,4.89L118.88,208.13c-6.39-3.69-11.57-11.86-11.57-18.26v-26Z"/><path class="cls-8" d="M222.75,249.22c0,4.51-3.66,6.06-8.17,3.45s-8.17-8.37-8.17-12.88,3.66-6.06,8.17-3.45S222.75,244.71,222.75,249.22Z"/><polygon class="cls-9" points="506.14 358.02 435.83 317.43 435.83 216.69 506.14 257.29 506.14 358.02"/><path class="cls-10" d="M460.84,279l-2.62-1.51a1.34,1.34,0,0,1-.43-.39,2.44,2.44,0,0,1-.26-.46l-3.27-7.3a.92.92,0,0,1-.19.31l-3.13,3.19a.87.87,0,0,1-.27.15.49.49,0,0,1-.4-.09l-2.45-1.41,4.68-4.55-4.5-9.44,2.61,1.51a1.53,1.53,0,0,1,.4.3,1.71,1.71,0,0,1,.23.37l3.21,7a1.9,1.9,0,0,1,.23-.35l2.95-2.93a.36.36,0,0,1,.23-.14.56.56,0,0,1,.32.1l2.51,1.45L456.17,269Z"/><path class="cls-10" d="M470.72,282.58v2.17L462.45,280V265.87l2.63,1.52v11.94Z"/><path class="cls-10" d="M480.1,278.62a.4.4,0,0,1-.25.15.55.55,0,0,1-.33-.1,1.77,1.77,0,0,1-.45-.41l-.57-.67a10.37,10.37,0,0,0-.78-.78,5.87,5.87,0,0,0-1-.76,3.93,3.93,0,0,0-1-.42,1.38,1.38,0,0,0-.69,0,.65.65,0,0,0-.42.32,1.33,1.33,0,0,0-.14.64,2,2,0,0,0,.28,1,5.35,5.35,0,0,0,.74,1c.3.33.65.67,1,1l1.2,1.09q.61.56,1.2,1.18a9.76,9.76,0,0,1,1,1.31,6.8,6.8,0,0,1,.74,1.46,4.86,4.86,0,0,1,.28,1.65,3.54,3.54,0,0,1-.33,1.6,1.82,1.82,0,0,1-1,.9,2.73,2.73,0,0,1-1.54.09,6.73,6.73,0,0,1-2.08-.84,11.61,11.61,0,0,1-1.33-.9,14.4,14.4,0,0,1-1.25-1.1,15.21,15.21,0,0,1-1.12-1.23,12.76,12.76,0,0,1-.94-1.3l.77-.81a.4.4,0,0,1,.25-.08.65.65,0,0,1,.33.1,2,2,0,0,1,.53.5l.67.83a12,12,0,0,0,.91,1,6.44,6.44,0,0,0,1.25.92,2.44,2.44,0,0,0,1.74.47q.61-.18.61-1.17a2.21,2.21,0,0,0-.28-1.07,5.24,5.24,0,0,0-.74-1,12.15,12.15,0,0,0-1-1l-1.19-1q-.61-.54-1.19-1.16a9,9,0,0,1-1-1.32,6.79,6.79,0,0,1-.74-1.52,5.51,5.51,0,0,1-.28-1.78,2.7,2.7,0,0,1,.31-1.33,1.69,1.69,0,0,1,.89-.78,2.67,2.67,0,0,1,1.44-.07,6.31,6.31,0,0,1,2,.8,12.2,12.2,0,0,1,2.3,1.72,12,12,0,0,1,1.79,2.13Z"/><path class="cls-10" d="M494.73,298.61l-2.62-1.51a1.34,1.34,0,0,1-.43-.39,2.44,2.44,0,0,1-.26-.46l-3.27-7.3a.92.92,0,0,1-.19.31l-3.13,3.19a.87.87,0,0,1-.27.15.49.49,0,0,1-.4-.09l-2.45-1.41,4.68-4.55-4.5-9.44,2.61,1.51a1.53,1.53,0,0,1,.4.3,1.71,1.71,0,0,1,.23.37l3.21,7a1.9,1.9,0,0,1,.23-.35l2.95-2.93a.36.36,0,0,1,.23-.14.56.56,0,0,1,.32.1l2.51,1.45-4.54,4.12Z"/><polygon class="cls-11" points="506.14 358.02 435.83 317.43 435.83 296.43 506.14 337.02 506.14 358.02"/><polygon class="cls-12" points="617.05 293.46 546.74 252.87 546.74 152.13 617.05 192.73 617.05 293.46"/><path class="cls-10" d="M570.45,208.72a5.72,5.72,0,0,1-.29,2,2.07,2.07,0,0,1-.87,1.12,2.13,2.13,0,0,1-1.45.2,6.14,6.14,0,0,1-2-.8q-.53-.3-1-.66t-1.06-.81c0-.25,0-.5.07-.74s0-.49.07-.74A.28.28,0,0,1,564,208a.53.53,0,0,1,.41.1,3.46,3.46,0,0,1,.43.32,4.85,4.85,0,0,0,.68.46,3.38,3.38,0,0,0,1,.41.94.94,0,0,0,.72-.1,1.15,1.15,0,0,0,.43-.66,4.54,4.54,0,0,0,.15-1.28v-9.15l2.63,1.52Z"/><path class="cls-10" d="M578,204a14.48,14.48,0,0,1,2.45,1.75,10.71,10.71,0,0,1,1.71,1.91,7.72,7.72,0,0,1,1,2,6.54,6.54,0,0,1,.33,2,3.63,3.63,0,0,1-.34,1.68,1.71,1.71,0,0,1-1,.88,3.17,3.17,0,0,1-1.71,0,9.56,9.56,0,0,1-2.41-1l-2-1.13v5l-2.62-1.52V201.36Zm0,7.09a4.94,4.94,0,0,0,1.26.55,1.55,1.55,0,0,0,.89,0,.93.93,0,0,0,.53-.51,2.35,2.35,0,0,0,.17-1,3.74,3.74,0,0,0-.17-1.13,4.22,4.22,0,0,0-.53-1.08,5.34,5.34,0,0,0-.89-1A7.53,7.53,0,0,0,578,206l-2-1.13V210Z"/><path class="cls-10" d="M597.16,222.08v5.71a5.37,5.37,0,0,1-2.29-.16,11.25,11.25,0,0,1-2.6-1.13,16.39,16.39,0,0,1-5.52-5.21,13.59,13.59,0,0,1-1.53-3.16,10.24,10.24,0,0,1-.54-3.21,5.81,5.81,0,0,1,.52-2.62,2.91,2.91,0,0,1,1.47-1.44,3.94,3.94,0,0,1,2.31-.15,9.92,9.92,0,0,1,3,1.23,15.28,15.28,0,0,1,1.61,1.06,16.27,16.27,0,0,1,1.38,1.18,13.63,13.63,0,0,1,1.17,1.25,16.24,16.24,0,0,1,1,1.31l-.75.76a.4.4,0,0,1-.46.08,1.54,1.54,0,0,1-.61-.5l-.64-.74a9.5,9.5,0,0,0-.72-.74q-.39-.36-.89-.74a11,11,0,0,0-1.14-.74,5.7,5.7,0,0,0-1.89-.74,2.27,2.27,0,0,0-1.44.17,2.06,2.06,0,0,0-.92,1,4.64,4.64,0,0,0-.32,1.86,8.16,8.16,0,0,0,.35,2.36,9.13,9.13,0,0,0,1,2.17,9.64,9.64,0,0,0,1.52,1.88,10.07,10.07,0,0,0,2,1.49,6.92,6.92,0,0,0,1.4.64,6,6,0,0,0,1.2.24v-2.56l-1.78-1a1.12,1.12,0,0,1-.39-.37.8.8,0,0,1-.14-.43v-1.48Z"/><polygon class="cls-13" points="617.05 293.46 546.74 252.87 546.74 231.87 617.05 272.46 617.05 293.46"/><polygon class="cls-14" points="590.78 406.21 520.47 365.62 520.47 264.88 590.78 305.48 590.78 406.21"/><path class="cls-10" d="M548.5,325.64a1.13,1.13,0,0,1,.38.38l1,1.72a3,3,0,0,1-2.11.41,8.42,8.42,0,0,1-3-1.17,13.42,13.42,0,0,1-2.82-2.17,14.47,14.47,0,0,1-2.14-2.73,13.09,13.09,0,0,1-1.36-3.07,11.13,11.13,0,0,1-.47-3.17,5.9,5.9,0,0,1,.51-2.62,3,3,0,0,1,1.43-1.45,3.76,3.76,0,0,1,2.2-.22,8.49,8.49,0,0,1,2.83,1.1,13.07,13.07,0,0,1,2.74,2.09,15.17,15.17,0,0,1,2,2.5l-.88.71a.37.37,0,0,1-.2.09.58.58,0,0,1-.34-.11,1.3,1.3,0,0,1-.3-.26l-.34-.4-.43-.52a8,8,0,0,0-.57-.6,9.31,9.31,0,0,0-.75-.63,8.76,8.76,0,0,0-1-.65,5,5,0,0,0-1.73-.66,2.1,2.1,0,0,0-1.35.2,2.06,2.06,0,0,0-.88,1.05,5,5,0,0,0-.31,1.92,8,8,0,0,0,.34,2.31,9.28,9.28,0,0,0,.91,2.09,9.08,9.08,0,0,0,1.36,1.75,8,8,0,0,0,1.68,1.3,10.35,10.35,0,0,0,1,.5,4.48,4.48,0,0,0,.8.28,2.66,2.66,0,0,0,.69.07,2.33,2.33,0,0,0,.65-.12.53.53,0,0,1,.2,0A.55.55,0,0,1,548.5,325.64Z"/><path class="cls-10" d="M559.23,323.63a.4.4,0,0,1-.25.15.55.55,0,0,1-.33-.1,1.77,1.77,0,0,1-.44-.41l-.57-.67a10.45,10.45,0,0,0-.78-.78,5.88,5.88,0,0,0-1-.76,3.93,3.93,0,0,0-1-.42,1.38,1.38,0,0,0-.69,0,.64.64,0,0,0-.42.32,1.32,1.32,0,0,0-.14.64,2,2,0,0,0,.28,1,5.37,5.37,0,0,0,.74,1q.46.5,1,1l1.2,1.09q.61.56,1.2,1.18a9.79,9.79,0,0,1,1,1.3,6.8,6.8,0,0,1,.74,1.46,4.86,4.86,0,0,1,.28,1.65,3.53,3.53,0,0,1-.33,1.6,1.82,1.82,0,0,1-1,.9,2.73,2.73,0,0,1-1.54.09,6.74,6.74,0,0,1-2.08-.84,11.59,11.59,0,0,1-1.33-.9,14.4,14.4,0,0,1-1.25-1.1,15.23,15.23,0,0,1-1.13-1.24,12.65,12.65,0,0,1-.94-1.3l.77-.81a.4.4,0,0,1,.25-.08.65.65,0,0,1,.33.1,2,2,0,0,1,.53.5l.67.83a12,12,0,0,0,.91,1,6.44,6.44,0,0,0,1.25.92,2.44,2.44,0,0,0,1.74.47q.61-.18.61-1.17a2.21,2.21,0,0,0-.28-1.07,5.19,5.19,0,0,0-.74-1,12.07,12.07,0,0,0-1-1l-1.19-1q-.6-.54-1.19-1.16a8.94,8.94,0,0,1-1-1.31,6.73,6.73,0,0,1-.74-1.52,5.51,5.51,0,0,1-.28-1.78,2.69,2.69,0,0,1,.31-1.33,1.69,1.69,0,0,1,.89-.78,2.67,2.67,0,0,1,1.44-.07,6.31,6.31,0,0,1,2,.8,12.2,12.2,0,0,1,2.3,1.72,12,12,0,0,1,1.79,2.13Z"/><path class="cls-10" d="M574.22,329.72l-5.7,10.82-2.37-1.37-5.7-17.4,2.11,1.22a1.8,1.8,0,0,1,.56.49,2.15,2.15,0,0,1,.32.61l3.33,10.52c.11.34.22.71.32,1.11s.2.8.29,1.22c.08-.32.16-.62.25-.9a5.06,5.06,0,0,1,.3-.75l3.31-6.69a.41.41,0,0,1,.31-.23.8.8,0,0,1,.56.14Z"/><polygon class="cls-15" points="590.78 406.21 520.47 365.62 520.47 344.62 590.78 385.21 590.78 406.21"/><polygon class="cls-16" points="701.43 342.5 631.12 301.91 631.12 201.17 701.43 241.77 701.43 342.5"/><path class="cls-10" d="M653.58,247.95a14.48,14.48,0,0,1,2.45,1.75,10.71,10.71,0,0,1,1.71,1.91,7.72,7.72,0,0,1,1,2,6.54,6.54,0,0,1,.33,2,3.63,3.63,0,0,1-.34,1.68,1.71,1.71,0,0,1-1,.88,3.17,3.17,0,0,1-1.71,0,9.56,9.56,0,0,1-2.41-1l-2-1.13v5L649,259.41V245.3Zm0,7.09a4.94,4.94,0,0,0,1.26.55,1.55,1.55,0,0,0,.89,0,.93.93,0,0,0,.53-.51,2.35,2.35,0,0,0,.17-1,3.74,3.74,0,0,0-.17-1.13,4.22,4.22,0,0,0-.53-1.08,5.34,5.34,0,0,0-.89-1,7.53,7.53,0,0,0-1.27-.9l-2-1.13v5.06Z"/><path class="cls-10" d="M673.6,266.56a5.53,5.53,0,0,1-.52,2.55,2.88,2.88,0,0,1-1.45,1.39,3.91,3.91,0,0,1-2.25.15,9.42,9.42,0,0,1-2.93-1.17l-5.38-3.1V252.27l5.38,3.1a14.76,14.76,0,0,1,2.93,2.21,15.33,15.33,0,0,1,2.25,2.75,13.39,13.39,0,0,1,1.45,3.07A10.17,10.17,0,0,1,673.6,266.56ZM670.91,265a8.35,8.35,0,0,0-.31-2.26,8.53,8.53,0,0,0-.89-2.07,9,9,0,0,0-3.26-3.21l-2.74-1.58v9.93l2.74,1.58a5.65,5.65,0,0,0,1.86.73,2.21,2.21,0,0,0,1.4-.17,2,2,0,0,0,.89-1A5,5,0,0,0,670.91,265Z"/><path class="cls-10" d="M678.55,264.45v4.17l5.29,3.05v2.1l-5.29-3.05v5.75l-2.63-1.52V260.84l8.9,5.14v2.09Z"/><polygon class="cls-11" points="701.43 342.5 631.12 301.91 631.12 280.91 701.43 321.5 701.43 342.5"/><path class="cls-8" d="M201.45,187.71,136,149.91a2.42,2.42,0,0,1-1.21-2.1V52.68a2.42,2.42,0,0,1,3.64-2.1l65.46,37.8a2.42,2.42,0,0,1,1.21,2.1v95.13A2.42,2.42,0,0,1,201.45,187.71Z"/><path class="cls-17" d="M201.88,188l-66-38.13a2.14,2.14,0,0,1-1.07-1.85V122.3l70.31,40.6V186.1A2.14,2.14,0,0,1,201.88,188Z"/><path class="cls-18" d="M605.11,471.39V596.93L401.53,479.41a10.83,10.83,0,0,1-5.41-9.38V350.71Z"/><line class="cls-19" x1="152.93" y1="112.78" x2="182.44" y2="129.82"/><line class="cls-19" x1="154" y1="102.52" x2="183.52" y2="119.56"/><line class="cls-19" x1="154" y1="81.99" x2="183.52" y2="99.03"/><line class="cls-19" x1="154" y1="92.26" x2="183.52" y2="109.3"/><path class="cls-20" d="M815.11,350.93V469.87a10.5,10.5,0,0,1-5.25,9.1L605.11,597.12V471.39Z"/><path class="cls-8" d="M299.83,244.17l-65.38-37.75a2.47,2.47,0,0,1-1.23-2.14v-95a2.47,2.47,0,0,1,3.7-2.14l65.38,37.75a2.47,2.47,0,0,1,1.23,2.14v95A2.47,2.47,0,0,1,299.83,244.17Z"/><path class="cls-11" d="M289.15,187.64c0,11.47-9.3,15.4-20.77,8.78s-20.77-21.29-20.77-32.76,9.3-15.4,20.77-8.78S289.15,176.16,289.15,187.64Z"/><line class="cls-21" x1="268.38" y1="165.01" x2="268.38" y2="187.17"/><line class="cls-21" x1="279.46" y1="182.49" x2="257.29" y2="169.69"/><polygon class="cls-22" points="676.72 455.61 606.4 415.01 606.4 314.28 676.72 354.87 676.72 455.61"/><path class="cls-10" d="M626.33,359.58a14.48,14.48,0,0,1,2.45,1.75,10.71,10.71,0,0,1,1.71,1.91,7.72,7.72,0,0,1,1,2,6.54,6.54,0,0,1,.33,2,3.63,3.63,0,0,1-.34,1.68,1.71,1.71,0,0,1-1,.88,3.17,3.17,0,0,1-1.71,0,9.56,9.56,0,0,1-2.41-1l-2-1.13v5L621.74,371V356.94Zm0,7.09a4.94,4.94,0,0,0,1.26.55,1.55,1.55,0,0,0,.89,0,.93.93,0,0,0,.53-.51,2.35,2.35,0,0,0,.17-1,3.74,3.74,0,0,0-.17-1.13,4.22,4.22,0,0,0-.53-1.08,5.34,5.34,0,0,0-.89-1,7.53,7.53,0,0,0-1.27-.9l-2-1.13v5.06Z"/><path class="cls-10" d="M645.71,370.78v14.11l-1.35-.78a2.25,2.25,0,0,1-.52-.4,2.81,2.81,0,0,1-.41-.58l-7.37-13.66q.06.68.06,1.22v8.66L633.82,378V363.91l1.38.79.29.18a1.39,1.39,0,0,1,.21.18,1.6,1.6,0,0,1,.18.23c.06.09.12.2.2.33l7.39,13.71c0-.24,0-.47,0-.7s0-.44,0-.63v-8.58Z"/><path class="cls-10" d="M660.48,386.34V392a5.37,5.37,0,0,1-2.29-.16,11.25,11.25,0,0,1-2.6-1.13,16.39,16.39,0,0,1-5.52-5.21,13.59,13.59,0,0,1-1.53-3.16,10.24,10.24,0,0,1-.54-3.21,5.81,5.81,0,0,1,.52-2.62A2.91,2.91,0,0,1,650,375.1a3.94,3.94,0,0,1,2.31-.15,9.92,9.92,0,0,1,3,1.23,15.28,15.28,0,0,1,1.61,1.06,16.27,16.27,0,0,1,1.38,1.18,13.63,13.63,0,0,1,1.17,1.25,16.24,16.24,0,0,1,1,1.31l-.75.76a.4.4,0,0,1-.46.08,1.54,1.54,0,0,1-.61-.5l-.64-.74a9.5,9.5,0,0,0-.72-.74q-.39-.36-.89-.74a11,11,0,0,0-1.14-.74,5.7,5.7,0,0,0-1.89-.74,2.27,2.27,0,0,0-1.44.17,2.06,2.06,0,0,0-.92,1,4.64,4.64,0,0,0-.32,1.86,8.16,8.16,0,0,0,.35,2.36,9.13,9.13,0,0,0,1,2.17,9.64,9.64,0,0,0,1.52,1.88,10.07,10.07,0,0,0,2,1.49,6.92,6.92,0,0,0,1.4.64,6,6,0,0,0,1.2.24v-2.56l-1.78-1a1.12,1.12,0,0,1-.39-.37.8.8,0,0,1-.14-.43v-1.48Z"/><polygon class="cls-23" points="676.72 455.61 606.4 415.01 606.4 394.01 676.72 434.61 676.72 455.61"/><polygon class="cls-24" points="787.63 391.9 717.31 351.31 717.31 250.57 787.63 291.17 787.63 391.9"/><path class="cls-10" d="M733.44,293.68a14.48,14.48,0,0,1,2.45,1.75,10.71,10.71,0,0,1,1.71,1.91,7.72,7.72,0,0,1,1,2,6.54,6.54,0,0,1,.33,2,3.63,3.63,0,0,1-.34,1.68,1.71,1.71,0,0,1-1,.88,3.17,3.17,0,0,1-1.71,0,9.56,9.56,0,0,1-2.41-1l-2-1.13v5l-2.62-1.52V291Zm0,7.09a4.94,4.94,0,0,0,1.26.55,1.55,1.55,0,0,0,.89,0,.93.93,0,0,0,.53-.51,2.35,2.35,0,0,0,.17-1,3.74,3.74,0,0,0-.17-1.13,4.22,4.22,0,0,0-.53-1.08,5.34,5.34,0,0,0-.89-1,7.53,7.53,0,0,0-1.27-.9l-2-1.13v5.06Z"/><path class="cls-10" d="M745.52,300.66A14.48,14.48,0,0,1,748,302.4a10.71,10.71,0,0,1,1.71,1.91,7.72,7.72,0,0,1,1,2,6.54,6.54,0,0,1,.33,2,3.63,3.63,0,0,1-.34,1.68,1.71,1.71,0,0,1-1,.88,3.17,3.17,0,0,1-1.71,0,9.56,9.56,0,0,1-2.41-1l-2-1.13v5l-2.62-1.52V298Zm0,7.09a4.94,4.94,0,0,0,1.26.55,1.55,1.55,0,0,0,.89,0,.93.93,0,0,0,.53-.51,2.35,2.35,0,0,0,.17-1,3.74,3.74,0,0,0-.17-1.13,4.22,4.22,0,0,0-.53-1.08,5.34,5.34,0,0,0-.89-1,7.53,7.53,0,0,0-1.27-.9l-2-1.13v5.06Z"/><path class="cls-10" d="M762.86,312.83l-4.25-2.46v12L756,320.81v-12l-4.25-2.46v-2.16l11.13,6.43Z"/><path class="cls-10" d="M776.18,332.47,773.56,331a1.34,1.34,0,0,1-.43-.39,2.48,2.48,0,0,1-.26-.46l-3.27-7.3a.94.94,0,0,1-.19.31l-3.13,3.19a.85.85,0,0,1-.27.15.49.49,0,0,1-.4-.09L763.17,325l4.68-4.55-4.5-9.45,2.61,1.51a1.53,1.53,0,0,1,.4.3,1.66,1.66,0,0,1,.23.37l3.21,7a1.9,1.9,0,0,1,.23-.35l2.95-2.93a.37.37,0,0,1,.23-.14.56.56,0,0,1,.32.1l2.51,1.45-4.54,4.12Z"/><polygon class="cls-25" points="787.63 391.9 717.31 351.31 717.31 330.31 787.63 370.9 787.63 391.9"/><line class="cls-26" x1="669.05" y1="224.91" x2="669.05" y2="126.22"/><line class="cls-26" x1="473.74" y1="238.83" x2="473.74" y2="140.13"/><path class="cls-11" d="M483,142.94c0,5.12-4.15,6.88-9.27,3.92s-9.27-9.51-9.27-14.63,4.15-6.88,9.27-3.92S483,137.82,483,142.94Z"/><path class="cls-11" d="M680.18,127.92c0,5.12-4.15,6.88-9.27,3.92s-9.27-9.51-9.27-14.63,4.15-6.88,9.27-3.92S680.18,122.79,680.18,127.92Z"/><line class="cls-26" x1="755.43" y1="275.75" x2="755.43" y2="177.06"/><path class="cls-17" d="M766.57,178.76c0,5.12-4.15,6.88-9.27,3.92S748,173.17,748,168.05s4.15-6.88,9.27-3.92S766.57,173.64,766.57,178.76Z"/><line class="cls-26" x1="585.9" y1="175.56" x2="585.9" y2="76.87"/><path class="cls-17" d="M597,78.57c0,5.12-4.15,6.88-9.27,3.92s-9.27-9.51-9.27-14.63,4.15-6.88,9.27-3.92S597,73.45,597,78.57Z"/><line class="cls-21" x1="733.69" y1="442.99" x2="792.03" y2="409.3"/><line class="cls-21" x1="733.69" y1="456.13" x2="792.03" y2="422.44"/><line class="cls-21" x1="733.69" y1="469.27" x2="792.03" y2="435.59"/><line class="cls-21" x1="733.69" y1="482.42" x2="792.03" y2="448.73"/><path class="cls-8" d="M553.8,536.77,438.36,470.12a3,3,0,0,1-1.5-2.6v-58.6a3,3,0,0,1,4.5-2.6L556.81,473a3,3,0,0,1,1.5,2.6v58.6A3,3,0,0,1,553.8,536.77Z"/><path class="cls-27" d="M485.68,464.72l11.09,20.39c.24.43.69.69.92.53L508.85,478c.3-.21,0-.93-.45-1.22l-5.55-3.29a1.22,1.22,0,0,1-.58-.92v-19a1.22,1.22,0,0,0-.6-.93l-8.8-4.94c-.32-.18-.58-.07-.58.25v19c0,.32-.26.44-.59.25L486.14,464C485.65,463.75,485.38,464.16,485.68,464.72Z"/><path class="cls-28" d="M445.42,467.76c0,1.46-1.19,2-2.65,1.12a5.5,5.5,0,0,1-2.65-4.18c0-1.46,1.19-2,2.65-1.12A5.5,5.5,0,0,1,445.42,467.76Z"/><path class="cls-29" d="M445.42,416.09c0,1.46-1.19,2-2.65,1.12a5.5,5.5,0,0,1-2.65-4.18c0-1.46,1.19-2,2.65-1.12A5.5,5.5,0,0,1,445.42,416.09Z"/><path class="cls-30" d="M554.51,531c0,1.46-1.19,2-2.65,1.12a5.5,5.5,0,0,1-2.65-4.18c0-1.46,1.19-2,2.65-1.12A5.5,5.5,0,0,1,554.51,531Z"/><path class="cls-31" d="M554.51,479.33c0,1.46-1.19,2-2.65,1.12a5.5,5.5,0,0,1-2.65-4.18c0-1.46,1.19-2,2.65-1.12A5.5,5.5,0,0,1,554.51,479.33Z"/><path class="cls-27" d="M507.87,499.81l-21.22-12.25a3.58,3.58,0,0,1-1.72-2.71v-1.23c0-.95.77-1.27,1.72-.73l21.22,12.25a3.58,3.58,0,0,1,1.72,2.71v1.23C509.59,500,508.82,500.36,507.87,499.81Z"/></g></g></svg>