<?xml version="1.0" encoding="UTF-8"?>
<svg width="24px" height="24px" viewBox="0 0 24 24" version="1.1" xmlns="http://www.w3.org/2000/svg" xmlns:xlink="http://www.w3.org/1999/xlink">
    <!-- Generator: sketchtool 51.3 (57544) - http://www.bohemiancoding.com/sketch -->
    <title>8B41F30D-E6B8-4A22-813F-8056023CB345</title>
    <desc>Created with sketchtool.</desc>
    <defs></defs>
    <g id="Landing-page" stroke="none" stroke-width="1" fill="none" fill-rule="evenodd">
        <g id="Socials" transform="translate(-807.000000, -289.000000)" fill="#FFFFFF">
            <g id="socials-grid" transform="translate(695.000000, 177.000000)">
                <g id="social-row-2" transform="translate(0.000000, 96.000000)">
                    <g id="coub" transform="translate(96.000000, 0.000000)">
                        <path d="M21.7006686,38.2156 C18.2795886,36.1015429 16,32.3169657 16,28 C16,21.3725714 21.3725886,16 28,16 C34.6274286,16 40,21.3725714 40,28 C40,34.6274114 34.6274286,40 28,40 C27.6819486,40 27.3667771,39.9876229 27.0549657,39.9633314 L28.2353886,36.7201257 C28.4307143,36.1835029 29.0826914,35.4646171 29.6576114,34.8301086 C29.9867886,34.4678286 30.2704857,34.1544743 30.3788286,33.9702743 C30.9014457,33.0802514 32.4955086,30.4066686 32.5115886,30.3796 C32.8391714,29.9098171 33.3648571,29.1066229 33.6888914,28.5823771 L35.4589943,25.7066114 C35.7827886,25.1809086 35.80732,24.5211486 35.5135943,24.2364057 C35.4619771,24.1866571 35.4015143,24.1488743 35.3340914,24.1243257 C35.0095429,24.0062114 34.5783143,24.1977143 34.2607771,24.6008286 L32.4813657,27.0821029 C32.2755657,27.3435829 32.0453886,27.5580229 31.8225829,27.7655886 C31.6372171,27.9382686 31.4458857,28.1171714 31.27456,28.3165943 L31.0927771,28.5291657 C31.0706629,28.5546057 31.03984,28.5702571 31.0063086,28.5724857 C30.9727771,28.5746971 30.9409943,28.5705314 30.91192,28.5599543 C30.8484571,28.5368457 30.7462686,28.4644 30.7739886,28.2384229 C30.7800229,28.2106171 31.0915086,26.90152 30.2653943,26.5527314 L30.2293086,26.539 C29.7828057,26.3765029 29.4271943,26.6557086 29.0324971,27.1252171 C28.9731486,27.1957429 28.8517257,27.2023771 28.7904743,27.1800914 C28.6694457,27.13 28.6159943,27.0227029 28.6440571,26.8979371 C28.7848857,26.2680571 28.5252057,25.6789943 28.0265886,25.4975029 L27.9881886,25.4846971 C27.5542686,25.3454629 27.0306571,25.5238 26.7166686,25.9198343 C26.7050457,25.9341143 26.69152,25.9455486 26.67556,25.9535714 C26.6131943,26.0130743 26.50612,26.09584 26.3896857,26.0534629 C26.2649886,26.0080686 26.2353314,25.8562514 26.2241029,25.7458171 L26.2100629,25.6088457 C26.19652,25.4732114 26.1790857,25.3166971 26.1592343,25.1485943 C26.0968343,24.5991829 26.0189371,23.9152171 26.0314171,23.4608629 L26.2228171,20.2319371 C26.2361029,19.7603543 26.0191257,19.35844 25.6832286,19.2361771 C25.5884629,19.2016686 25.48876,19.19092 25.3866743,19.2038114 C24.9117657,19.2648914 24.50392,19.8032286 24.4576171,20.4297314 L24.1051943,23.6943143 C24.0807657,24.0247257 24.0884286,24.4864171 24.0960229,24.9326971 C24.1016971,25.2639314 24.1070457,25.5767371 24.0992114,25.82944 L24.0685086,26.8706629 C24.05752,27.2213543 23.9455771,27.4727714 23.7351829,27.6178686 C23.6191771,27.69952 23.2287829,27.9800971 22.8065886,28.3737657 C22.7602343,28.4170686 22.7133143,28.4582286 22.66732,28.4989429 C22.35568,28.77508 22.0869314,29.0136571 22.0610629,29.8055543 C22.0474343,30.1774857 22.0646629,30.5555886 22.1182686,31.1109486 C22.1742571,31.6940286 22.3465257,32.0598057 22.5293543,32.44696 C22.7897714,32.9987029 23.3009886,33.8187657 22.9567429,34.7645543 C22.9539829,34.7721143 22.1239257,37.0527143 21.7006686,38.2156"></path>
                    </g>
                </g>
            </g>
        </g>
    </g>
</svg>