<?xml version="1.0" encoding="UTF-8"?>
<svg width="12px" height="22px" viewBox="0 0 12 22" version="1.1" xmlns="http://www.w3.org/2000/svg" xmlns:xlink="http://www.w3.org/1999/xlink">
    <!-- Generator: sketchtool 51.3 (57544) - http://www.bohemiancoding.com/sketch -->
    <title>291D8065-5D8F-475F-9966-06749A428A1D</title>
    <desc>Created with sketchtool.</desc>
    <defs></defs>
    <g id="Landing-page" stroke="none" stroke-width="1" fill="none" fill-rule="evenodd">
        <g id="Socials" transform="translate(-812.000000, -194.000000)" fill="#FFFFFF" fill-rule="nonzero">
            <g id="socials-grid" transform="translate(695.000000, 177.000000)">
                <g id="social-row-1">
                    <g id="fb" transform="translate(95.000000, 0.000000)">
                        <path d="M33.5481152,17.0045775 L30.6698609,17 C27.4362408,17 25.3465335,19.1250897 25.3465335,22.4142297 L25.3465335,24.9105521 L22.4525775,24.9105521 C22.2025053,24.9105521 22,25.111503 22,25.3593729 L22,28.9762596 C22,29.2241295 22.2027362,29.4248515 22.4525775,29.4248515 L25.3465335,29.4248515 L25.3465335,38.5514081 C25.3465335,38.799278 25.5490389,39 25.799111,39 L29.5749004,39 C29.8249726,39 30.0274779,38.7990491 30.0274779,38.5514081 L30.0274779,29.4248515 L33.4111874,29.4248515 C33.6612596,29.4248515 33.8637649,29.2241295 33.8637649,28.9762596 L33.8651504,25.3593729 C33.8651504,25.2403587 33.8173527,25.1263797 33.7326098,25.0421543 C33.647867,24.9579289 33.5324136,24.9105521 33.412342,24.9105521 L30.0274779,24.9105521 L30.0274779,22.7943884 C30.0274779,21.7772749 30.2720083,21.2609365 31.6087283,21.2609365 L33.5476534,21.2602499 C33.7974947,21.2602499 34,21.059299 34,20.811658 L34,17.4531694 C34,17.2057572 33.7977256,17.0050352 33.5481152,17.0045775 Z"></path>
                    </g>
                </g>
            </g>
        </g>
    </g>
</svg>