<?xml version="1.0" encoding="UTF-8"?>
<svg width="24px" height="12px" viewBox="0 0 24 12" version="1.1" xmlns="http://www.w3.org/2000/svg" xmlns:xlink="http://www.w3.org/1999/xlink">
    <!-- Generator: sketchtool 51.3 (57544) - http://www.bohemiancoding.com/sketch -->
    <title>212C960E-6E35-4A61-9214-7D3D26196F0A</title>
    <desc>Created with sketchtool.</desc>
    <defs></defs>
    <g id="Landing-page" stroke="none" stroke-width="1" fill="none" fill-rule="evenodd">
        <g id="Socials" transform="translate(-999.000000, -295.000000)" fill="#FFFFFF">
            <g id="socials-grid" transform="translate(695.000000, 177.000000)">
                <g id="social-row-2" transform="translate(0.000000, 96.000000)">
                    <g id="fl" transform="translate(288.000000, 0.000000)">
                        <path d="M21.5,33.5 C18.4624339,33.5 16,31.0375661 16,28 C16,24.9624339 18.4624339,22.5 21.5,22.5 C24.5375661,22.5 27,24.9624339 27,28 C27,31.0375661 24.5375661,33.5 21.5,33.5 Z M34.5,33.5 C31.4624339,33.5 29,31.0375661 29,28 C29,24.9624339 31.4624339,22.5 34.5,22.5 C37.5375661,22.5 40,24.9624339 40,28 C40,31.0375661 37.5375661,33.5 34.5,33.5 Z"></path>
                    </g>
                </g>
            </g>
        </g>
    </g>
</svg>