<?xml version="1.0" encoding="UTF-8"?>
<svg width="28px" height="21px" viewBox="0 0 28 21" version="1.1" xmlns="http://www.w3.org/2000/svg" xmlns:xlink="http://www.w3.org/1999/xlink">
    <!-- Generator: sketchtool 51.3 (57544) - http://www.bohemiancoding.com/sketch -->
    <title>DE1FDAAA-B907-4970-BFD5-FE520CA15815</title>
    <desc>Created with sketchtool.</desc>
    <defs></defs>
    <g id="Landing-page" stroke="none" stroke-width="1" fill="none" fill-rule="evenodd">
        <g id="Socials" transform="translate(-904.000000, -290.000000)" fill="#FFFFFF" fill-rule="nonzero">
            <g id="socials-grid" transform="translate(695.000000, 177.000000)">
                <g id="social-row-2" transform="translate(0.000000, 96.000000)">
                    <g id="google-plus" transform="translate(192.000000, 0.000000)">
                        <path d="M37.1599466,25.9598991 L37.16,25.9599525 L37.16,29.095968 C36.2259511,33.6968067 31.9564787,37.16 27.0799733,37.16 C21.5129585,37.16 17,32.6469107 17,27.0799199 C17,21.512929 21.5129585,16.9999466 27.0799199,17 C29.8263623,17 32.3156995,18.0988178 34.1337008,19.8802442 L31.8573538,22.3545335 C30.6392823,21.1231035 28.9488722,20.3599555 27.0799199,20.3599555 C23.3686123,20.3599555 20.3599911,23.3684858 20.3599911,27.0799199 C20.3599911,30.7911937 23.3685055,33.7999377 27.0799199,33.7999377 C30.0889684,33.7999377 32.6355588,31.82229 33.4917925,29.0959145 L27.7520036,29.0959145 L27.7520036,25.9598991 L37.1599466,25.9598991 Z M45,25.7999946 L45,27.479951 L43.0400435,27.479951 L43.0400435,29.44 L41.3599565,29.44 L41.3599565,27.479951 L39.4,27.479951 L39.4,25.7999946 L41.3599565,25.7999946 L41.3599565,23.84 L43.0400435,23.84 L43.0400435,25.7999946 L45,25.7999946 Z" id="ggl"></path>
                    </g>
                </g>
            </g>
        </g>
    </g>
</svg>