<?xml version="1.0" encoding="UTF-8"?>
<svg width="22px" height="22px" viewBox="0 0 22 22" version="1.1" xmlns="http://www.w3.org/2000/svg" xmlns:xlink="http://www.w3.org/1999/xlink">
    <!-- Generator: sketchtool 51.3 (57544) - http://www.bohemiancoding.com/sketch -->
    <title>220B13DC-EA78-44A2-A1EA-F10639B2037E</title>
    <desc>Created with sketchtool.</desc>
    <defs></defs>
    <g id="Landing-page" stroke="none" stroke-width="1" fill="none" fill-rule="evenodd">
        <g id="Socials" transform="translate(-999.000000, -194.000000)" fill="#FFFFFF" fill-rule="nonzero">
            <g id="socials-grid" transform="translate(695.000000, 177.000000)">
                <g id="social-row-1">
                    <g id="insta" transform="translate(287.000000, 0.000000)">
                        <path d="M28,22.6774194 C25.0606048,22.6774194 22.6774194,25.0606048 22.6774194,28 C22.6774194,30.9393952 25.0606048,33.3225806 28,33.3225806 C30.9393952,33.3225806 33.3225806,30.9393952 33.3225806,28 C33.3225806,25.0606048 30.9393952,22.6774194 28,22.6774194 Z M28,31.3266129 C26.166371,31.3266129 24.6733871,29.833629 24.6733871,28 C24.6733871,26.1650403 26.166371,24.6733871 28,24.6733871 C29.833629,24.6733871 31.3266129,26.1650403 31.3266129,28 C31.3266129,29.833629 29.833629,31.3266129 28,31.3266129 Z M32.125,17 L23.875,17 C20.078625,17 17,20.078625 17,23.875 L17,32.125 C17,35.921375 20.078625,39 23.875,39 L32.125,39 C35.921375,39 39,35.921375 39,32.125 L39,23.875 C39,20.078625 35.921375,17 32.125,17 Z M36.9375,32.125 C36.9375,34.77875 34.77875,36.9375 32.125,36.9375 L23.875,36.9375 C21.22125,36.9375 19.0625,34.77875 19.0625,32.125 L19.0625,23.875 C19.0625,21.22125 21.22125,19.0625 23.875,19.0625 L32.125,19.0625 C34.77875,19.0625 36.9375,21.22125 36.9375,23.875 L36.9375,32.125 Z M34.0322581,22.6774194 C34.4242021,22.6774194 34.7419355,22.359686 34.7419355,21.9677419 C34.7419355,21.5757979 34.4242021,21.2580645 34.0322581,21.2580645 C33.640314,21.2580645 33.3225806,21.5757979 33.3225806,21.9677419 C33.3225806,22.359686 33.640314,22.6774194 34.0322581,22.6774194 Z" id="inst"></path>
                    </g>
                </g>
            </g>
        </g>
    </g>
</svg>