<?xml version="1.0" encoding="UTF-8"?>
<svg width="14px" height="22px" viewBox="0 0 14 22" version="1.1" xmlns="http://www.w3.org/2000/svg" xmlns:xlink="http://www.w3.org/1999/xlink">
    <!-- Generator: sketchtool 51.3 (57544) - http://www.bohemiancoding.com/sketch -->
    <title>6FA2062F-46A1-4093-ACA3-B060AC14CBA7</title>
    <desc>Created with sketchtool.</desc>
    <defs></defs>
    <g id="Landing-page" stroke="none" stroke-width="1" fill="none" fill-rule="evenodd">
        <g id="Socials" transform="translate(-907.000000, -194.000000)" fill="#FFFFFF" fill-rule="nonzero">
            <g id="socials-grid" transform="translate(695.000000, 177.000000)">
                <g id="social-row-1">
                    <g id="ok" transform="translate(191.000000, 0.000000)">
                        <path d="M26.8523441,32.4489663 C25.0449008,32.2698063 23.4152228,31.846738 22.0199606,30.8096057 C21.8468348,30.6805734 21.6680928,30.5561825 21.5101063,30.4120654 C20.8994044,29.8546271 20.8378702,29.2161955 21.3211086,28.5582698 C21.7345106,27.9952617 22.4284789,27.8446466 23.1497958,28.1679237 C23.2894685,28.2305833 23.4225483,28.3087918 23.5500119,28.392802 C26.1503177,30.090877 29.7224722,30.1377556 32.3325453,28.4691539 C32.5911352,28.280711 32.8675504,28.127079 33.1879187,28.0486384 C33.8108297,27.8966309 34.3917413,28.1140829 34.726028,28.6320688 C35.1079303,29.2236218 35.1030467,29.8010183 34.6325058,30.2602899 C33.9107006,30.9643981 33.0426297,31.4737974 32.0781065,31.8293325 C31.1660826,32.1653736 30.1671296,32.3345545 29.1784322,32.4468776 C29.3276281,32.6012059 29.3979528,32.6770936 29.4912308,32.7662095 C30.8337494,34.0481783 32.1821285,35.3248095 33.5202518,36.6107236 C33.9761417,37.0488766 34.0713731,37.5921584 33.8203529,38.1017898 C33.5458911,38.6587639 32.9315264,39.0252065 32.3291267,38.9859862 C31.9474685,38.9609224 31.6498093,38.7803699 31.385359,38.5271788 C30.3722434,37.5582758 29.3400814,36.6072425 28.3474772,35.6200058 C28.0586086,35.332932 27.9196684,35.387237 27.6647412,35.6364829 C26.645521,36.6336987 25.6096963,37.6155978 24.567767,38.591927 C24.0999122,39.0303121 23.5431748,39.1092168 23.0005999,38.8588105 C22.4238395,38.5930874 22.0568323,38.0335604 22.0851575,37.4712486 C22.1046921,37.0908817 22.3015037,36.8003268 22.5762097,36.5397094 C23.9048099,35.2788591 25.2297474,34.0147599 26.5551732,32.751821 C26.642835,32.6678107 26.7246363,32.5786949 26.8523441,32.4489663 Z M27.4596726,27.9999664 C24.4502491,27.9897241 21.9825447,25.498127 22.000093,22.4878171 C22.0174134,19.4442768 24.4867132,16.9916002 27.5257637,17.0000216 C30.5709675,17.0082154 33.0151982,19.4961708 32.9999288,22.5713483 C32.9844316,25.5755129 30.4996347,28.0104362 27.4596726,27.9999664 Z M30.1947041,22.4951005 C30.1894624,21.0004154 28.9975438,19.810494 27.5038852,19.8091283 C25.9976922,19.8075351 24.7950623,21.019079 24.8066852,22.5274205 C24.8178523,24.0164154 26.0200264,25.1979154 27.5177872,25.1924529 C29.0109899,25.187218 30.1997179,23.989558 30.1947041,22.4951005 Z"></path>
                    </g>
                </g>
            </g>
        </g>
    </g>
</svg>