<?xml version="1.0" encoding="UTF-8"?>
<svg width="17px" height="22px" viewBox="0 0 17 22" version="1.1" xmlns="http://www.w3.org/2000/svg" xmlns:xlink="http://www.w3.org/1999/xlink">
    <!-- Generator: sketchtool 51.3 (57544) - http://www.bohemiancoding.com/sketch -->
    <title>2B9360DD-16D3-4EA4-ACD0-EDC8C25FA307</title>
    <desc>Created with sketchtool.</desc>
    <defs></defs>
    <g id="Landing-page" stroke="none" stroke-width="1" fill="none" fill-rule="evenodd">
        <g id="Socials" transform="translate(-715.000000, -290.000000)" fill="#FFFFFF" fill-rule="nonzero">
            <g id="socials-grid" transform="translate(695.000000, 177.000000)">
                <g id="social-row-2" transform="translate(0.000000, 96.000000)">
                    <g id="pinterest">
                        <path d="M34.7952628,19.2004977 C33.3064164,17.7815188 31.2460154,17 28.9936312,17 C25.5530022,17 23.4368619,18.4002097 22.2675224,19.5747734 C20.8263928,21.022287 20,22.9442941 20,24.8480862 C20,27.2384228 21.0070746,29.0730943 22.6935549,29.755642 C22.8067775,29.8016992 22.9206978,29.824901 23.0323857,29.824901 C23.3881685,29.824901 23.670074,29.5937837 23.7677399,29.2230401 C23.8246651,29.0103456 23.9565838,28.4856393 24.0139276,28.2578464 C24.1367076,27.808009 24.037507,27.5916438 23.769763,27.2783853 C23.2819917,26.7054054 23.0548488,26.0278444 23.0548488,25.1460385 C23.0548488,22.5268008 25.019328,19.7430729 28.6603115,19.7430729 C31.5492679,19.7430729 33.3438782,21.3732225 33.3438782,23.9973083 C33.3438782,25.6532223 32.9846074,27.1867556 32.3320598,28.3156084 C31.8786112,29.0999668 31.0812391,30.0349636 29.857137,30.0349636 C29.327788,30.0349636 28.8522947,29.8190833 28.5522512,29.4427297 C28.2688109,29.0869461 28.1754005,28.6273433 28.2893905,28.1483479 C28.41817,27.6071578 28.5937592,27.0426276 28.7636978,26.4968665 C29.0736475,25.5000906 29.3666451,24.5586527 29.3666451,23.8075386 C29.3666451,22.5227837 28.5710868,21.6595393 27.3871672,21.6595393 C25.8825547,21.6595393 24.7037975,23.1767274 24.7037975,25.113556 C24.7037975,26.0634435 24.9580775,26.7739025 25.0731837,27.0467138 C24.8836422,27.8440237 23.7571362,32.5841805 23.5434572,33.4780374 C23.4199099,33.9998349 22.6756262,38.1210931 23.9075416,38.4497271 C25.2916762,38.818947 26.5288935,34.8051096 26.6548127,34.3515322 C26.7568735,33.9826587 27.1139818,32.5878512 27.3328231,31.7304245 C28.0009972,32.3694083 29.0768565,32.8013768 30.1236951,32.8013768 C32.0971734,32.8013768 33.8719715,31.9197094 35.1211877,30.3189256 C36.3327328,28.7662769 37,26.6022094 37,24.2256553 C37,22.3677128 36.1963494,20.5360887 34.7952628,19.2004977 Z" id="pin"></path>
                    </g>
                </g>
            </g>
        </g>
    </g>
</svg>