<?xml version="1.0" encoding="UTF-8"?>
<svg width="14px" height="23px" viewBox="0 0 14 23" version="1.1" xmlns="http://www.w3.org/2000/svg" xmlns:xlink="http://www.w3.org/1999/xlink">
    <!-- Generator: sketchtool 51.3 (57544) - http://www.bohemiancoding.com/sketch -->
    <title>9C63971B-6C9E-4E28-9070-626C0A264973</title>
    <desc>Created with sketchtool.</desc>
    <defs></defs>
    <g id="Landing-page" stroke="none" stroke-width="1" fill="none" fill-rule="evenodd">
        <g id="Socials" transform="translate(-1100.000000, -290.000000)" fill="#FFFFFF" fill-rule="nonzero">
            <g id="socials-grid" transform="translate(695.000000, 177.000000)">
                <g id="social-row-2" transform="translate(0.000000, 96.000000)">
                    <g id="tmblr" transform="translate(384.000000, 0.000000)">
                        <path d="M31.5665424,35.6161894 C30.9057577,35.6161894 30.3283745,35.4666165 29.835274,35.1674709 C29.4503001,34.9453425 29.1941864,34.6559318 29.0659481,34.298833 C28.9273948,33.9514184 28.8585588,33.1213653 28.8585588,31.8085721 L28.8585588,26.1051827 L34.2452396,26.1051827 L34.2452396,22.6165358 L28.8585069,22.6165358 L28.8585069,17 L25.6173031,17 C25.4692641,18.1386802 25.2030427,19.0843354 24.8182761,19.8374726 C24.4334576,20.58052 23.9253252,21.2174975 23.2939306,21.7482022 C22.6624323,22.2695269 21.8978233,22.6748439 21,22.9642546 L21,26.1055376 L23.5157817,26.1055376 L23.5157817,33.9081183 C23.5157817,34.9406779 23.6244266,35.7176961 23.8413016,36.2387672 C24.0485873,36.7601426 24.4383819,37.2666115 25.0105298,37.7588835 C25.6024266,38.2412686 26.2832712,38.6031841 27.0527526,38.8442245 C27.8519351,39.1048362 28.7695073,39.2352941 29.8054174,39.2352941 C30.7526389,39.2352941 31.6058847,39.1433702 32.3656212,38.9600801 C33.1154574,38.7959556 33.9936873,38.4822583 35,38.0189374 L35,34.5157389 C33.8652417,35.2495585 32.7209459,35.6161894 31.5665424,35.6161894 Z"></path>
                    </g>
                </g>
            </g>
        </g>
    </g>
</svg>