<?xml version="1.0" encoding="UTF-8"?>
<svg width="20px" height="21px" viewBox="0 0 20 21" version="1.1" xmlns="http://www.w3.org/2000/svg" xmlns:xlink="http://www.w3.org/1999/xlink">
    <!-- Generator: sketchtool 51.3 (57544) - http://www.bohemiancoding.com/sketch -->
    <title>B0305ED0-A311-43BD-A5C1-F7CFA27BD4C2</title>
    <desc>Created with sketchtool.</desc>
    <defs></defs>
    <g id="Landing-page" stroke="none" stroke-width="1" fill="none" fill-rule="evenodd">
        <g id="Socials" transform="translate(-1192.000000, -291.000000)" fill="#FFFFFF" fill-rule="nonzero">
            <g id="socials-grid" transform="translate(695.000000, 177.000000)">
                <g id="social-row-2" transform="translate(0.000000, 96.000000)">
                    <g id="telegram" transform="translate(479.000000, 0.000000)">
                        <path d="M18.3532595,28.0694237 L22.9616655,30.1436961 L24.7454012,37.0617161 C24.8595346,37.5047903 25.3088019,37.6685614 25.6070023,37.3745453 L28.1758056,34.8490785 C28.4450727,34.5844882 28.8286065,34.5713029 29.1100069,34.8176428 L33.7432129,38.8742925 C34.0622134,39.1539173 34.5141473,38.9431133 34.5941474,38.4782512 L37.9882185,18.7894667 C38.0755519,18.281672 37.6618181,17.8580541 37.2608842,18.0450602 L18.3478594,26.8439146 C17.8811255,27.0609897 17.8851922,27.8578962 18.3532595,28.0694237 Z M24.4579341,29.0395078 L33.4644792,22.3498186 C33.6263461,22.229945 33.7928797,22.4938921 33.6538795,22.6493821 L26.2208698,30.9818469 C25.9596027,31.2751393 25.7910692,31.6676431 25.7433358,32.0936729 L25.4901355,34.3565594 C25.4566021,34.6586957 25.1046683,34.6886842 25.0355349,34.3962761 L24.0617336,30.2698408 C23.9502001,29.79919 24.1127337,29.2964603 24.4579341,29.0395078 Z" id="tlg"></path>
                    </g>
                </g>
            </g>
        </g>
    </g>
</svg>