<?xml version="1.0" encoding="UTF-8"?>
<svg width="21px" height="17px" viewBox="0 0 21 17" version="1.1" xmlns="http://www.w3.org/2000/svg" xmlns:xlink="http://www.w3.org/1999/xlink">
    <!-- Generator: sketchtool 51.3 (57544) - http://www.bohemiancoding.com/sketch -->
    <title>57F04F23-E902-4E87-8B88-8376C42D00EA</title>
    <desc>Created with sketchtool.</desc>
    <defs></defs>
    <g id="Landing-page" stroke="none" stroke-width="1" fill="none" fill-rule="evenodd">
        <g id="Socials" transform="translate(-1096.000000, -197.000000)" fill="#FFFFFF" fill-rule="nonzero">
            <g id="socials-grid" transform="translate(695.000000, 177.000000)">
                <g id="social-row-1">
                    <g id="tw" transform="translate(383.000000, 0.000000)">
                        <path d="M39,22.0113675 C38.2270821,22.3526882 37.3977523,22.584168 36.5263881,22.6875114 C37.4161102,22.1565339 38.0971701,21.3143292 38.4199598,20.3138605 C37.58538,20.8055798 36.6641579,21.1626311 35.6825779,21.3561863 C34.8965521,20.5205132 33.7785062,20 32.5384061,20 C30.1592944,20 28.2302765,21.9224552 28.2302765,24.2921735 C28.2302765,24.628262 28.2683305,24.9565195 28.3418306,25.2704141 C24.762011,25.0912216 21.5876774,23.3819508 19.4631396,20.7846512 C19.0917616,21.4176384 18.8804916,22.1552003 18.8804916,22.9425188 C18.8804916,24.4321078 19.6416056,25.746437 20.7964016,26.5153917 C20.0903956,26.4918641 19.4263896,26.2983089 18.8450798,25.9765831 L18.8450798,26.030204 C18.8450798,28.1095895 20.3305577,29.845021 22.3002374,30.2399969 C21.9393594,30.3367745 21.5588195,30.3903955 21.1651375,30.3903955 C20.8869557,30.3903955 20.6179357,30.3629352 20.3541656,30.3106138 C20.9026714,32.0172856 22.4931495,33.2583647 24.3775594,33.2923908 C22.9038855,34.4432581 21.0457256,35.1272331 19.0274919,35.1272331 C18.679756,35.1272331 18.3372358,35.1063045 18,35.06838 C19.9067139,36.2885647 22.1703598,37 24.6032755,37 C32.5279747,37 36.8597465,30.4584134 36.8597465,24.7852265 L36.8453004,24.2294219 C37.6916841,23.6277933 38.4239059,22.8719019 39,22.0113675 Z"></path>
                    </g>
                </g>
            </g>
        </g>
    </g>
</svg>