<?xml version="1.0" encoding="UTF-8"?>
<svg width="22px" height="15px" viewBox="0 0 22 15" version="1.1" xmlns="http://www.w3.org/2000/svg" xmlns:xlink="http://www.w3.org/1999/xlink">
    <!-- Generator: sketchtool 51.3 (57544) - http://www.bohemiancoding.com/sketch -->
    <title>1BD9D662-2916-4723-80FF-4050DF256F03</title>
    <desc>Created with sketchtool.</desc>
    <defs></defs>
    <g id="Landing-page" stroke="none" stroke-width="1" fill="none" fill-rule="evenodd">
        <g id="Socials" transform="translate(-712.000000, -198.000000)" fill="#FFFFFF" fill-rule="nonzero">
            <g id="socials-grid" transform="translate(695.000000, 177.000000)">
                <g id="social-row-1">
                    <g id="vk">
                        <path d="M38.8833237,34.5466464 C38.8566842,34.4780381 38.8318501,34.4211282 38.8087813,34.3755332 C38.4270826,33.5540074 37.6976666,32.5456427 36.6209745,31.3501514 L36.5982266,31.3227752 L36.5868326,31.3093508 L36.5753183,31.2955908 L36.5637638,31.2955908 C36.075106,30.7389094 35.7656629,30.3646082 35.6360763,30.1729748 C35.3989689,29.8079268 35.3458505,29.43842 35.4754371,29.0640229 C35.5669902,28.7811515 35.9108962,28.1837654 36.5063526,27.2710496 C36.819567,26.7873395 37.067627,26.3996618 37.2508135,26.1075851 C38.5719949,24.0085832 39.1447837,22.6672932 38.9690595,22.0831877 L38.9008159,21.9466903 C38.8549591,21.8645137 38.736606,21.7893371 38.5459171,21.7207767 C38.3547869,21.6523602 38.1104981,21.6410453 37.8126095,21.6866404 L34.5138083,21.7138727 C34.4603689,21.691243 34.3840612,21.6933526 34.2846446,21.7207767 C34.1853484,21.7482008 34.1356802,21.7619609 34.1356802,21.7619609 L34.0782689,21.796241 L34.032693,21.8374252 C33.994499,21.8646576 33.9524937,21.9125539 33.9066369,21.9810184 C33.8610208,22.0492432 33.822867,22.1293102 33.7923761,22.2205482 C33.4332246,23.3247535 33.0248864,24.351385 32.5665992,25.3003947 C32.2840363,25.8662814 32.0245421,26.3567037 31.7875551,26.7719494 C31.5508891,27.1870512 31.3523368,27.4928879 31.1920987,27.6889322 C31.03162,27.8851683 30.8867879,28.0423776 30.7567199,28.1611357 C30.6268525,28.2799417 30.5277167,28.3301394 30.4590719,28.3117767 C30.3902667,28.293414 30.3254734,28.2751952 30.2641304,28.2569764 C30.1572916,28.1747998 30.0713553,28.0630416 30.006562,27.9216059 C29.9414878,27.7801702 29.8976771,27.602153 29.8747688,27.3876981 C29.8519808,27.1730994 29.8385006,26.9885138 29.8346491,26.8333181 C29.8310785,26.6783141 29.8327234,26.4590648 29.8404665,26.1761934 C29.8484102,25.8931781 29.8519808,25.7016885 29.8519808,25.6012932 C29.8519808,25.254464 29.8576377,24.8780533 29.8689916,24.471965 C29.880546,24.0658767 29.8898939,23.7441224 29.8977173,23.5070858 C29.9055005,23.2698094 29.9091113,23.018773 29.9091113,22.7541204 C29.9091113,22.4894678 29.895631,22.2819169 29.8689916,22.1312759 C29.8426731,21.9808266 29.8022725,21.8347883 29.7490337,21.6932087 C29.6954739,21.551773 29.6170801,21.4423641 29.5142132,21.3646943 C29.4111457,21.2871204 29.2830034,21.2255599 29.1305085,21.1798211 C28.725741,21.0703642 28.2103233,21.011153 27.5840149,21.0019477 C26.1637378,20.9837288 25.2511353,21.0933295 24.8464079,21.3306059 C24.6860495,21.4308575 24.5409366,21.5678344 24.4111895,21.7411051 C24.2736993,21.9419438 24.2545221,22.0515445 24.3537782,22.0695715 C24.8120253,22.1516043 25.1364331,22.3478403 25.3273627,22.6580879 L25.396168,22.822489 C25.4496876,22.9411032 25.5031271,23.1510993 25.5566066,23.4521895 C25.6100059,23.7532798 25.6444687,24.0863489 25.659634,24.4512051 C25.6977477,25.1174871 25.6977477,25.6878326 25.659634,26.1622895 C25.6213999,26.6369382 25.5852922,27.006445 25.5508294,27.2710976 C25.5163666,27.5357501 25.4648529,27.750205 25.396168,27.9144143 C25.3273627,28.0786715 25.2815861,28.1790669 25.2586377,28.2155045 C25.2357293,28.2519422 25.2166324,28.2749075 25.2014671,28.2839211 C25.102211,28.3293723 24.9989831,28.3525294 24.8921443,28.3525294 C24.7851451,28.3525294 24.6553981,28.2885717 24.5027025,28.1607521 C24.3500471,28.0329326 24.1916145,27.8573606 24.0274046,27.6337483 C23.8631947,27.4100881 23.6780022,27.0975392 23.4717469,26.6960535 C23.2656521,26.2945679 23.0518141,25.820063 22.8303535,25.272539 L22.6471269,24.8754643 C22.5325851,24.620017 22.3761184,24.248065 22.177566,23.759944 C21.9788933,23.2716313 21.8032895,22.7992839 21.6506341,22.3429979 C21.589612,22.1513645 21.4979385,22.00547 21.3757741,21.9050746 L21.318443,21.8638905 C21.2803293,21.8274528 21.2191468,21.7887617 21.1352164,21.7475296 C21.0511657,21.7063455 20.9634641,21.6768118 20.8717504,21.6586409 L17.7332274,21.6858732 C17.4125106,21.6858732 17.1949014,21.7727004 17.0803196,21.946115 L17.0344628,22.0281477 C17.0115545,22.0738386 17,22.1468098 17,22.2472532 C17,22.3476485 17.0229083,22.4708654 17.0687651,22.6167599 C17.526932,23.9035852 18.0251784,25.1446236 18.5635043,26.340067 C19.1018303,27.5355104 19.5696259,28.4984719 19.9666102,29.2280883 C20.3636747,29.9582322 20.7684021,30.6473358 21.1807924,31.2950634 C21.5931827,31.9430307 21.866157,32.3582764 21.9997155,32.5407045 C22.1334344,32.7234682 22.2384677,32.8601095 22.3148155,32.9513475 L22.6012299,33.2798139 C22.7844967,33.4988715 23.0536195,33.7612227 23.4087189,34.0668677 C23.7638985,34.3727045 24.1571115,34.6737947 24.5885587,34.9706179 C25.020086,35.2669617 25.5221037,35.5087928 26.0948924,35.6958235 C26.667601,35.8830461 27.2250239,35.9581748 27.7672415,35.9219289 L29.0845313,35.9219289 C29.3516883,35.8943609 29.5540921,35.7939655 29.6916626,35.6206948 L29.7372385,35.5520865 C29.76789,35.4976218 29.7965755,35.4130001 29.8230545,35.2991323 C29.8498545,35.1850728 29.8631742,35.0594108 29.8631742,34.9227216 C29.8553509,34.5303933 29.8803454,34.176804 29.9374759,33.8620017 C29.9945662,33.5472952 30.0596403,33.3100189 30.1324174,33.1502205 C30.2051544,32.9905659 30.2872393,32.8558424 30.3785918,32.7466253 C30.470145,32.6371684 30.5353796,32.5708614 30.5736538,32.54804 C30.6116872,32.5250746 30.6420578,32.5094927 30.6649662,32.5001436 C30.8482329,32.4271724 31.0639163,32.4978423 31.3123374,32.7124889 C31.560558,32.9269438 31.7933725,33.1917402 32.0111422,33.5064467 C32.2287915,33.8214408 32.4902916,34.1748383 32.7956827,34.5671666 C33.1012743,34.9596387 33.3684714,35.2513798 33.5974746,35.4433009 L33.8264778,35.6075581 C33.979414,35.7171588 34.1779664,35.8175541 34.4223755,35.9087922 C34.6663433,35.9999822 34.880101,36.0228037 35.0636486,35.9772087 L37.9958762,35.9225522 C38.2859014,35.9225522 38.5115747,35.8651628 38.6716522,35.7512951 C38.8320507,35.6372356 38.927335,35.5115736 38.9580667,35.3748843 C38.9887181,35.2380513 38.990363,35.0828076 38.963884,34.9092492 C38.936723,34.7361223 38.9099632,34.6150629 38.8833237,34.5466464 Z"></path>
                    </g>
                </g>
            </g>
        </g>
    </g>
</svg>