<?xml version="1.0" encoding="UTF-8"?>
<svg width="23px" height="16px" viewBox="0 0 23 16" version="1.1" xmlns="http://www.w3.org/2000/svg" xmlns:xlink="http://www.w3.org/1999/xlink">
    <!-- Generator: sketchtool 51.3 (57544) - http://www.bohemiancoding.com/sketch -->
    <title>C3170413-9A5C-441A-AD3E-F2950B0B13AC</title>
    <desc>Created with sketchtool.</desc>
    <defs></defs>
    <g id="Landing-page" stroke="none" stroke-width="1" fill="none" fill-rule="evenodd">
        <g id="Socials" transform="translate(-1191.000000, -197.000000)" fill="#FFFFFF" fill-rule="nonzero">
            <g id="socials-grid" transform="translate(695.000000, 177.000000)">
                <g id="social-row-1">
                    <g id="ytb" transform="translate(479.000000, 0.000000)">
                        <path d="M39.1035194,21.3734862 C38.2732935,20.3979355 36.7404548,20 33.8130742,20 L23.1867032,20 C20.1923258,20 18.6335194,20.423604 17.8064097,21.462226 C17,22.4748861 17,23.9669609 17,26.0320307 L17,29.9680427 C17,33.9687394 17.9568,36 23.1867032,36 L33.8131484,36 C36.3517548,36 37.7584645,35.6488545 38.6685226,34.7879321 C39.6018032,33.9050815 40,32.4636103 40,29.9680427 L40,26.0320307 C40,23.8542394 39.9376032,22.353364 39.1035194,21.3734862 Z M31.7660742,28.5434394 L26.9406742,31.0362935 C26.8327968,31.0920308 26.714829,31.1196795 26.5970097,31.1196795 C26.4636097,31.1196795 26.3305065,31.0841836 26.2126129,31.0136318 C25.9906258,30.8806688 25.8550742,30.6428316 25.8550742,30.386293 L25.8550742,25.4165727 C25.8550742,25.1604741 25.9902548,24.9228569 26.2117968,24.7898206 C26.4334129,24.6567843 26.7090419,24.6476903 26.9389677,24.7657655 L31.7643677,27.2425584 C32.0098742,27.3685542 32.1640484,27.619079 32.1644194,27.8924122 C32.1647161,28.1659654 32.0112097,28.4168569 31.7660742,28.5434394 Z"></path>
                    </g>
                </g>
            </g>
        </g>
    </g>
</svg>